<svg width="565" height="753" viewBox="0 0 565 753" fill="none" xmlns="http://www.w3.org/2000/svg">
<g clip-path="url(#clip0_8_881)">
<path d="M418.155 702.844C421.774 691.917 447.26 668.508 450.012 669.651C452.764 670.794 432.026 684.134 422.734 706.736C422.178 708.131 415.857 709.812 418.155 702.844Z" fill="#007BFF"/>
<path d="M427.211 665.7C429.829 660.136 437.429 662.515 443.885 664.801C441.099 656.471 445.206 646.309 451.914 647.855C458.622 649.402 453.749 659.623 451.62 665.196C455.954 664.599 463.925 659.942 466.887 665.196C469.85 670.449 460.272 670.937 455.946 670.365C457.444 673.728 466.399 682.679 458.025 683.638C451.973 684.335 448.766 681.066 446.957 673.467C435.35 673.618 423.205 674.223 427.211 665.7Z" fill="#EC8C92"/>
<path d="M433.97 684.436C433.97 684.436 452.815 687.277 454.338 693.556C452.302 698.65 439.475 694.077 433.97 684.436Z" fill="#007BFF"/>
<path d="M392.985 725.523L378.024 734.489L378.891 735.931L393.851 726.964L392.985 725.523Z" fill="#007BFF"/>
<path d="M359.912 725.438L358.792 724.177C363.842 719.655 371.047 713.948 376.467 712.41L376.93 714.032C371.813 715.486 364.861 721.034 359.912 725.438Z" fill="#007BFF"/>
<path d="M265.948 745.612L264.77 744.41C270.779 738.526 279.297 730.784 285.736 727.237L286.578 728.716C280.282 732.163 271.882 739.812 265.948 745.612Z" fill="#007BFF"/>
<path d="M258.651 701.298L257.296 700.297C260.781 695.59 265.89 689.631 270.435 688.009L270.999 689.589C267.767 690.749 263.382 694.901 258.651 701.298Z" fill="#007BFF"/>
<path d="M234.546 702.979L233.124 702.088C233.494 701.491 242.256 687.563 249.115 683.932L249.957 685.411C243.451 688.841 234.672 702.836 234.546 702.979Z" fill="#007BFF"/>
<path d="M226.803 743.342L225.414 742.443C228.899 736.945 234.268 729.549 240.093 725.505L241.052 726.884C235.421 730.767 230.203 737.979 226.803 743.342Z" fill="#007BFF"/>
<path d="M148.141 718.361L146.525 717.882C146.677 717.386 150.262 705.744 158.595 697.649L159.765 698.86C151.744 706.685 148.175 718.285 148.141 718.361Z" fill="#007BFF"/>
<path d="M125.113 726.455L123.514 725.926C123.682 725.43 127.722 713.595 136.433 704.189L137.67 705.332C129.186 714.461 125.147 726.338 125.113 726.455Z" fill="#007BFF"/>
<path d="M501.555 753C497.968 747.737 493.984 742.755 489.637 738.097C489.317 737.743 489.075 737.327 488.925 736.874C488.775 736.421 488.721 735.942 488.767 735.468C488.813 734.993 488.958 734.533 489.192 734.118C489.425 733.702 489.744 733.34 490.126 733.054C492.491 731.325 495.03 729.847 497.701 728.641C498.138 728.439 498.407 728.145 498.382 727.901C498.357 727.657 498.037 727.38 497.541 727.246C492.645 725.936 487.47 726.115 482.677 727.758C480.943 728.313 478.889 727.632 476.743 725.808L475.901 725.111C475.363 724.66 474.923 724.105 474.606 723.48C474.289 722.854 474.103 722.171 474.058 721.471C473.704 714.36 471.207 707.522 466.896 701.852C466.792 701.725 466.652 701.631 466.495 701.581C466.338 701.532 466.17 701.53 466.012 701.575C465.841 701.623 465.689 701.723 465.579 701.862C465.469 702.001 465.405 702.171 465.398 702.348C465.305 703.651 465.128 705.189 464.884 706.929C464.756 707.852 464.397 708.729 463.841 709.477C463.285 710.225 462.55 710.822 461.702 711.212C460.855 711.602 459.923 711.773 458.992 711.709C458.061 711.645 457.161 711.349 456.375 710.846L456.266 710.779C455.504 710.292 454.92 709.572 454.6 708.727C454.28 707.883 454.242 706.957 454.49 706.089L456.602 698.692C456.627 698.619 456.627 698.54 456.602 698.468C456.578 698.395 456.531 698.332 456.467 698.288C456.405 698.243 456.33 698.218 456.253 698.218C456.176 698.218 456.1 698.243 456.038 698.288L450.458 701.894C449.16 702.735 447.66 703.212 446.114 703.276C444.568 703.34 443.034 702.987 441.671 702.256C431.738 696.952 421.48 692.278 410.959 688.261C410.494 688.086 410.073 687.811 409.728 687.456C409.382 687.1 409.119 686.672 408.958 686.203C408.797 685.734 408.742 685.235 408.797 684.742C408.852 684.249 409.015 683.774 409.275 683.352L413.602 676.56C413.745 676.345 413.815 676.09 413.8 675.832C413.785 675.574 413.685 675.328 413.517 675.131C413.355 674.928 413.131 674.783 412.879 674.718C412.627 674.653 412.361 674.671 412.12 674.77L396.642 680.889C394.555 681.704 392.253 681.79 390.111 681.133C380.76 678.292 370.971 675.779 361.006 673.677C360.626 673.596 360.275 673.414 359.989 673.151C359.703 672.888 359.494 672.553 359.382 672.181C359.269 671.811 359.257 671.418 359.349 671.042C359.441 670.666 359.632 670.322 359.904 670.046C361.721 668.188 363.203 666.642 364.608 665.179C366.679 663.019 368.631 660.976 371.291 658.329C371.42 658.196 371.502 658.024 371.523 657.84C371.544 657.656 371.504 657.47 371.409 657.312C371.322 657.152 371.181 657.029 371.012 656.963C370.843 656.897 370.655 656.892 370.483 656.95C362.067 659.472 350.755 664.515 344.114 668.768C342.705 669.665 341.013 670.006 339.367 669.727C319.756 666.499 302.662 665.238 278.414 665.238C265.789 665.238 253.012 665.826 240.488 666.97C240.012 667.015 239.534 666.912 239.119 666.674C238.704 666.436 238.374 666.075 238.174 665.641L237.265 663.7C237.195 663.549 237.095 663.414 236.971 663.303C236.847 663.193 236.701 663.11 236.543 663.058C236.385 663.007 236.218 662.989 236.052 663.005C235.887 663.022 235.726 663.072 235.581 663.153L230.607 665.902C230.124 666.17 229.592 666.336 229.042 666.391C228.493 666.446 227.938 666.388 227.411 666.221C226.885 666.054 226.398 665.782 225.981 665.421C225.564 665.059 225.225 664.617 224.985 664.12L224.749 663.633C224.713 663.559 224.662 663.494 224.598 663.443C224.533 663.392 224.459 663.357 224.379 663.338C224.3 663.318 224.217 663.316 224.137 663.332C224.057 663.348 223.981 663.382 223.916 663.431L220.549 665.952C220.212 666.208 219.809 666.364 219.388 666.403C218.966 666.442 218.542 666.363 218.163 666.174C217.784 665.985 217.465 665.694 217.243 665.335C217.021 664.975 216.904 664.56 216.905 664.137V659.371C216.949 659.133 216.92 658.886 216.821 658.665C216.74 658.723 216.669 658.794 216.61 658.875L208.85 669.18C207.588 670.654 205.86 671.654 203.952 672.013C174.493 677.502 150.523 684.999 128.396 695.599C127.663 695.957 126.846 696.105 126.035 696.026C125.223 695.947 124.45 695.645 123.8 695.153C115.116 688.575 105.01 684.119 94.2914 682.141C94.1812 682.116 94.0654 682.132 93.9662 682.187C93.867 682.241 93.791 682.329 93.7528 682.436C93.7008 682.541 93.6892 682.661 93.7202 682.774C93.7513 682.887 93.8227 682.985 93.9211 683.049C98.9711 686.722 103.407 690.085 106.992 693.043C107.455 693.426 107.789 693.943 107.948 694.522C108.107 695.101 108.084 695.715 107.882 696.28C107.68 696.846 107.308 697.335 106.818 697.682C106.327 698.03 105.742 698.218 105.14 698.221H98.8364C98.746 698.216 98.6566 698.243 98.5853 698.299C98.5139 698.355 98.4655 698.435 98.4492 698.524C98.4245 698.608 98.4304 698.698 98.4658 698.778C98.5013 698.858 98.564 698.923 98.6428 698.961C100.006 699.667 101.294 700.407 102.472 701.138C103.191 701.58 103.785 702.198 104.197 702.933C104.608 703.669 104.825 704.498 104.825 705.341C104.825 706.184 104.608 707.012 104.197 707.748C103.785 708.484 103.191 709.102 102.472 709.543C98.9879 711.712 95.596 713.965 92.3724 716.268C91.4923 716.882 90.4102 717.138 89.3477 716.981C88.2853 716.825 87.3229 716.269 86.6575 715.427L80.2609 707.442C80.1989 707.359 80.1284 707.283 80.0505 707.215C79.9758 707.476 79.9758 707.753 80.0505 708.014L83.2572 720.681C83.4233 721.266 83.4146 721.888 83.2322 722.469C83.0498 723.049 82.7017 723.565 82.2304 723.951L81.7422 724.354C81.3677 724.665 80.9178 724.872 80.4376 724.955C79.9575 725.038 79.464 724.993 79.0068 724.825C76.061 723.749 67.9053 721.589 55.8021 724.825C62.0894 726.203 67.0299 727.977 70.4723 730.112C70.8629 730.303 71.1975 730.591 71.4438 730.949C71.69 731.307 71.8396 731.722 71.8779 732.154C71.8837 732.381 71.8434 732.607 71.7595 732.818C71.6756 733.029 71.5499 733.22 71.3898 733.382C70.6955 734 69.7954 734.339 68.8648 734.331C63.5687 734.554 58.3737 735.853 53.597 738.147C53.4724 738.215 53.374 738.322 53.3176 738.451C53.2612 738.581 53.2501 738.726 53.286 738.862C53.322 738.999 53.4029 739.12 53.5157 739.205C53.6286 739.29 53.7669 739.335 53.9084 739.333C56.3121 739.241 58.7193 739.35 61.1047 739.66C61.5173 739.717 61.907 739.883 62.2329 740.142C62.5588 740.401 62.8087 740.743 62.9563 741.131C63.1087 741.526 63.1525 741.954 63.0829 742.371C63.0133 742.788 62.833 743.178 62.5607 743.502C59.9936 746.587 57.5781 749.789 55.3897 753.025L54.001 752.084C56.2655 748.735 58.6982 745.503 61.2898 742.401C61.3677 742.306 61.4195 742.192 61.4402 742.072C61.4608 741.951 61.4496 741.827 61.4076 741.711C61.366 741.602 61.2955 741.506 61.2037 741.434C61.1118 741.361 61.0019 741.315 60.8858 741.3C58.5956 740.999 56.2838 740.895 53.9757 740.989C53.4599 741.004 52.9536 740.847 52.5373 740.543C52.1209 740.238 51.8185 739.803 51.678 739.307C51.5386 738.803 51.5771 738.267 51.7871 737.788C51.9971 737.309 52.3657 736.916 52.8311 736.676C57.8284 734.255 63.2726 732.89 68.8227 732.667C69.9926 732.625 70.3629 732.289 70.405 732.171C70.4471 732.053 70.1862 731.784 69.7822 731.541C66.5081 729.507 61.7527 727.8 55.6506 726.497C55.2765 726.422 54.9392 726.221 54.6941 725.929C54.449 725.637 54.3107 725.27 54.3019 724.889C54.2931 724.507 54.4143 724.135 54.6456 723.831C54.8769 723.528 55.2046 723.312 55.5749 723.219C68.141 719.857 76.6922 722.169 79.7895 723.303C79.9703 723.368 80.165 723.385 80.3542 723.351C80.5433 723.317 80.7201 723.234 80.8669 723.11L81.3551 722.707C81.5779 722.526 81.7424 722.283 81.8277 722.01C81.9131 721.736 81.9155 721.443 81.8348 721.168L78.6365 708.501C78.4258 708.006 78.3946 707.453 78.5483 706.938C78.7019 706.422 79.0307 705.976 79.4781 705.677C79.8876 705.504 80.3469 705.489 80.7668 705.635C81.1868 705.781 81.5374 706.077 81.7506 706.467L88.1305 714.427C88.5307 714.93 89.1081 715.261 89.7447 715.353C90.3814 715.446 91.0292 715.292 91.556 714.923C94.7796 712.628 98.1968 710.359 101.715 708.199C102.19 707.908 102.583 707.5 102.855 707.014C103.128 706.529 103.271 705.981 103.271 705.425C103.271 704.868 103.128 704.321 102.855 703.835C102.583 703.349 102.19 702.942 101.715 702.651C100.57 701.945 99.3161 701.23 97.9947 700.541C97.5873 700.325 97.2638 699.979 97.0749 699.558C96.8861 699.138 96.8427 698.666 96.9517 698.218C97.0607 697.77 97.3158 697.372 97.6768 697.084C98.0379 696.797 98.4843 696.638 98.9458 696.633H105.267C105.525 696.634 105.776 696.554 105.985 696.402C106.194 696.251 106.349 696.037 106.428 695.792C106.517 695.549 106.527 695.285 106.458 695.036C106.388 694.788 106.243 694.567 106.041 694.405C102.489 691.472 98.121 688.135 93.0626 684.478C92.6561 684.189 92.361 683.769 92.2263 683.289C92.0916 682.809 92.1253 682.297 92.3219 681.839C92.5184 681.38 92.866 681.003 93.3069 680.769C93.7478 680.535 94.2556 680.459 94.7459 680.553C105.725 682.586 116.077 687.151 124.978 693.884C125.379 694.189 125.857 694.376 126.358 694.424C126.859 694.471 127.364 694.377 127.815 694.153C150.085 683.486 174.224 675.947 203.8 670.433C205.313 670.15 206.684 669.361 207.689 668.197L215.314 657.841C215.526 657.477 215.855 657.195 216.248 657.043C216.641 656.89 217.075 656.875 217.477 657.001C217.92 657.216 218.279 657.573 218.496 658.014C218.714 658.455 218.779 658.956 218.681 659.438V664.12C218.678 664.23 218.707 664.338 218.766 664.43C218.824 664.523 218.909 664.596 219.009 664.641C219.106 664.692 219.215 664.715 219.324 664.706C219.433 664.697 219.537 664.657 219.623 664.591L222.99 662.069C223.254 661.871 223.558 661.733 223.88 661.664C224.203 661.596 224.537 661.599 224.859 661.674C225.181 661.75 225.483 661.898 225.74 662.106C225.998 662.314 226.206 662.577 226.348 662.876L226.584 663.364C226.717 663.645 226.906 663.896 227.139 664.103C227.372 664.309 227.644 664.467 227.939 664.566C228.246 664.665 228.571 664.7 228.893 664.668C229.214 664.637 229.526 664.539 229.808 664.381L234.782 661.632C235.128 661.44 235.51 661.322 235.904 661.284C236.298 661.246 236.696 661.29 237.073 661.412C237.449 661.534 237.797 661.733 238.093 661.995C238.39 662.257 238.629 662.577 238.797 662.935L239.706 664.885C239.758 665.005 239.848 665.104 239.962 665.169C240.075 665.234 240.207 665.261 240.337 665.246C252.962 664.095 265.73 663.506 278.422 663.506C302.771 663.506 319.941 664.776 339.645 668.02C340.882 668.227 342.152 667.973 343.213 667.306C349.947 662.994 361.486 657.824 370.012 655.286C370.543 655.123 371.114 655.143 371.632 655.345C372.15 655.546 372.584 655.916 372.865 656.395C373.152 656.876 373.27 657.439 373.202 657.994C373.133 658.55 372.881 659.066 372.486 659.463C369.844 662.103 367.899 664.137 365.837 666.289C364.423 667.76 362.942 669.306 361.115 671.172C361.056 671.233 361.014 671.309 360.994 671.392C360.975 671.475 360.979 671.562 361.006 671.643C361.029 671.727 361.075 671.803 361.139 671.862C361.203 671.922 361.282 671.962 361.368 671.979C371.375 674.097 381.214 676.619 390.616 679.477C392.394 680.021 394.304 679.95 396.036 679.275L411.506 673.156C412.077 672.932 412.705 672.893 413.3 673.047C413.894 673.2 414.425 673.537 414.816 674.01C415.207 674.483 415.439 675.067 415.478 675.679C415.517 676.291 415.361 676.899 415.032 677.418L410.706 684.201C410.588 684.408 410.516 684.639 410.494 684.876C410.473 685.114 410.502 685.354 410.58 685.579C410.658 685.816 410.788 686.032 410.959 686.212C411.131 686.392 411.341 686.532 411.573 686.622C422.161 690.659 432.481 695.365 442.471 700.709C443.569 701.298 444.805 701.582 446.05 701.53C447.295 701.478 448.504 701.093 449.549 700.415L455.129 696.809C455.482 696.583 455.894 696.47 456.313 696.484C456.731 696.499 457.135 696.64 457.471 696.889C457.807 697.138 458.06 697.483 458.194 697.879C458.329 698.274 458.341 698.702 458.227 699.104L456.106 706.501C455.957 707.022 455.98 707.578 456.173 708.085C456.365 708.593 456.717 709.024 457.174 709.317L457.275 709.384C457.825 709.734 458.454 709.94 459.104 709.984C459.754 710.028 460.405 709.908 460.996 709.635C461.588 709.362 462.101 708.945 462.489 708.423C462.878 707.9 463.128 707.288 463.218 706.644C463.462 704.962 463.63 703.441 463.723 702.172C463.756 701.659 463.945 701.168 464.266 700.765C464.586 700.362 465.022 700.067 465.515 699.919C465.998 699.774 466.514 699.776 466.995 699.926C467.477 700.076 467.902 700.366 468.217 700.76C472.771 706.69 475.397 713.871 475.742 721.336C475.774 721.807 475.901 722.266 476.115 722.686C476.329 723.106 476.626 723.479 476.987 723.782L477.829 724.48C479.007 725.48 480.707 726.573 482.172 726.161C487.272 724.411 492.779 724.224 497.987 725.623C498.513 725.716 498.997 725.974 499.368 726.359C499.738 726.744 499.977 727.237 500.049 727.767C500.054 728.293 499.895 728.807 499.593 729.238C499.291 729.669 498.862 729.995 498.365 730.171C495.813 731.317 493.388 732.726 491.127 734.373C490.929 734.52 490.765 734.706 490.644 734.921C490.524 735.135 490.45 735.373 490.429 735.617C490.403 735.858 490.43 736.101 490.507 736.33C490.584 736.559 490.709 736.769 490.875 736.945C495.282 741.673 499.319 746.731 502.953 752.075L501.555 753Z" fill="#007BFF"/>
<path d="M554.824 636.407C553.414 636.391 552.02 636.106 550.717 635.566L409.957 579.165C408.624 578.687 407.414 577.917 406.417 576.912C405.42 575.907 404.659 574.693 404.192 573.357C403.431 570.921 403.559 568.294 404.554 565.944C406.557 560.951 412.028 556.983 418.222 559.463L428.322 563.498C428.607 563.656 428.924 563.747 429.25 563.763C429.575 563.779 429.9 563.72 430.199 563.59C432.244 562.556 433.566 557.202 435.106 550.982C435.569 549.107 436.04 547.199 436.579 545.199L436.68 544.829C438.793 536.928 443.152 520.453 461.778 521.251C468.714 521.529 472.055 521.915 478.107 522.605H478.258C479.79 522.781 481.507 522.983 483.502 523.201C489.099 523.815 492.819 525.278 495.596 527.942C498.963 531.178 500.722 536.171 500.966 543.207C501.303 552.974 503.491 555.168 507.405 555.815C541.181 561.27 541.071 575.837 541.004 589.924C541.004 590.765 541.004 591.606 541.004 592.446C541.004 600.852 541.846 608.98 547.805 611.359L558.418 615.561C559.815 616.074 561.08 616.888 562.125 617.946C563.17 619.004 563.967 620.279 564.461 621.681C565.317 624.258 565.215 627.056 564.175 629.565C563.244 631.98 561.492 633.992 559.226 635.247C557.88 635.999 556.366 636.398 554.824 636.407ZM551.348 634.011C552.46 634.512 553.671 634.756 554.891 634.725C556.11 634.694 557.307 634.39 558.393 633.835C560.314 632.76 561.802 631.051 562.601 629.002C563.486 626.863 563.578 624.478 562.862 622.277C562.446 621.109 561.778 620.047 560.905 619.166C560.032 618.284 558.977 617.604 557.812 617.175L547.207 612.922C540.348 610.173 539.371 601.465 539.346 592.463C539.346 591.622 539.346 590.782 539.346 589.941C539.43 576.56 539.514 562.724 507.161 557.496C501 556.504 499.586 551.335 499.308 543.307C499.081 536.734 497.49 532.111 494.452 529.195C491.927 526.807 488.56 525.488 483.342 524.908L478.09 524.319H477.955C471.929 523.63 468.613 523.252 461.736 522.975C444.499 522.294 440.333 537.827 438.33 545.308L438.229 545.678C437.698 547.662 437.227 549.561 436.773 551.385C434.997 558.572 433.717 563.741 430.982 565.111C430.472 565.349 429.916 565.472 429.353 565.472C428.791 565.472 428.235 565.349 427.725 565.111L417.625 561.077C412.457 559.001 407.853 562.388 406.153 566.624C405.302 568.603 405.183 570.82 405.816 572.878C406.209 573.981 406.844 574.982 407.674 575.808C408.504 576.634 409.508 577.264 410.614 577.652L551.348 634.011Z" fill="#007BFF"/>
<path d="M553.772 464.607C553.241 464.604 552.712 464.554 552.19 464.455L449.414 445.434C448.412 445.286 447.454 444.916 446.613 444.352C445.771 443.788 445.066 443.043 444.55 442.172C443.677 440.574 443.397 438.72 443.758 436.936C444.109 435.025 445.097 433.289 446.561 432.01C447.36 431.322 448.308 430.827 449.33 430.565C450.352 430.302 451.42 430.279 452.453 430.497L459.801 431.85C460.449 431.976 460.718 431.85 460.869 431.707C462.014 430.816 462.191 426.891 462.368 422.739C462.427 421.419 462.485 420.057 462.578 418.62V418.359C462.94 412.669 463.681 400.825 476.55 398.783C481.288 398.035 483.594 397.833 487.786 397.48H488.013L491.514 397.177C495.437 396.833 498.206 397.329 500.486 398.783C503.272 400.548 505.175 403.742 506.311 408.533C507.826 414.905 509.518 416.098 512.11 415.964C535.895 415.056 537.924 425.47 539.716 434.658V434.826C539.817 435.339 539.91 435.851 540.019 436.364C541.164 441.954 542.805 447.241 546.98 448.014L554.723 449.443C555.766 449.611 556.759 450.006 557.632 450.6C558.505 451.194 559.236 451.973 559.773 452.881C560.736 454.56 561.062 456.529 560.691 458.429C560.16 461.564 557.762 464.607 553.772 464.607ZM552.493 462.799C556.322 463.514 558.561 460.95 559.091 458.101C559.382 456.601 559.132 455.046 558.385 453.713C557.96 453.012 557.386 452.414 556.704 451.959C556.022 451.504 555.248 451.205 554.437 451.082L546.694 449.645C541.534 448.695 539.649 442.853 538.387 436.683C538.277 436.171 538.176 435.65 538.075 435.128V434.969C536.249 425.613 534.523 416.779 512.177 417.628C507.691 417.788 505.991 414.417 504.686 408.903C503.651 404.558 501.985 401.708 499.636 400.187C497.684 398.943 495.243 398.506 491.716 398.842L488.207 399.136H487.988C483.83 399.481 481.541 399.674 476.861 400.422C465.33 402.254 464.665 412.787 464.312 418.443V418.704C464.219 420.125 464.16 421.478 464.101 422.781C463.874 427.925 463.714 431.632 461.955 433.01C461.613 433.263 461.218 433.436 460.8 433.517C460.383 433.599 459.952 433.586 459.54 433.481L452.192 432.119C451.41 431.958 450.601 431.978 449.828 432.178C449.054 432.377 448.337 432.751 447.731 433.271C446.564 434.296 445.778 435.685 445.501 437.213C445.206 438.605 445.418 440.056 446.098 441.306C446.493 441.966 447.03 442.528 447.671 442.953C448.312 443.378 449.04 443.654 449.802 443.761L552.493 462.833V462.799Z" fill="#007BFF"/>
<path d="M7.7095 632.961C6.60943 632.963 5.52461 632.704 4.54484 632.204C2.81159 631.268 1.46228 629.754 0.732078 627.926C-0.0859982 625.985 -0.219557 623.825 0.353319 621.798C0.670068 620.711 1.23235 619.71 1.99694 618.874C2.76152 618.037 3.70806 617.387 4.76368 616.973L12.2965 613.838C12.9867 613.552 13.1382 613.233 13.2308 612.998C13.7526 611.459 11.5475 607.744 9.23291 603.819C8.48383 602.558 7.73474 601.297 6.96883 599.935L6.82571 599.683C3.76206 594.287 -2.61774 583.04 7.88621 573.542C11.7747 570.037 13.7779 568.499 17.3886 565.658L17.498 565.574L20.6037 563.145C23.9704 560.497 26.79 559.303 29.7274 559.278H29.8452C33.3886 559.278 36.9825 561.06 40.8289 564.708C46.0641 569.676 48.3282 569.751 50.6764 568.07C71.8358 553.1 79.8989 561.346 87.0025 568.701L88.3324 570.062C92.7427 574.517 97.4224 578.384 101.749 576.585L109.694 573.282C114.643 571.222 118.851 574.03 120.45 577.871C121.957 581.485 121.292 586.277 116.242 588.403L10.8825 632.288C9.8799 632.72 8.80135 632.949 7.7095 632.961ZM29.8452 560.976H29.7442C27.2192 560.976 24.6943 562.077 21.6474 564.481L18.5333 566.919L18.4323 566.994C14.83 569.793 12.8521 571.34 9.02249 574.803C-0.488303 583.402 5.44543 593.85 8.29025 598.876L8.43332 599.129C9.19081 600.473 9.93986 601.734 10.6637 602.953C13.5338 607.803 15.5958 611.283 14.8215 613.552C14.6636 613.976 14.4133 614.36 14.0887 614.675C13.7641 614.991 13.3733 615.23 12.9446 615.376L5.41172 618.512C4.58725 618.834 3.84801 619.341 3.25111 619.994C2.65421 620.647 2.21566 621.428 1.96935 622.277C1.50586 623.93 1.61864 625.69 2.28919 627.27C2.8573 628.735 3.9282 629.951 5.31073 630.7C6.0802 631.064 6.92107 631.253 7.77258 631.253C8.62409 631.253 9.46501 631.064 10.2345 630.7L115.628 586.823C119.6 585.142 120.13 581.443 118.902 578.485C117.673 575.526 114.264 573.164 110.342 574.795L102.397 578.106C97.153 580.292 91.96 576.081 87.1372 571.214L85.799 569.844C78.5186 562.346 71.6338 555.269 51.6443 569.407C47.6969 572.197 44.1367 570.138 39.6674 565.902C36.1493 562.607 32.9341 560.976 29.8452 560.976Z" fill="#007BFF"/>
<path d="M101.892 476.433L180.166 607.635C181.984 610.479 182.62 613.919 181.94 617.224C181.259 620.529 179.316 623.439 176.522 625.337L160.69 636.088C159.827 636.675 159.175 637.524 158.83 638.509C158.485 639.494 158.465 640.563 158.772 641.561C159.08 642.558 159.7 643.43 160.54 644.05C161.381 644.67 162.398 645.005 163.443 645.006H220.019C225.793 645.008 231.527 644.054 236.987 642.182L272.733 629.96C288 624.74 292.326 606.82 284.087 592.976L244.874 523.21L246.742 522.546C254.964 519.632 262.415 514.889 268.53 508.674C274.644 502.46 279.263 494.937 282.036 486.676C284.808 478.415 285.663 469.632 284.534 460.992C283.404 452.353 280.322 444.083 275.519 436.81L271.588 430.858H121.242C98.0454 430.825 89.5783 456.798 101.892 476.433Z" fill="#007BFF"/>
<path d="M201.073 476.433L279.348 607.635C281.163 610.481 281.796 613.921 281.114 617.225C280.432 620.53 278.489 623.439 275.695 625.337L259.889 636.088C259.026 636.675 258.374 637.524 258.028 638.509C257.683 639.494 257.663 640.563 257.971 641.561C258.279 642.558 258.898 643.43 259.739 644.05C260.579 644.67 261.596 645.005 262.641 645.006H319.226C324.997 645.007 330.728 644.053 336.186 642.182L371.931 629.96C387.199 624.74 391.533 606.82 383.293 592.976L344.072 523.21L345.94 522.546C354.163 519.632 361.613 514.889 367.728 508.674C373.843 502.46 378.461 494.937 381.234 486.676C384.007 478.415 384.861 469.632 383.732 460.992C382.603 452.353 379.52 444.083 374.717 436.81L370.786 430.858H220.432C197.227 430.825 188.768 456.798 201.073 476.433Z" fill="#007BFF"/>
<path d="M125.256 1.81569C193.221 31.8318 394.698 186.998 493.349 255.318C504.653 263.135 506.353 281.492 481.642 281.274L38.3127 277.424C30.0391 277.357 29.0039 269.641 30.8808 261.597C30.8808 261.597 80.4716 38.0939 97.6415 7.20363C100.848 1.10963 115.897 -2.31982 125.256 1.81569Z" fill="#008080"/>
<path d="M86.5401 301.119C92.2887 280.946 109.492 268.96 144.11 264.362C160.943 262.126 181.379 262.269 205.189 262.269C318.401 262.269 420.47 347.804 420.47 418.687C420.47 462.396 367.109 478.03 265.713 431.094C223.563 430.514 193.002 430.707 155.262 430.825C117.993 380.299 77.5764 332.489 86.5401 301.119Z" fill="#D2B48C"/>
<path d="M182.86 328.345H171.75C169.379 328.345 167.106 327.404 165.43 325.73C163.753 324.056 162.812 321.786 162.812 319.418V250.527H188.061L205.248 269.229C209.099 273.418 211.235 278.899 211.232 284.586V299.959C211.236 303.684 210.504 307.372 209.08 310.814C207.656 314.256 205.567 317.385 202.933 320.021C200.298 322.656 197.169 324.748 193.725 326.176C190.281 327.605 186.589 328.342 182.86 328.345Z" fill="#EC8C92"/>
<path d="M197.261 253.469H196.419C195.946 253.469 195.492 253.281 195.157 252.947C194.823 252.612 194.635 252.159 194.635 251.687V230.328C200.291 227.084 198.75 218.132 197.16 214.568C195.476 210.752 192.825 210.424 192.11 212.887C190.62 218.056 185.957 218.897 183.693 218.846C175.605 218.661 175.074 211.659 161.456 211.92C157.569 212.023 153.877 213.643 151.171 216.432C148.465 219.22 146.961 222.957 146.98 226.84V294.496C146.986 296.765 147.892 298.94 149.499 300.545C151.106 302.15 153.284 303.054 155.556 303.061H172.979C178.715 303.061 184.217 300.785 188.274 296.734C192.33 292.683 194.609 287.188 194.609 281.459V280.291C194.602 279.486 194.839 278.698 195.29 278.032C195.741 277.365 196.384 276.852 197.134 276.558C198.699 275.968 200.047 274.916 200.999 273.542C201.95 272.168 202.461 270.538 202.462 268.867V258.621C202.462 257.941 202.327 257.267 202.065 256.64C201.803 256.012 201.42 255.442 200.936 254.963C200.453 254.484 199.879 254.105 199.248 253.849C198.617 253.592 197.942 253.463 197.261 253.469Z" fill="#F2BDBA"/>
<path d="M185.629 249.846H141.467C140.69 249.841 139.944 250.142 139.388 250.683C138.832 251.224 138.511 251.962 138.496 252.737C138.454 254.586 138.454 255.814 138.454 257.52V257.949C138.454 267.035 144.118 274.44 151.079 274.44C156.373 274.44 161.179 270.078 162.938 263.597C162.969 263.464 163.044 263.344 163.151 263.258C163.257 263.171 163.389 263.122 163.527 263.118C163.664 263.123 163.795 263.173 163.902 263.259C164.008 263.346 164.083 263.464 164.116 263.597C165.917 270.078 170.681 274.44 175.975 274.44C182.936 274.44 188.6 267.035 188.6 257.949V252.813C188.598 252.027 188.284 251.273 187.727 250.717C187.171 250.161 186.416 249.848 185.629 249.846ZM186.917 257.949C186.917 266.127 182.018 272.759 175.975 272.759C171.287 272.759 167.289 268.758 165.74 263.152C165.611 262.664 165.324 262.232 164.924 261.924C164.523 261.616 164.032 261.449 163.527 261.449C163.021 261.449 162.53 261.616 162.13 261.924C161.729 262.232 161.442 262.664 161.313 263.152C159.756 268.758 155.767 272.759 151.079 272.759C145.035 272.759 140.137 266.127 140.137 257.949C140.137 256.015 140.137 254.755 140.179 252.779C140.188 252.444 140.327 252.126 140.568 251.892C140.808 251.658 141.131 251.527 141.467 251.527H185.629C185.97 251.527 186.298 251.662 186.539 251.904C186.781 252.145 186.917 252.472 186.917 252.813V257.949Z" fill="#007BFF"/>
<path d="M154.647 260.815H154.521C153.994 260.816 153.472 260.713 152.985 260.513C152.498 260.312 152.056 260.018 151.683 259.646C151.31 259.274 151.014 258.833 150.812 258.347C150.61 257.861 150.506 257.34 150.506 256.814C150.506 256.5 150.631 256.198 150.854 255.976C151.076 255.754 151.378 255.629 151.693 255.629H157.467C157.782 255.629 158.084 255.754 158.306 255.976C158.529 256.198 158.654 256.5 158.654 256.814C158.654 257.339 158.55 257.86 158.349 258.345C158.147 258.831 157.852 259.272 157.48 259.643C157.108 260.015 156.667 260.309 156.18 260.51C155.694 260.712 155.173 260.815 154.647 260.815Z" fill="#007BFF"/>
<path d="M172.869 260.815H172.743C171.68 260.815 170.66 260.394 169.907 259.644C169.155 258.894 168.731 257.876 168.729 256.814C168.729 256.5 168.854 256.198 169.076 255.976C169.299 255.754 169.6 255.629 169.915 255.629H175.697C176.011 255.631 176.31 255.757 176.531 255.979C176.752 256.201 176.876 256.501 176.876 256.814C176.876 257.875 176.454 258.893 175.702 259.643C174.951 260.393 173.932 260.815 172.869 260.815Z" fill="#007BFF"/>
<path d="M174.174 282.232H164.217V280.551H174.174C174.715 280.552 175.247 280.417 175.722 280.159C176.198 279.9 176.6 279.526 176.892 279.072L178.306 279.979C177.862 280.671 177.251 281.24 176.529 281.634C175.806 282.028 174.997 282.234 174.174 282.232Z" fill="#007BFF"/>
<path d="M224.505 402.566L215.954 414.333C215.06 415.565 214.441 416.974 214.138 418.465C213.836 419.955 213.857 421.494 214.201 422.976C214.545 424.458 215.203 425.849 216.131 427.055C217.06 428.261 218.236 429.254 219.582 429.968L229.513 435.238C232.73 436.944 236.459 437.423 240.003 436.587C243.548 435.75 246.667 433.654 248.779 430.69L252.146 425.95L224.505 402.566Z" fill="#EC8C92"/>
<path d="M176.455 402.566L185.006 414.333C185.9 415.565 186.519 416.974 186.822 418.465C187.124 419.955 187.103 421.494 186.759 422.976C186.415 424.458 185.757 425.849 184.829 427.055C183.9 428.261 182.724 429.254 181.378 429.968L171.447 435.238C168.233 436.944 164.509 437.426 160.966 436.594C157.424 435.762 154.305 433.673 152.189 430.716L148.823 425.975L176.455 402.566Z" fill="#EC8C92"/>
<path d="M254.645 357.403C249.317 347.821 245.949 337.277 244.736 326.384C243.524 315.491 244.492 304.466 247.584 293.949L249.2 294.42C246.166 304.728 245.215 315.536 246.403 326.215C247.59 336.893 250.893 347.229 256.118 356.621L254.645 357.403Z" fill="#007BFF"/>
<path d="M124.254 359.445C113.843 337.364 112.059 317.678 118.472 295.563L120.097 296.034C113.801 317.678 115.552 337.002 125.778 358.68L124.254 359.445Z" fill="#007BFF"/>
<path d="M378.277 339.104L197.681 156.872L196.276 155.443L195.931 155.099L195.628 154.813L195.03 154.241C194.228 153.511 193.385 152.826 192.505 152.19C190.853 150.979 189.029 150.021 187.093 149.349C183.458 148.08 179.47 148.273 175.975 149.887C172.156 151.749 168.902 154.592 166.548 158.125L157.652 171.447L122.075 224.738L50.929 331.329L33.1362 357.966L30.9142 361.328L30.3587 362.169L29.9294 362.866C29.6517 363.337 29.3235 363.783 29.0878 364.27C28.0378 366.128 27.2101 368.103 26.6217 370.154C25.446 374.042 25.3212 378.172 26.2598 382.123C27.1954 385.945 29.2251 389.412 32.101 392.101C35.0674 394.819 38.714 396.686 42.6554 397.506C44.7263 397.956 46.8399 398.182 48.9594 398.178H56.9469L72.9973 398.111L201.351 397.573C244.141 397.237 286.923 397.573 329.705 397.707L361.528 397.791C365.793 397.71 369.995 396.754 373.875 394.984C377.623 393.206 380.907 390.585 383.47 387.326C388.68 380.778 390.952 371.659 389.917 362.875C389.409 358.442 388.136 354.131 386.155 350.132C384.151 346.05 381.49 342.325 378.277 339.104ZM389.084 328.269C393.499 332.61 397.175 337.641 399.967 343.164C402.782 348.742 404.607 354.766 405.362 360.967C406.132 367.229 405.747 373.579 404.225 379.703C402.677 385.961 399.845 391.832 395.91 396.942C391.872 402.142 386.688 406.342 380.76 409.214C374.913 411.975 368.557 413.498 362.092 413.686H360.913H357.808H353.801H345.78L329.73 413.745C286.948 413.863 244.166 414.216 201.376 413.871L73.0226 413.341L56.9721 413.274H48.9258C45.6902 413.259 42.4664 412.884 39.314 412.156C32.7466 410.704 26.693 407.51 21.7906 402.91C16.8488 398.202 13.3788 392.164 11.8 385.528C10.2867 379.023 10.5248 372.234 12.4902 365.85C13.4171 362.762 14.6993 359.792 16.3113 356.999C16.6817 356.293 17.153 355.646 17.5402 354.965L18.1714 353.973L18.7353 353.133L20.991 349.771L39.0026 323.302L111.158 217.157L147.224 164.093L156.246 150.829C158.067 148.24 160.192 145.878 162.576 143.793C163.799 142.715 165.099 141.726 166.464 140.835C167.864 139.913 169.339 139.111 170.874 138.439C177.245 135.592 184.454 135.238 191.074 137.447C194.208 138.505 197.167 140.023 199.853 141.953C201.146 142.876 202.385 143.872 203.565 144.936L204.406 145.777L205.248 146.542L206.67 147.954L389.084 328.269Z" fill="white"/>
<path d="M407.037 360.765C406.263 354.369 404.378 348.156 401.465 342.407C398.597 336.721 394.816 331.541 390.271 327.076L207.798 146.786L206.367 145.374L205.526 144.592L204.684 143.751C203.459 142.642 202.169 141.606 200.821 140.65C198.004 138.594 194.891 136.979 191.588 135.859C188.581 134.853 185.433 134.337 182.262 134.329C181.766 134.329 181.269 134.329 180.781 134.371C177.122 134.545 173.528 135.4 170.184 136.892C168.567 137.599 167.012 138.443 165.538 139.414C164.102 140.372 162.735 141.431 161.448 142.583C158.964 144.758 156.748 147.221 154.849 149.921L145.818 163.21L109.745 216.274L37.614 322.377L19.5772 348.913L17.3215 352.225L16.7576 353.066L16.1264 354.057L15.7223 354.705C15.4278 355.167 15.1248 355.654 14.8386 356.184C13.1766 359.084 11.8495 362.164 10.8828 365.363C8.82547 372.029 8.58148 379.122 10.1758 385.914C11.8337 392.863 15.4667 399.185 20.6377 404.121C25.7486 408.951 32.0798 412.302 38.9523 413.812C42.2214 414.562 45.5632 414.952 48.9175 414.972H56.9807L73.0228 415.039L201.376 415.569C213.547 415.67 226.525 415.72 241.044 415.72C259.561 415.72 278.304 415.636 296.467 415.569C307.561 415.519 318.654 415.477 329.747 415.443L345.797 415.384H353.818H357.825H360.922H362.117C368.82 415.179 375.41 413.6 381.475 410.744C387.648 407.766 393.046 403.402 397.248 397.993C401.321 392.692 404.256 386.608 405.867 380.123C407.447 373.797 407.843 367.235 407.037 360.765ZM404.226 379.703C402.677 385.961 399.845 391.832 395.91 396.942C391.872 402.142 386.688 406.342 380.76 409.214C374.913 411.975 368.557 413.498 362.092 413.686H360.914H357.808H353.802H345.781L329.73 413.745C300.171 413.821 270.603 414.022 241.036 414.022C227.816 414.022 214.596 413.972 201.376 413.871L73.0228 413.341L56.9723 413.274H48.926C45.6904 413.259 42.4666 412.884 39.3142 412.156C32.7468 410.704 26.6932 407.51 21.7908 402.91C16.849 398.202 13.3789 392.164 11.8002 385.528C10.2869 379.023 10.525 372.234 12.4904 365.85C13.4172 362.762 14.6995 359.792 16.3115 356.999C16.6818 356.293 17.1532 355.646 17.5404 354.965L18.1716 353.973L18.7355 353.133L20.9912 349.771L39.0028 323.302L111.159 217.157L147.224 164.093L156.246 150.829C158.067 148.24 160.192 145.878 162.576 143.793C163.799 142.715 165.099 141.727 166.464 140.835C167.864 139.913 169.339 139.112 170.875 138.439C174.029 137.026 177.42 136.217 180.874 136.052C181.336 136.052 181.799 136.01 182.262 136.01C185.249 136.022 188.215 136.507 191.049 137.447C194.183 138.505 197.142 140.023 199.828 141.953C201.121 142.876 202.36 143.872 203.539 144.936L204.381 145.777L205.223 146.542L206.645 147.954L389.118 328.286C393.533 332.627 397.208 337.658 400 343.181C402.815 348.759 404.641 354.782 405.395 360.984C406.153 367.242 405.756 373.587 404.226 379.703Z" fill="#008080"/>
<path d="M386.172 350.04C384.159 345.993 381.498 342.303 378.294 339.112L197.682 156.872L196.276 155.443L195.931 155.099L195.628 154.813L195.03 154.241C194.228 153.511 193.385 152.826 192.505 152.19C190.854 150.979 189.029 150.021 187.094 149.349C185.513 148.8 183.852 148.516 182.178 148.509C180.037 148.515 177.922 148.979 175.975 149.871C172.156 151.732 168.903 154.575 166.549 158.108L157.652 171.431L122.075 224.722L50.9293 331.329L33.1365 357.966L30.9145 361.328L30.359 362.169L29.9298 362.866C29.652 363.337 29.3238 363.783 29.0881 364.27C28.0381 366.128 27.2104 368.103 26.622 370.154C25.4463 374.042 25.3215 378.172 26.2601 382.123C27.1957 385.945 29.2254 389.412 32.1013 392.101C35.0677 394.819 38.7143 396.686 42.6557 397.505C44.7209 397.956 46.829 398.182 48.943 398.178V396.497C46.9622 396.498 44.987 396.286 43.0513 395.866C39.4052 395.113 36.0314 393.388 33.288 390.874C30.6475 388.409 28.7867 385.227 27.935 381.72C27.0564 378.057 27.1727 374.227 28.2717 370.625C28.8234 368.71 29.6004 366.868 30.5863 365.136V365.085V365.035C30.7133 364.782 30.8567 364.538 31.0155 364.304C31.125 364.127 31.2428 363.942 31.3522 363.749L31.7478 363.11L32.2948 362.27L34.5168 358.907L52.3012 332.27L123.447 225.697L159.032 172.406L167.92 159.083C170.096 155.81 173.106 153.175 176.64 151.451C178.368 150.651 180.249 150.235 182.153 150.232C183.64 150.234 185.116 150.484 186.521 150.972C188.299 151.585 189.973 152.463 191.487 153.577C192.316 154.171 193.109 154.814 193.861 155.502L194.433 156.057L194.727 156.326L195.056 156.654L196.461 158.074L377.082 340.289C380.165 343.349 382.723 346.892 384.657 350.779C386.564 354.6 387.786 358.725 388.268 362.967C389.261 371.465 386.989 380.14 382.174 386.192C379.769 389.248 376.686 391.705 373.168 393.37C369.511 395.048 365.544 395.95 361.52 396.018L329.73 395.934C318.637 395.9 307.547 395.858 296.459 395.808C278.296 395.732 259.51 395.656 241.027 395.656C226.509 395.656 213.53 395.707 201.36 395.799L73.0061 396.337L56.964 396.404H48.9682V398.085H56.9556L73.0061 398.018L201.36 397.48C214.585 397.379 227.805 397.332 241.019 397.337C270.587 397.337 300.154 397.531 329.713 397.615L361.537 397.699C365.801 397.617 370.004 396.662 373.884 394.891C377.631 393.113 380.915 390.492 383.479 387.234C388.689 380.686 390.961 371.566 389.926 362.782C389.42 358.35 388.15 354.039 386.172 350.04Z" fill="#008080"/>
<path d="M118.422 430.892C120.669 435.095 128.842 435.935 134.565 431.682C137.932 436.398 147.754 436.398 152.669 430.892C159.95 437.835 177.078 430.194 181.698 414.14C171.077 414.14 171.8 397.631 182.447 397.245C179.148 382.115 165.48 368.59 142.696 371.549C129.54 373.23 113.642 376.332 106.849 386.906C100.31 397.094 101.025 406.827 101.067 414.14C101.151 430.11 110.107 436.373 118.422 430.892Z" fill="#F2BDBA"/>
<path d="M184.307 143.247C184.307 140.473 185.873 138.431 187.741 136.993C188.937 136.069 188.238 134.9 186.731 134.9H180.293C174.401 134.9 171.624 137.851 171.624 143.524C171.624 149.198 174.367 152.14 180.293 152.14H184.871C186.689 152.14 188.339 150.635 188.154 149.77C186.016 148.711 184.341 146.693 184.307 143.247Z" fill="#007BFF"/>
<path d="M282.538 430.892C280.291 435.095 271.866 435.935 266.143 431.682C263.719 436.398 253.206 436.398 248.291 430.892C240.884 437.953 223.883 429.715 218.993 413.241C213.227 393.908 227.359 367.506 258.265 371.516C275.098 373.693 296.139 378.24 297.596 397.396C288.876 397.455 286.25 414.106 299.893 414.106C301.678 430.052 290.887 436.373 282.538 430.892Z" fill="#F2BDBA"/>
<path d="M272.518 419.269L271.309 420.439L279.235 428.605L280.444 427.434L272.518 419.269Z" fill="#007BFF"/>
<path d="M256.013 420.1L254.805 421.271L262.227 428.917L263.436 427.747L256.013 420.1Z" fill="#007BFF"/>
<path d="M238.092 419.135L236.884 420.306L245.011 428.675L246.219 427.505L238.092 419.135Z" fill="#007BFF"/>
<path d="M112.895 419.318L111.429 420.145L116.19 428.561L117.655 427.734L112.895 419.318Z" fill="#007BFF"/>
<path d="M128.724 419.416L127.258 420.242L131.586 427.898L133.052 427.072L128.724 419.416Z" fill="#007BFF"/>
<path d="M147.149 419.415L145.684 420.241L150.281 428.373L151.747 427.547L147.149 419.415Z" fill="#007BFF"/>
<path d="M196.657 172.776L195.172 173.568L244.373 265.554L245.858 264.762L196.657 172.776Z" fill="white"/>
<path d="M143.664 73.7013L142.179 74.4934L169.276 125.154L170.761 124.361L143.664 73.7013Z" fill="white"/>
<path d="M111.083 12.8036L109.599 13.5957L127.868 47.7522L129.353 46.9601L111.083 12.8036Z" fill="white"/>
<path d="M195.611 232.161C201.191 226.092 198.725 218.132 197.109 214.568C195.426 210.752 192.775 210.424 192.059 212.887C190.569 218.056 185.907 218.897 183.643 218.846C175.554 218.661 175.024 211.659 161.406 211.92C157.529 212.055 153.856 213.684 151.156 216.466C148.457 219.248 146.942 222.966 146.929 226.84C146.929 239.599 159.125 224.907 169.368 232.034C183.643 241.928 191.79 236.321 195.611 232.161Z" fill="#007BFF"/>
<path d="M252.71 615.133H195.435V616.814H252.71V615.133Z" fill="white"/>
<path d="M359.348 615.133H291.973V616.814H359.348V615.133Z" fill="#007BFF"/>
<path d="M321.485 481.327L320.017 482.15L337.967 514.095L339.435 513.272L321.485 481.327Z" fill="#007BFF"/>
</g>
<defs>
<clipPath id="clip0_8_881">
<rect width="565" height="753" fill="white"/>
</clipPath>
</defs>
</svg>
