<svg width="319" height="49" viewBox="0 0 319 49" fill="none" xmlns="http://www.w3.org/2000/svg">
<path d="M30.936 40.064H14.168L11.48 48H0.024L16.28 3.072H28.952L45.208 48H33.624L30.936 40.064ZM28.12 31.616L22.552 15.168L17.048 31.616H28.12ZM61.0995 17.344C62.1235 15.68 63.5955 14.336 65.5155 13.312C67.4355 12.288 69.6328 11.776 72.1075 11.776C75.0515 11.776 77.7182 12.5227 80.1075 14.016C82.4968 15.5093 84.3742 17.6427 85.7395 20.416C87.1475 23.1893 87.8515 26.4107 87.8515 30.08C87.8515 33.7493 87.1475 36.992 85.7395 39.808C84.3742 42.5813 82.4968 44.736 80.1075 46.272C77.7182 47.7653 75.0515 48.512 72.1075 48.512C69.5902 48.512 67.3928 48.0213 65.5155 47.04C63.6382 46.016 62.1662 44.672 61.0995 43.008V48H50.1555V0.639999H61.0995V17.344ZM76.7155 30.08C76.7155 27.3493 75.9475 25.216 74.4115 23.68C72.9182 22.1013 71.0622 21.312 68.8435 21.312C66.6675 21.312 64.8115 22.1013 63.2755 23.68C61.7822 25.2587 61.0355 27.4133 61.0355 30.144C61.0355 32.8747 61.7822 35.0293 63.2755 36.608C64.8115 38.1867 66.6675 38.976 68.8435 38.976C71.0195 38.976 72.8755 38.1867 74.4115 36.608C75.9475 34.9867 76.7155 32.8107 76.7155 30.08ZM109.849 48.512C106.35 48.512 103.193 47.7653 100.377 46.272C97.6037 44.7787 95.4063 42.6453 93.785 39.872C92.2063 37.0987 91.417 33.856 91.417 30.144C91.417 26.4747 92.2277 23.2533 93.849 20.48C95.4703 17.664 97.689 15.5093 100.505 14.016C103.321 12.5227 106.478 11.776 109.977 11.776C113.476 11.776 116.633 12.5227 119.449 14.016C122.265 15.5093 124.484 17.664 126.105 20.48C127.726 23.2533 128.537 26.4747 128.537 30.144C128.537 33.8133 127.705 37.056 126.041 39.872C124.42 42.6453 122.18 44.7787 119.321 46.272C116.505 47.7653 113.348 48.512 109.849 48.512ZM109.849 39.04C111.94 39.04 113.71 38.272 115.161 36.736C116.654 35.2 117.401 33.0027 117.401 30.144C117.401 27.2853 116.676 25.088 115.225 23.552C113.817 22.016 112.068 21.248 109.977 21.248C107.844 21.248 106.073 22.016 104.665 23.552C103.257 25.0453 102.553 27.2427 102.553 30.144C102.553 33.0027 103.236 35.2 104.601 36.736C106.009 38.272 107.758 39.04 109.849 39.04ZM169.607 12.288V48H158.663V43.136C157.554 44.7147 156.039 45.9947 154.119 46.976C152.242 47.9147 150.151 48.384 147.847 48.384C145.116 48.384 142.706 47.7867 140.615 46.592C138.524 45.3547 136.903 43.584 135.751 41.28C134.599 38.976 134.023 36.2667 134.023 33.152V12.288H144.903V31.68C144.903 34.0693 145.522 35.9253 146.759 37.248C147.996 38.5707 149.66 39.232 151.751 39.232C153.884 39.232 155.57 38.5707 156.807 37.248C158.044 35.9253 158.663 34.0693 158.663 31.68V12.288H169.607ZM197.372 38.72V48H191.804C187.836 48 184.743 47.04 182.524 45.12C180.305 43.1573 179.196 39.9787 179.196 35.584V21.376H174.844V12.288H179.196V3.584H190.14V12.288H197.308V21.376H190.14V35.712C190.14 36.7787 190.396 37.5467 190.908 38.016C191.42 38.4853 192.273 38.72 193.468 38.72H197.372Z" fill="#007BFF"/>
<path d="M262.599 11.904C267.036 11.904 270.556 13.248 273.159 15.936C275.804 18.624 277.127 22.3573 277.127 27.136V48H266.247V28.608C266.247 26.304 265.628 24.5333 264.391 23.296C263.196 22.016 261.532 21.376 259.399 21.376C257.265 21.376 255.58 22.016 254.343 23.296C253.148 24.5333 252.551 26.304 252.551 28.608V48H241.671V28.608C241.671 26.304 241.052 24.5333 239.815 23.296C238.62 22.016 236.956 21.376 234.823 21.376C232.689 21.376 231.004 22.016 229.767 23.296C228.572 24.5333 227.975 26.304 227.975 28.608V48H217.031V12.288H227.975V16.768C229.084 15.2747 230.535 14.1013 232.327 13.248C234.119 12.352 236.145 11.904 238.407 11.904C241.095 11.904 243.484 12.48 245.575 13.632C247.708 14.784 249.372 16.4267 250.567 18.56C251.804 16.5973 253.489 14.9973 255.623 13.76C257.756 12.5227 260.081 11.904 262.599 11.904ZM318.444 29.568C318.444 30.592 318.381 31.6587 318.253 32.768H293.485C293.655 34.9867 294.359 36.6933 295.597 37.888C296.877 39.04 298.434 39.616 300.269 39.616C302.999 39.616 304.898 38.464 305.965 36.16H317.613C317.015 38.5067 315.927 40.6187 314.349 42.496C312.813 44.3733 310.871 45.8453 308.525 46.912C306.178 47.9787 303.554 48.512 300.653 48.512C297.154 48.512 294.039 47.7653 291.309 46.272C288.578 44.7787 286.445 42.6453 284.909 39.872C283.373 37.0987 282.605 33.856 282.605 30.144C282.605 26.432 283.351 23.1893 284.845 20.416C286.381 17.6427 288.514 15.5093 291.245 14.016C293.975 12.5227 297.111 11.776 300.653 11.776C304.109 11.776 307.181 12.5013 309.869 13.952C312.557 15.4027 314.647 17.472 316.141 20.16C317.677 22.848 318.444 25.984 318.444 29.568ZM307.245 26.688C307.245 24.8107 306.605 23.3173 305.325 22.208C304.045 21.0987 302.445 20.544 300.525 20.544C298.69 20.544 297.133 21.0773 295.853 22.144C294.615 23.2107 293.847 24.7253 293.549 26.688H307.245Z" fill="#8C8C8C"/>
</svg>
