<svg width="43" height="40" viewBox="0 0 43 40" fill="none" xmlns="http://www.w3.org/2000/svg">
<path fill-rule="evenodd" clip-rule="evenodd" d="M42.5355 22.5371C42.6716 28.3626 39.3609 35.3677 35.3811 38.012C33.8801 39.0093 31.8311 38.6441 30.8047 37.1963C29.7782 35.7485 30.163 33.7663 31.664 32.7689C32.4885 32.2212 33.6052 30.7607 34.4772 28.9155C35.4532 26.8504 35.9966 24.6095 35.952 22.7027C35.9077 20.8068 35.31 19.4161 34.1705 18.5234C33.6608 18.124 33.0197 17.7964 32.239 17.5532C31.0667 21.7944 28.601 25.8044 25.8051 27.6621C24.304 28.6594 22.2551 28.2942 21.2287 26.8464C21.2287 26.8464 20.587 23.4164 22.088 22.419C22.9125 21.8713 24.0291 20.4108 24.9012 18.5656C25.1057 18.1329 25.2912 17.6926 25.4562 17.2492C21.9684 17.6758 19.6253 18.7374 18.2743 20.2245C17.1181 21.4971 16.6415 23.1732 16.8466 25.1167C17.0475 27.0208 17.9047 29.0106 19.1513 30.5341C20.2604 31.8896 21.482 32.6386 22.3664 32.6895C24.1813 32.794 25.5599 34.3014 25.4456 36.0564C25.3313 37.8114 23.7674 39.1494 21.9526 39.0449C16.9409 38.7563 12.4123 34.0175 10.8202 28.4619C5.67737 27.2181 1.35532 21.4611 0.719382 15.4344C0.337244 11.8128 1.31666 8.36868 3.75708 5.68239C6.41176 2.76025 10.5534 0.987978 16.0161 0.482255C21.4969 -0.0251291 25.775 0.890073 28.751 3.22166C31.2467 5.1769 32.5962 7.94173 32.8982 11.1371C35.0251 11.5939 36.8389 12.4056 38.327 13.5716C41.0923 15.738 42.4504 18.8984 42.5355 22.5371ZM26.1869 10.7823C25.9242 9.66713 25.3921 8.79832 24.5945 8.17345C23.1131 7.01282 20.5228 6.45868 16.6216 6.81984C12.7218 7.18086 10.1429 8.28445 8.6983 9.87455C7.5421 11.1472 7.06547 12.8233 7.27055 14.7668C7.47146 16.6709 8.32866 18.6607 9.57529 20.1842C9.90224 20.5838 10.239 20.9307 10.5739 21.2225C11.0367 19.3195 11.9504 17.5543 13.3331 16.0323C15.9878 13.1101 20.1294 11.3379 25.5922 10.8322C25.792 10.8137 25.9903 10.797 26.1869 10.7823Z" fill="#8C8C8C"/>
</svg>
