<svg width="514" height="514" viewBox="0 0 514 514" fill="none" xmlns="http://www.w3.org/2000/svg">
<path d="M149.686 414.091C148.377 414.284 146.837 414.386 146.525 415.945C146.284 417.153 146.375 418.396 147.099 419.444C148.336 421.234 150.174 422.279 152.388 421.91C154.367 421.581 157.086 419.787 157.086 417.559C157.086 416.303 156.181 415.039 155.433 414.099C154.631 413.092 153.938 412.032 152.928 411.208C151.566 410.097 150.465 409.988 149.24 411.298C148.57 412.015 147.936 412.993 147.643 413.932C147.498 414.395 147.605 414.766 147.605 415.23C147.605 415.848 147.49 414.936 147.605 414.63" stroke="#007BFF" stroke-opacity="0.5" stroke-linecap="round" stroke-linejoin="round"/>
<path d="M156.469 417.63C157.583 418.619 158.527 419.513 160.497 419.561C161.876 419.595 163.254 419.251 164.546 418.88C165.472 418.615 168.438 417.21 166.034 417.097" stroke="#007BFF" stroke-opacity="0.5" stroke-linecap="round" stroke-linejoin="round"/>
<path d="M167.955 409.003C166.485 410.626 164.457 413.807 165.219 416.245C165.487 417.102 165.876 417.679 166.379 418.412C167.393 419.886 168.963 419.426 170.388 419.041C171.42 418.762 172.647 417.883 173.043 416.883C173.588 415.503 172.451 413.345 171.501 412.395C170.44 411.334 169.6 410.043 168.418 409.114C168.103 408.867 167.864 408.599 167.454 408.69C166.993 408.793 166.803 409.234 167.416 409.234" stroke="#007BFF" stroke-opacity="0.5" stroke-linecap="round" stroke-linejoin="round"/>
<path d="M271.866 186.582C270.557 186.776 269.017 186.878 268.706 188.437C268.464 189.645 268.556 190.888 269.28 191.936C270.517 193.726 272.355 194.771 274.568 194.402C276.548 194.072 279.266 192.279 279.266 190.051C279.266 188.795 278.362 187.531 277.613 186.591C276.811 185.583 276.118 184.524 275.108 183.7C273.746 182.589 272.646 182.48 271.421 183.79C270.751 184.507 270.117 185.485 269.823 186.424C269.679 186.887 269.785 187.258 269.785 187.722C269.785 188.34 269.67 187.428 269.785 187.122" stroke="#007BFF" stroke-opacity="0.5" stroke-linecap="round" stroke-linejoin="round"/>
<path d="M278.65 190.122C279.764 191.111 280.708 192.005 282.677 192.053C284.056 192.087 285.435 191.743 286.727 191.372C287.652 191.107 290.618 189.702 288.215 189.589" stroke="#007BFF" stroke-opacity="0.5" stroke-linecap="round" stroke-linejoin="round"/>
<path d="M290.135 181.495C288.666 183.118 286.637 186.299 287.399 188.737C287.667 189.594 288.056 190.171 288.559 190.903C289.573 192.377 291.143 191.918 292.568 191.533C293.601 191.254 294.828 190.375 295.223 189.375C295.769 187.994 294.631 185.837 293.681 184.887C292.62 183.826 291.78 182.535 290.598 181.606C290.283 181.359 290.045 181.091 289.634 181.182C289.173 181.285 288.983 181.726 289.596 181.726" stroke="#007BFF" stroke-opacity="0.5" stroke-linecap="round" stroke-linejoin="round"/>
<path d="M159.125 139.395C166.672 135.8 172.772 129.855 178.907 124.249C183.728 119.843 188.784 115.49 194.105 111.688C195.155 110.937 196.638 109.428 198.057 110.071C199.464 110.709 200.274 112.445 201.386 113.473C204.123 116.005 206.585 119.099 208.835 122.074C211.313 125.349 207.598 127.162 205.301 129.306C202.692 131.742 200.2 134.254 197.351 136.403C194.642 138.446 192.466 141.262 189.986 143.575C186.207 147.1 182.672 150.853 178.904 154.381C176.661 156.481 174.087 158.196 171.927 160.371C171.17 161.133 170.47 162.141 169.597 162.775C168.896 163.285 167.926 161.325 167.676 160.956C165.695 158.026 162.626 156.021 160.686 152.957C159.467 151.03 158.646 148.652 157.186 146.892C156.489 146.052 154.747 144.161 155.51 142.934C156.29 141.681 158.503 141.081 159.71 140.184C160.651 139.484 161.795 138.621 162.866 138.134C163.644 137.781 164.408 137.154 165.104 136.672C166.936 135.402 164.995 135.945 163.756 136.417" stroke="#007BFF" stroke-opacity="0.5" stroke-linecap="round" stroke-linejoin="round"/>
<path d="M160.278 145.148C164.872 147.992 168.993 152.108 172.58 156.167C172.67 156.27 173.543 156.878 173.41 157.103C173.153 157.538 170.171 155.575 169.887 155.379" stroke="#007BFF" stroke-opacity="0.5" stroke-linecap="round" stroke-linejoin="round"/>
<path d="M164.832 141.036C168.557 142.102 170.777 144.132 173.784 146.303C175.124 147.27 176.488 148.143 177.69 149.281C178.255 149.815 178.657 150.518 179.179 151.094C179.894 151.883 176.974 150.178 176.63 149.981" stroke="#007BFF" stroke-opacity="0.5" stroke-linecap="round" stroke-linejoin="round"/>
<path d="M170.244 137.848C172.851 140.201 175.471 142.521 178.159 144.778C179.18 145.636 180.34 146.423 181.222 147.434C182.788 149.227 180.737 146.9 180.041 146.243" stroke="#007BFF" stroke-opacity="0.5" stroke-linecap="round" stroke-linejoin="round"/>
<path d="M173.896 135.606C175.83 136.781 177.849 137.92 179.486 139.505C180.158 140.156 180.715 140.922 181.433 141.524C182.317 142.266 183.092 143.132 183.982 143.853C185.25 144.88 185.441 145.18 183.935 143.891" stroke="#007BFF" stroke-opacity="0.5" stroke-linecap="round" stroke-linejoin="round"/>
<path d="M178.604 132.154C180.737 133.824 182.712 135.519 184.495 137.555C185.285 138.457 185.922 139.498 186.924 140.19C187.843 140.824 188.486 141.007 187.411 139.977" stroke="#007BFF" stroke-opacity="0.5" stroke-linecap="round" stroke-linejoin="round"/>
<path d="M183.137 128.637C185.015 130.048 186.866 131.336 188.367 133.154C189.053 133.986 189.595 134.942 190.362 135.709C191.92 137.268 190.849 136.482 189.722 135.424" stroke="#007BFF" stroke-opacity="0.5" stroke-linecap="round" stroke-linejoin="round"/>
<path d="M187.317 124.987C189.954 127.509 192.162 130.463 194.803 132.954C196.582 134.632 194.034 131.944 193.617 131.466" stroke="#007BFF" stroke-opacity="0.5" stroke-linecap="round" stroke-linejoin="round"/>
<path d="M192.421 122.085C194.641 121.179 196.943 120.099 198.135 117.884C198.464 117.274 198.888 116.742 199.023 116.054C199.209 115.109 199.172 115.515 198.472 116.126" stroke="#007BFF" stroke-opacity="0.5" stroke-linecap="round" stroke-linejoin="round"/>
<path d="M195.994 125.133C197.754 123.5 199.721 121.716 201.01 119.644C201.653 118.61 202.878 117.348 201.165 118.843" stroke="#007BFF" stroke-opacity="0.5" stroke-linecap="round" stroke-linejoin="round"/>
<path d="M201.635 128.555C203.238 126.813 204.665 125.192 206.141 123.371C206.617 122.782 208.07 122.018 206.322 122.485" stroke="#007BFF" stroke-opacity="0.5" stroke-linecap="round" stroke-linejoin="round"/>
<path d="M200.36 127.674C202.038 126.236 203.935 124.562 205.265 122.747C205.62 122.262 205.893 121.723 206.218 121.219C206.762 120.376 206.796 120.661 205.971 120.748" stroke="#007BFF" stroke-opacity="0.5" stroke-linecap="round" stroke-linejoin="round"/>
<path d="M164.808 148.053C173.168 144.657 175.231 135.44 182.043 130.228C182.872 129.594 183.545 128.889 184.512 128.45C185.158 128.157 185.956 128.016 186.544 127.641C186.903 127.411 189.882 125.135 187.812 126.076" stroke="#007BFF" stroke-opacity="0.5" stroke-linecap="round" stroke-linejoin="round"/>
<path d="M160.915 145.588C161.854 144.447 162.687 143.471 163.877 142.646C164.072 142.51 164.373 142.488 164.534 142.307C164.852 141.949 165.334 141.425 165.456 140.964C165.939 139.145 168.297 139.481 169.55 138.569C170.741 137.702 171.888 136.823 173.103 135.966C174.441 135.022 175.06 134.194 176.135 132.984C177.122 131.872 178.081 130.748 179.126 129.696C179.981 128.835 181.324 128.052 181.868 126.95C182.482 125.707 184.052 124.284 185.465 124.514C185.95 124.594 189.515 126.66 187.185 125.339" stroke="#007BFF" stroke-opacity="0.5" stroke-linecap="round" stroke-linejoin="round"/>
<path d="M168.48 150.033C174.763 146.72 178.249 139.495 182.492 134.037C184.055 132.027 186.288 130.691 187.924 128.716C188.624 127.871 190.169 126.974 188.372 126.989" stroke="#007BFF" stroke-opacity="0.5" stroke-linecap="round" stroke-linejoin="round"/>
<path d="M170.723 152.08C176.416 148.58 180.06 142.069 184.202 136.91C186.086 134.562 187.905 132.166 189.812 129.837C190.682 128.776 192.198 128.113 190.252 129.2" stroke="#007BFF" stroke-opacity="0.5" stroke-linecap="round" stroke-linejoin="round"/>
<path d="M172.966 155.732C176.518 152.268 179.386 148.53 182.292 144.523C184.059 142.087 185.587 139.348 187.662 137.155C188.853 135.896 189.769 134.422 190.85 133.088C191.286 132.55 191.586 131.924 192.034 131.391C193.042 130.19 192.339 131.276 191.637 131.928" stroke="#007BFF" stroke-opacity="0.5" stroke-linecap="round" stroke-linejoin="round"/>
<path d="M173.801 157.25C175.569 155.518 178.159 153.852 179.338 151.605C179.766 150.79 180.825 148.821 181.568 148.322C182.551 147.662 183.019 146.259 183.733 145.377C184.478 144.458 185.207 143.561 186.015 142.687C186.772 141.867 187.015 140.428 187.952 139.723C188.997 138.937 189.505 137.72 190.339 136.782C191.06 135.97 192.433 135.129 193.328 134.508C193.824 134.165 194.17 133.696 194.732 133.441C195.872 132.923 195.132 133.188 194.089 133.149" stroke="#007BFF" stroke-opacity="0.5" stroke-linecap="round" stroke-linejoin="round"/>
<path d="M192.278 122.734C193.74 123.119 195.543 123.384 196.876 124.181C197.736 124.695 198.485 125.211 196.919 124.275" stroke="#007BFF" stroke-opacity="0.5" stroke-linecap="round" stroke-linejoin="round"/>
<path d="M193.796 120.293C195.882 120.838 197.357 121.449 199.057 122.558C200.17 123.283 199.991 123.082 198.833 122.384" stroke="#007BFF" stroke-opacity="0.5" stroke-linecap="round" stroke-linejoin="round"/>
<path d="M196.327 117.83C198.118 118.837 199.856 119.982 201.708 120.859C202.797 121.375 202.226 121.339 201.385 120.933" stroke="#007BFF" stroke-opacity="0.5" stroke-linecap="round" stroke-linejoin="round"/>
<path d="M197.768 115.862C199.651 116.719 201.388 117.573 203.122 118.652C203.913 119.144 203.195 119.176 202.595 118.778" stroke="#007BFF" stroke-opacity="0.5" stroke-linecap="round" stroke-linejoin="round"/>
<path d="M193.202 121.876C194.625 120.184 196.052 118.581 197.348 116.847C197.716 116.355 199.958 113.612 198.989 115.015" stroke="#007BFF" stroke-opacity="0.5" stroke-linecap="round" stroke-linejoin="round"/>
<path d="M194.697 124.846C196.548 123.209 199.216 121.027 199.814 118.581C199.99 117.862 200.371 117.143 200.93 116.647C201.497 116.145 202.09 115.919 201.243 116.765" stroke="#007BFF" stroke-opacity="0.5" stroke-linecap="round" stroke-linejoin="round"/>
<path d="M193.212 124.791C195.186 122.664 196.874 121.235 197.989 118.616C198.279 117.935 198.611 117.372 199.086 116.836C199.59 116.269 200.313 115.738 199.34 116.753" stroke="#007BFF" stroke-opacity="0.5" stroke-linecap="round" stroke-linejoin="round"/>
<path d="M200.547 125.838C201.456 126.414 202.368 126.948 203.313 127.428C203.703 127.626 203.22 127.243 203.054 127.18" stroke="#007BFF" stroke-opacity="0.5" stroke-linecap="round" stroke-linejoin="round"/>
<path d="M202.319 122.99C202.38 123.042 205.954 126.105 205.32 125.422" stroke="#007BFF" stroke-opacity="0.5" stroke-linecap="round" stroke-linejoin="round"/>
<path d="M204.442 121.88C205.23 122.638 207.645 124.857 206.795 124.168" stroke="#007BFF" stroke-opacity="0.5" stroke-linecap="round" stroke-linejoin="round"/>
<path d="M199.491 127.047C200.798 125.831 203.663 123.42 204.365 121.55C204.642 120.813 205.909 119.866 204.717 120.879" stroke="#007BFF" stroke-opacity="0.5" stroke-linecap="round" stroke-linejoin="round"/>
<path d="M199.656 127.41C199.78 127.51 202.279 130.201 202.812 128.896C203.084 128.23 203.438 127.362 204.105 126.995C205.276 126.351 205.492 124.322 206.69 123.778C208.05 123.16 207.923 122.125 206.657 121.758C206.159 121.613 206.552 120.633 206.035 120.71C205.562 120.781 205.312 120.606 204.783 120.703" stroke="#007BFF" stroke-opacity="0.5" stroke-linecap="round" stroke-linejoin="round"/>
<path d="M192.113 122.371C192.97 124.009 193.132 124.602 194.515 125.285C194.888 125.47 195.376 125.214 195.659 125.358C196.219 125.642 197.327 125.648 197.746 125.132C198.587 124.093 198.897 123.423 200.185 122.791C200.999 122.393 201.653 121.452 202.029 120.673C202.442 119.816 203.187 119.171 203.624 118.311C203.81 117.945 202.309 117.002 202.295 116.368C202.292 116.188 200.51 116.183 200.213 116.033C199.854 115.85 199.689 115.593 199.517 115.214C199.265 114.659 198.819 115.348 198.142 115.4" stroke="#007BFF" stroke-opacity="0.5" stroke-linecap="round" stroke-linejoin="round"/>
<path d="M162.434 143.147C164.458 143.916 166.224 144.908 168.046 146.006C169.629 146.96 171.417 147.467 172.989 148.391C174.108 149.049 175.27 150.551 176.096 151.537C176.371 151.866 176.577 152.173 176.772 152.544C177.22 153.394 176.754 151.339 176.707 151.114" stroke="#007BFF" stroke-opacity="0.5" stroke-linecap="round" stroke-linejoin="round"/>
<path d="M181.982 127.701C182.544 128.291 184.817 131.545 184.368 129.099" stroke="#007BFF" stroke-opacity="0.5" stroke-linecap="round" stroke-linejoin="round"/>
<path d="M186.661 353.572C186.902 354.811 187.514 355.616 187.989 356.744C188.312 357.511 188.916 358.106 189.253 358.859C189.616 359.672 190.161 360.628 190.667 361.352C191.102 361.972 191.386 362.56 191.935 363.109C192.903 364.077 193.636 365.232 194.61 366.187C196.025 367.575 198.421 369.386 200.482 369.272C201.144 369.235 201.877 369.44 202.527 369.342C203.084 369.258 203.761 369.23 204.319 369.326C205.236 369.485 206.232 369.325 207.109 369.515C207.583 369.618 208.099 369.468 208.578 369.557C209.2 369.672 209.929 369.701 210.562 369.701C212.636 369.701 214.705 369.688 216.774 369.426C217.895 369.283 219.005 369.655 220.115 369.458C221.156 369.272 222.543 369.464 223.523 369.035C224.727 368.508 225.924 367.68 226.854 366.75C227.321 366.284 227.674 365.727 227.99 365.15C228.405 364.393 228.636 363.576 229.053 362.821C230.506 360.186 231.335 357.253 232.512 354.507C232.789 353.859 233.245 353.335 233.578 352.737C233.662 352.586 233.7 352.393 233.837 352.247C234.35 351.704 233.367 351.646 232.915 351.441" stroke="#007BFF" stroke-opacity="0.5" stroke-linecap="round" stroke-linejoin="round"/>
<path d="M186.43 353.687C187.46 352.341 188.333 351.351 189.829 350.59C191.081 349.952 192.38 349.195 193.512 348.362C195.251 347.084 197.645 346.514 199.762 346.129C202.067 345.71 204.335 345.22 206.681 345.22C207.406 345.22 208.124 345.438 208.85 345.45C209.719 345.465 210.59 345.492 211.455 345.566C212.783 345.679 214.145 345.652 215.474 345.681C217.329 345.721 219.105 346.681 220.959 346.83C222.063 346.918 223.349 347.083 224.422 347.383C224.824 347.496 225.282 347.572 225.657 347.754C226.124 347.981 226.451 348.365 226.88 348.631C228.263 349.492 229.81 349.897 231.305 350.551C231.764 350.752 232.552 351.095 233.059 351.095C233.758 351.095 233.721 352.385 233.721 351.095" stroke="#007BFF" stroke-opacity="0.5" stroke-linecap="round" stroke-linejoin="round"/>
<path d="M233.606 351.902C232.752 353.047 232.143 353.483 230.931 354.151C229.979 354.676 228.925 355.048 227.859 355.243C226.863 355.425 225.776 355.568 224.767 355.649C223.928 355.716 223.071 355.619 222.214 355.716C220.274 355.937 218.318 356.437 216.447 356.984C213.777 357.764 211.198 357.845 208.44 357.995C205.43 358.158 202.411 357.928 199.461 357.316C198.466 357.11 197.414 357.295 196.402 357.256C195.286 357.212 194.193 356.905 193.144 356.542C192.702 356.389 192.295 356.155 191.832 356.049C191.29 355.926 190.738 355.974 190.2 355.844C189.45 355.663 188.574 355.336 187.941 354.897C187.665 354.706 187.251 354.549 187.035 354.26C186.972 354.176 186.891 353.989 186.891 353.889C186.891 353.651 186.696 353.711 187.006 353.918" stroke="#007BFF" stroke-opacity="0.5" stroke-linecap="round" stroke-linejoin="round"/>
<path d="M208.838 363.595C209.539 363.517 210.465 363.53 210.175 362.629C210.082 362.339 209.848 362.308 209.599 362.225C208.858 361.978 207.532 362.457 207.253 363.23C206.754 364.618 207.7 366.118 209.186 365.637C209.591 365.506 210.308 365.22 210.566 364.853C210.874 364.412 210.411 364.542 210.105 364.113" stroke="#007BFF" stroke-opacity="0.5" stroke-linecap="round" stroke-linejoin="round"/>
<path d="M206.706 362.097C207.824 361.649 208.395 361.464 209.526 361.464C209.981 361.464 210.209 361.432 210.61 361.694C211.274 362.128 211.502 362.952 211.433 363.678C211.374 364.291 211.172 365.131 210.956 365.713C210.796 366.146 210.399 366.221 209.993 366.302C209.622 366.376 208.813 366.169 208.521 366.331C208.211 366.503 207.263 366.561 207.023 366.241C206.803 365.947 206.566 365.821 206.405 365.464C206.252 365.123 206.183 364.798 206.06 364.459C205.891 363.994 205.587 362.723 206.217 362.443C206.586 362.279 206.744 362.181 207.167 362.181C207.287 362.181 207.39 362.27 207.513 362.27C207.69 362.27 207.171 362.155 206.994 362.155" stroke="#007BFF" stroke-opacity="0.5" stroke-linecap="round" stroke-linejoin="round"/>
<path d="M208.722 357.489C209.535 356.439 210.276 355.355 211.116 354.334C211.567 353.785 212.127 353.313 212.614 352.788C214.006 351.285 215.424 349.639 216.486 347.882C217.531 346.152 218.958 344.267 220.508 342.967C221.327 342.28 222.059 341.522 222.771 340.73C223.462 339.962 223.78 338.889 224.435 338.077C224.942 337.449 228.26 333.174 228.838 335.773C229.065 336.795 228.069 337.509 227.443 338.135C226.733 338.845 226.019 339.747 225.414 340.554C224.831 341.332 224.121 342.016 223.555 342.801C222.784 343.868 221.381 344.632 220.819 345.841C220.355 346.838 219.585 347.64 219.007 348.564C218.207 349.845 217.269 350.915 216.326 352.087C215.578 353.016 214.407 353.78 213.878 354.839C213.435 355.724 212.651 356.097 211.935 356.67C211.624 356.919 211.245 357.058 210.969 357.403C210.877 357.518 210.712 357.65 210.626 357.521C210.577 357.448 210.39 357.613 210.425 357.694C210.548 357.981 210.249 357.005 210.22 356.913" stroke="#007BFF" stroke-opacity="0.5" stroke-linecap="round" stroke-linejoin="round"/>
<path d="M208.261 357.777C208.482 357.889 209.874 358.946 209.874 358.094C209.874 357.836 210.206 357.406 210.322 357.144C210.411 356.945 209.615 357.135 209.497 357.288C209.342 357.486 209.042 357.648 209.529 357.662C209.903 357.673 210.195 357.512 210.479 357.291C210.561 357.227 211.66 357.401 210.681 357.374C210.16 357.359 209.654 357.374 209.154 357.374C208.722 357.374 209.598 357.259 209.724 357.259C209.825 357.259 208.994 357.753 208.85 357.592C208.815 357.552 208.755 357.444 208.895 357.374" stroke="#007BFF" stroke-opacity="0.5" stroke-linecap="round" stroke-linejoin="round"/>
<path d="M189.944 353.515C190.009 353.549 192.067 354.627 192.075 354.494C192.085 354.333 191.97 354.192 192.05 354.033C192.398 353.336 192.849 353.671 193.448 353.94C193.916 354.151 193.206 351.82 194.616 352.804C195.345 353.313 195.539 353.232 195.419 352.379C195.329 351.733 195.552 351.731 196.107 351.799C196.485 351.846 196.756 351.928 196.971 351.569C197.233 351.133 197.528 350.885 198.063 351.073C198.506 351.229 198.9 351.668 199.205 351.108C199.339 350.862 199.226 350.125 199.65 350.267C199.916 350.355 200.266 350.702 200.568 350.593C200.798 350.51 200.974 349.799 201.234 349.911C201.505 350.029 201.781 350.543 202.124 350.42C202.289 350.361 202.595 349.821 202.271 349.886" stroke="#007BFF" stroke-opacity="0.5" stroke-linecap="round" stroke-linejoin="round"/>
<path d="M198.066 352.478C198.78 353.059 201.454 356.162 202.239 353.844C202.38 353.429 202.402 352.607 202.796 353.287C203.12 353.848 203.609 354.237 204.14 353.707C204.492 353.355 204.648 352.758 205.151 352.574C205.613 352.405 205.951 353.273 206.335 352.766C206.645 352.357 206.495 351.654 206.041 351.409C205.892 351.328 205.85 351.606 205.785 351.671" stroke="#007BFF" stroke-opacity="0.5" stroke-linecap="round" stroke-linejoin="round"/>
<path d="M204.229 348.907C205.342 348.715 206.743 348.326 207.589 349.323C207.982 349.784 207.944 350.374 207.685 350.897C207.496 351.279 206.987 351.47 206.661 351.095C206.395 350.788 206.945 350.281 207.141 350.094C207.816 349.451 208.815 350.48 209.026 351.179C209.203 351.762 207.608 353.114 207.801 352.535" stroke="#007BFF" stroke-opacity="0.5" stroke-linecap="round" stroke-linejoin="round"/>
<path d="M222.95 350.865C223.28 350.751 225.406 350.067 224.998 351.198C224.789 351.778 223.987 352.089 223.462 352.279C223.213 352.369 222.571 352.354 222.988 351.991C223.349 351.678 223.858 351.53 224.332 351.569C226.181 351.719 223.596 353.843 223.065 354.136C222.034 354.704 220.631 355.303 219.551 354.609" stroke="#007BFF" stroke-opacity="0.5" stroke-linecap="round" stroke-linejoin="round"/>
<path d="M211.602 347.466C212.041 348.18 212.568 348.896 212.943 349.646C213.072 349.904 212.514 349.243 212.383 348.987C212.348 348.919 212.108 348.162 212.085 348.167C211.805 348.23 211.739 349.514 211.663 349.751C211.304 350.873 210.417 350.443 209.548 350.359C208.495 350.258 208.024 351.296 207.442 351.959C206.976 352.49 206.793 352.653 207.109 353.284C207.365 353.795 207.471 354.291 207.109 354.753C206.827 355.114 206.474 355.342 206.133 355.64C205.821 355.912 206.269 355.867 206.21 355.704C206.05 355.256 205.064 355.349 204.741 355.371C203.542 355.45 202.321 355.149 201.144 355.224C200.519 355.263 199.93 355.612 199.311 355.704C198.681 355.797 199.513 356.343 199.749 356.5C200.155 356.771 198.955 355.925 198.514 355.716C197.774 355.366 197.092 355.096 196.709 354.321C196.325 353.545 195.988 353.016 195.339 352.446C195.116 352.249 195.089 351.951 195.198 351.684C195.451 351.067 196.012 350.565 196.568 350.231" stroke="#007BFF" stroke-opacity="0.5" stroke-linecap="round" stroke-linejoin="round"/>
<path d="M211.487 349.771C210.043 348.763 208.852 348.329 207.154 348.1C206.557 348.02 205.921 347.607 205.532 347.15C205.186 346.744 205.382 346.852 204.975 347.402C204.419 348.155 204.006 347.48 203.295 347.678C202.206 347.981 201.271 348.994 200.165 349.182C199.862 349.233 199.935 348.727 199.557 348.945C198.92 349.312 198.433 349.66 197.688 349.777C197.238 349.848 196.384 350.144 196.453 350.692" stroke="#007BFF" stroke-opacity="0.5" stroke-linecap="round" stroke-linejoin="round"/>
<path d="M221.279 349.771C222.673 349.905 224.084 349.888 225.472 350.036C225.96 350.088 226.21 350.286 226.553 350.606C226.863 350.894 227.347 351.574 227.792 351.611C228.433 351.664 228.764 351.398 229.363 351.211C229.723 351.098 230.873 351.211 230.496 351.211" stroke="#007BFF" stroke-opacity="0.5" stroke-linecap="round" stroke-linejoin="round"/>
<path d="M220.243 351.326C218.745 352.313 217.945 353.81 216.342 354.708C216.024 354.886 215.053 355.231 215.126 355.816C215.179 356.239 218.424 354.914 218.918 354.667" stroke="#007BFF" stroke-opacity="0.5" stroke-linecap="round" stroke-linejoin="round"/>
<path d="M225.83 352.708C226.644 353.314 227.347 354.181 228.365 353.873C228.64 353.79 229.216 353.757 229.401 353.572" stroke="#007BFF" stroke-opacity="0.5" stroke-linecap="round" stroke-linejoin="round"/>
<path d="M427.132 327.597C422.925 328.404 419.867 329.619 417.201 333.047C415.511 335.219 415.882 338.638 416.989 340.941C418.813 344.736 423.298 346.879 427.344 347.065C432.057 347.281 438.609 345.896 439.575 340.275C440.093 337.262 437.214 334.413 435.866 331.942C434.77 329.931 433.118 327.221 430.81 326.371C429.868 326.024 427.681 326.144 426.995 327.082C426.689 327.501 426.295 327.944 426.072 328.414C425.891 328.796 426.085 327.444 426.042 327.052" stroke="#007BFF" stroke-opacity="0.5" stroke-linecap="round" stroke-linejoin="round"/>
<path d="M428.903 337.951C427.768 338.535 425.926 338.921 426.92 340.199C427.146 340.491 427.469 340.475 427.745 340.199C427.98 339.964 429.167 338.728 428.29 338.436C426.502 337.84 427.156 341.407 428.433 339.829C429.12 338.981 428.159 338.146 427.298 338.663C426.272 339.278 427.084 340.353 427.889 339.42C428.495 338.716 428.011 338.177 427.351 338.837C426.76 339.428 427.36 340.37 427.941 339.571C428.537 338.752 427.858 338.058 427.139 338.776C426.307 339.608 427.208 339.521 427.798 338.973C428.392 338.421 427.338 338.502 426.995 338.935C426.2 339.941 427.446 339.798 427.646 338.935C427.941 337.668 426.634 340.58 427.268 338.36" stroke="#007BFF" stroke-opacity="0.5" stroke-linecap="round" stroke-linejoin="round"/>
<path d="M424.271 333.728C425.481 335.325 426.721 336.839 427.737 338.436C428.019 338.878 427.794 339.322 427.949 339.314C428.522 339.282 429.11 339.178 429.72 339.178C431.118 339.178 432.218 338.496 433.565 338.496C435.196 338.496 437.593 338.073 434.897 336.725" stroke="#007BFF" stroke-opacity="0.5" stroke-linecap="round" stroke-linejoin="round"/>
<path d="M422.908 327.461C422.653 326.173 421.41 323.05 423.725 323.381C424.556 323.5 425.114 324.359 425.603 324.902C426.874 326.315 426.738 328.021 424.679 328.142C424.14 328.174 423.38 329.243 422.772 328.483C422.083 327.621 422.786 327.679 422.908 326.643C422.988 325.966 422.545 326.022 422.355 325.356C422.21 324.846 422.512 324.287 422.635 323.918" stroke="#007BFF" stroke-opacity="0.5" stroke-linecap="round" stroke-linejoin="round"/>
<path d="M423.726 325.962C423.713 326.287 423.212 329.22 424.278 328.74C424.635 328.579 424.944 328.346 425.088 327.975C425.228 327.617 425.079 327.402 424.921 327.052C424.515 326.149 423.336 324.745 423.695 326.779C423.922 328.063 425.355 327.763 425.466 326.537C425.552 325.601 424.371 324.347 423.62 325.417C423.088 326.174 424.035 327.842 424.588 326.673C424.87 326.08 424.197 324.571 423.483 325.311C422.751 326.069 423.851 327.669 424.573 327.022C425.287 326.382 424.802 324.43 424.028 325.175C423.321 325.856 424.382 327.212 424.921 326.174C425.523 325.016 424.198 324.143 423.786 325.356C423.418 326.44 424.565 327.604 424.831 326.128C425.033 325.005 422.969 324.408 422.969 325.75C422.969 326.987 424.074 326.86 424.074 325.735C424.074 324.562 422.893 324.826 423.385 325.811C423.877 326.795 424.537 325.048 423.983 324.494C423.336 323.847 422.479 324.847 423.241 325.47C423.76 325.895 424.47 324.132 423.597 323.805C422.843 323.522 423.26 325.062 423.521 324.713C423.926 324.173 423.305 323.811 423.733 323.918C424.11 324.013 425.026 324.214 425.285 324.547C425.488 324.808 426.314 326.265 426.314 326.643C426.314 327.8 424.544 328.424 423.529 328.134C422.8 327.926 422.584 328.441 422.84 328.271C423.46 327.857 423.589 326.779 423.589 327.188" stroke="#007BFF" stroke-opacity="0.5" stroke-linecap="round" stroke-linejoin="round"/>
<path d="M423.589 346.943C422.888 348.432 422.265 349.927 421.44 351.334C421.254 351.65 420.905 352.297 420.864 352.666C420.754 353.66 421.752 350.295 421.954 349.805" stroke="#007BFF" stroke-opacity="0.5" stroke-linecap="round" stroke-linejoin="round"/>
<path d="M437.35 344.082C439.075 346.261 440.978 347.815 442.323 350.206C442.455 350.441 442.685 350.628 442.868 350.811C443.48 351.423 441.732 349.505 441.165 348.851" stroke="#007BFF" stroke-opacity="0.5" stroke-linecap="round" stroke-linejoin="round"/>
<path d="M323.065 217.051C324.144 221.123 328.31 236.26 329.307 241.791C332.051 257.019 327.745 236.24 327.735 242.966" stroke="#007BFF" stroke-opacity="0.5" stroke-width="2" stroke-linecap="round" stroke-linejoin="round"/>
<path d="M315.754 223.634C315.386 217.438 313.996 208.838 322.684 209.723C326.772 210.14 331.274 212.566 333.822 215.812C337.76 220.828 335.683 228.604 331.428 232.596C329.163 234.72 326.966 235.785 324.003 236.588C318.982 237.949 322.944 230.976 323.753 229.064" stroke="#007BFF" stroke-opacity="0.5" stroke-width="2" stroke-linecap="round" stroke-linejoin="round"/>
<path d="M338.352 231.207C346.985 230.745 354.931 229.046 358.02 238.408C359.814 243.849 362 250.46 360.504 256.194C359.152 261.375 356.24 264.614 350.916 262.407C343.308 259.253 343.318 253.315 347.459 247.393C348.984 245.213 354.823 240.847 354.827 238.298" stroke="#007BFF" stroke-opacity="0.5" stroke-width="2" stroke-linecap="round" stroke-linejoin="round"/>
<path d="M353.912 221.104C353.618 223.375 353.613 239.444 349.264 239.598C348.448 239.627 347.764 240.051 347.051 240.406C344.313 241.769 345.979 240.542 347.001 239.123C349.316 235.909 354.006 237.097 356.353 232.831C358.903 228.199 360.077 225.921 356.422 222.338C353.861 219.826 354.986 215.555 352.969 221.573" stroke="#007BFF" stroke-opacity="0.5" stroke-width="2" stroke-linecap="round" stroke-linejoin="round"/>
<path d="M366.653 206.522C369.99 214.033 373.039 223.815 378.392 230.354C379.806 232.082 380.6 230.578 380.578 229.232C380.551 227.532 380.072 225.816 379.579 224.206" stroke="#007BFF" stroke-opacity="0.5" stroke-width="2" stroke-linecap="round" stroke-linejoin="round"/>
<path d="M356.966 226.055C362.26 223.972 375.258 221.864 377.473 215.253" stroke="#007BFF" stroke-opacity="0.5" stroke-width="2" stroke-linecap="round" stroke-linejoin="round"/>
<path d="M373.247 206.768C396.192 246.902 373.838 218.694 385.5 211.353C392.58 206.898 393.17 227.897 395.132 218.814" stroke="#007BFF" stroke-opacity="0.5" stroke-width="2" stroke-linecap="round" stroke-linejoin="round"/>
<path d="M393.74 205.387C394.572 207.876 397.368 224.307 403.189 220.554C405.792 218.875 408.824 215.675 409.325 212.529C409.864 209.154 407.755 200.579 402.984 201.502C400.806 201.924 397.164 202.025 395.744 204.095C394.371 206.095 393.504 210.779 395.152 205.86" stroke="#007BFF" stroke-opacity="0.5" stroke-width="2" stroke-linecap="round" stroke-linejoin="round"/>
<path d="M409.997 201.409C416.504 197.231 424.152 195.86 425.142 205.698C425.266 206.933 425.289 208.488 425.856 209.625C426.512 210.943 425.163 206.403 423.886 205.67" stroke="#007BFF" stroke-opacity="0.5" stroke-width="2" stroke-linecap="round" stroke-linejoin="round"/>
<path d="M409.52 205.176C409.814 210.319 409.079 217.286 411.482 222.111C411.564 222.275 412.135 223.534 411.847 222.844C411.278 221.479 411.042 220.553 409.969 219.073" stroke="#007BFF" stroke-opacity="0.5" stroke-width="2" stroke-linecap="round" stroke-linejoin="round"/>
<path d="M244.833 251.734C243.932 260.093 245.503 285.829 231.305 284.227C228.345 283.894 225.657 283.399 224.251 280.61C222.778 277.69 221.56 275.149 221.414 271.832C221.234 267.758 222.856 265.835 226.15 263.996C227.305 263.352 224.823 265.962 224.603 266.215C223.155 267.878 228.067 265.851 229.945 265.435" stroke="#007BFF" stroke-opacity="0.5" stroke-width="2" stroke-linecap="round" stroke-linejoin="round"/>
<path d="M263.06 255.75C255.879 256.422 245.743 257.783 244.584 266.767C243.956 271.64 251.201 272.232 254.345 273.892C259.748 276.743 263.848 286.043 257.787 290.136C253.573 292.982 250.385 291.469 246.286 291.753C242.121 292.042 245.021 290.507 247.49 290.086" stroke="#007BFF" stroke-opacity="0.5" stroke-width="2" stroke-linecap="round" stroke-linejoin="round"/>
<path d="M301.973 34.5733C301.397 40.3405 301.047 46.1668 300.336 51.9203C300.267 52.4739 299.722 54.6592 300.367 52.8924C300.838 51.6006 300.686 50.2544 301.442 49.0294C302.485 47.3421 307.194 40.9151 309.406 41.5652C313.839 42.8682 309.365 51.0911 308.096 53.4474C307.658 54.26 306.465 56.0228 307.083 56.9341C307.906 58.149 309.429 53.6592 309.494 53.5218" stroke="#007BFF" stroke-opacity="0.5" stroke-width="2" stroke-linecap="round" stroke-linejoin="round"/>
<path d="M319.482 38.3603C318.956 40.9369 314.543 53.655 318.795 55.7616C319.995 56.3561 322.65 55.2339 323.475 54.2665C324.334 53.2591 323.885 51.7166 323.792 50.5474" stroke="#007BFF" stroke-opacity="0.5" stroke-width="2" stroke-linecap="round" stroke-linejoin="round"/>
<path d="M310.733 38.6382C315.398 40.0256 320.196 40.9493 324.832 42.3807C325.926 42.7186 326.336 42.8716 326.925 43.8477C327.841 45.366 325.407 43.9791 324.987 43.5192" stroke="#007BFF" stroke-opacity="0.5" stroke-width="2" stroke-linecap="round" stroke-linejoin="round"/>
<path d="M331.831 47.6529C330.76 50.8857 329.754 54.1591 328.531 57.3404C328.289 57.9729 328.252 58.2042 328.121 57.7211C327.995 57.2557 327.872 56.9815 328.079 56.49C329.177 53.878 331.74 50.1241 334.158 48.6652C336.768 47.0897 335.344 52.3816 334.993 53.4529C334.599 54.656 333.538 57.9535 334.745 54.7627C335.462 52.8638 337.11 48.1445 339.888 48.8314C341.57 49.2474 341.182 51.5219 340.885 52.7246C340.336 54.9425 339.791 57.1455 339.241 59.3708C338.437 62.6225 338.871 60.8665 339.459 58.4903" stroke="#007BFF" stroke-opacity="0.5" stroke-width="2" stroke-linecap="round" stroke-linejoin="round"/>
<path d="M352.569 40.5746C350.893 46.6026 348.837 52.6134 347.393 58.7041C347.224 59.4184 346.854 62.0633 347.992 62.3784C349.072 62.6777 353.341 60.1129 352.298 59.2237" stroke="#007BFF" stroke-opacity="0.5" stroke-width="2" stroke-linecap="round" stroke-linejoin="round"/>
<path d="M62.4273 286.46C58.464 293.989 54.5135 301.525 50.5395 309.048C49.4068 311.193 47.1712 317.753 46.8944 315.344C46.5191 312.077 48.5151 307.504 49.3621 304.443C50.5574 300.122 52.9913 291.491 59.0562 291.522C63.6342 291.547 68.781 298.26 69.4909 302.449C69.9922 305.406 71.4498 302.066 73.4282 301.174" stroke="#007BFF" stroke-opacity="0.5" stroke-width="2" stroke-linecap="round" stroke-linejoin="round"/>
<path d="M74.7122 310.581C77.3755 316.775 81.3016 327.246 89.3863 321.485C93.1012 318.838 91.2551 314.308 87.5879 312.869C78.6006 309.343 67.276 319.189 65.0347 327.282C62.7938 335.374 71.6399 337.855 77.7251 338.654C81.0923 339.096 80.3371 336.218 83.2344 335.216" stroke="#007BFF" stroke-opacity="0.5" stroke-width="2" stroke-linecap="round" stroke-linejoin="round"/>
<path d="M97.0948 331.997C90.1133 329.082 80.8641 326.483 76.9297 335.405C75.0333 339.705 83.5204 340.21 86.0377 340.091C90.8456 339.865 101.552 328.735 97.9445 331.922C94.7793 334.719 91.5759 338.02 90.2744 342.15C89.4338 344.818 90.3992 350.711 93.4918 346.641" stroke="#007BFF" stroke-opacity="0.5" stroke-width="2" stroke-linecap="round" stroke-linejoin="round"/>
<path d="M124.244 337.579C114.111 338.551 102.102 339.06 98.5071 350.445C96.7398 356.041 100.886 359.933 105.882 361.575C109.373 362.723 112.932 360.231 115.05 357.703" stroke="#007BFF" stroke-opacity="0.5" stroke-width="2" stroke-linecap="round" stroke-linejoin="round"/>
<path d="M133.448 339.123C132.892 339.799 107.931 367.004 119.829 367.214C123.124 367.273 126.505 365.356 128.773 363.201" stroke="#007BFF" stroke-opacity="0.5" stroke-width="2" stroke-linecap="round" stroke-linejoin="round"/>
<path d="M112.305 344.073C117.098 347.378 121.823 350.878 127.08 353.432C128.445 354.096 130.72 354.412 131.66 355.788C132.188 356.561 131.358 354.725 131.266 354.458" stroke="#007BFF" stroke-opacity="0.5" stroke-width="2" stroke-linecap="round" stroke-linejoin="round"/>
<path d="M58.8483 126.255C62.8701 133.133 75.6421 153.199 70.4571 147.15C67.1429 143.283 64.6254 138.151 62.524 133.576C60.3189 128.776 58.2483 120.211 66.6514 120.645C73.8637 121.019 76.7429 128.384 78.0116 134.421C78.5713 137.084 78.7141 139.153 79.9087 141.575C81.1303 144.052 81.198 134.509 81.6623 132.033" stroke="#007BFF" stroke-opacity="0.5" stroke-width="2" stroke-linecap="round" stroke-linejoin="round"/>
<path d="M84.8325 112.267C85.0569 113.307 88.5334 137.092 93.5794 132.518C95.7039 130.592 96.1709 125.844 96.4436 123.243C97.2962 115.114 93.8622 114.11 88.1554 112.39C85.4328 111.569 84.8749 111.606 84.1273 114.409C82.592 120.164 85.012 118.547 88.1129 115.347" stroke="#007BFF" stroke-opacity="0.5" stroke-width="2" stroke-linecap="round" stroke-linejoin="round"/>
<path d="M106.773 105.557C103.97 110.282 100.395 115.84 102.367 121.627C103.185 124.028 105.088 123.393 106.421 122.042C108.524 119.909 109.621 116.404 109.504 113.475C109.28 107.861 105.763 103.057 102.072 99.0676C101.561 98.5145 96.9003 94.6725 97.8129 97.9712C99.4522 103.896 104.015 109.595 107.194 114.745C112.434 123.232 114.041 119.936 116.395 111.969" stroke="#007BFF" stroke-opacity="0.5" stroke-width="2" stroke-linecap="round" stroke-linejoin="round"/>
<path d="M116.893 107.026C118.633 108.649 132.363 118.456 132.789 109.757C132.827 108.968 131.821 108.721 131.49 108.049C130.635 106.316 129.219 105.173 128.449 104.264" stroke="#007BFF" stroke-opacity="0.5" stroke-width="2" stroke-linecap="round" stroke-linejoin="round"/>
<path d="M118.038 112.921C112.602 105.782 105.008 98.3595 112.792 91.302C116.072 88.3282 122.878 90.6797 122.7 95.6483C122.617 97.9624 122.129 103.685 118.805 104.289C117.048 104.608 116.238 103.458 117.863 101.85" stroke="#007BFF" stroke-opacity="0.5" stroke-width="2" stroke-linecap="round" stroke-linejoin="round"/>
<path d="M130.448 83.3129C133.963 85.5493 159.008 100.35 145.89 106.819C143.845 107.828 142.046 105.478 140.959 103.966C138.509 100.558 145.647 95.7227 145.944 92.1126" stroke="#007BFF" stroke-opacity="0.5" stroke-width="2" stroke-linecap="round" stroke-linejoin="round"/>
<path d="M151.005 71.4142C148.959 73.0849 137.225 83.4619 146.452 85.4683C151.549 86.5765 156.366 81.4977 160.24 78.9626C166.48 74.8787 167.798 82.7372 166.083 87.1727C165.033 89.8891 156.266 98.7785 158.665 91.7115" stroke="#007BFF" stroke-opacity="0.5" stroke-width="2" stroke-linecap="round" stroke-linejoin="round"/>
<path d="M220.261 457.65C212.455 461.578 202.226 468.742 210.665 478.247C214.713 482.807 222.186 480.939 227.517 480.412C229.015 480.264 233.148 481.705 232.023 480.705C229.589 478.542 227.838 478.681 227.108 475.029" stroke="#007BFF" stroke-opacity="0.5" stroke-width="2" stroke-linecap="round" stroke-linejoin="round"/>
<path d="M243.434 455.016C243.434 460.771 243.38 464.891 249.285 467.129C251.835 468.096 253.436 468.983 254.113 471.84C254.878 475.069 252.625 479.747 249.958 481.553C246.661 483.786 242.52 484.565 238.811 483.045C235.634 481.743 239.146 480.204 240.8 478.715" stroke="#007BFF" stroke-opacity="0.5" stroke-width="2" stroke-linecap="round" stroke-linejoin="round"/>
<path d="M269.239 448.697C268.203 452.71 263.534 463.443 267.688 467.597C269.365 469.274 272.612 468.343 274.68 468.826C276.738 469.307 278.503 470.882 279.771 472.513C281.779 475.094 279.868 479.006 277.548 480.822C273.948 483.639 268.806 482.402 264.616 482.402C262.328 482.402 263.891 482.24 265.025 480.822" stroke="#007BFF" stroke-opacity="0.5" stroke-width="2" stroke-linecap="round" stroke-linejoin="round"/>
<path d="M260.16 398.752C264.217 397.204 271.742 394.74 275.666 391.964C279.809 389.034 275.472 388.192 273.267 388.892C269.533 390.079 267.277 393.99 266.011 397.436C262.679 406.507 273.279 416.761 282.191 415.722C290.426 414.761 291.575 410.729 292.811 404.545" stroke="#007BFF" stroke-opacity="0.5" stroke-width="2" stroke-linecap="round" stroke-linejoin="round"/>
<path d="M298.078 394.012C297.155 395.515 288.39 413.561 285.965 405.072" stroke="#007BFF" stroke-opacity="0.5" stroke-width="2" stroke-linecap="round" stroke-linejoin="round"/>
<path d="M281.752 394.539C285.45 399.482 294.384 417.156 303.344 416.658C304.644 416.586 302.92 411.583 302.818 410.865" stroke="#007BFF" stroke-opacity="0.5" stroke-width="2" stroke-linecap="round" stroke-linejoin="round"/>
<path d="M305.977 394.539C308.02 406.506 312.112 442.674 309.781 430.76C308.579 424.617 297.603 391.374 307.265 392.754C311.455 393.353 322.151 399.466 319.348 405.072C317.772 408.224 308.005 409.324 312.297 407.178" stroke="#007BFF" stroke-opacity="0.5" stroke-width="2" stroke-linecap="round" stroke-linejoin="round"/>
<path d="M325.99 402.965C327.291 409.736 328.543 416.502 329.676 423.299C329.87 424.463 329.61 423.504 329.267 422.861C327.113 418.821 324.163 411.623 324.264 407.091C324.359 402.797 330.266 399.869 333.363 402.965" stroke="#007BFF" stroke-opacity="0.5" stroke-width="2" stroke-linecap="round" stroke-linejoin="round"/>
<path d="M342.843 410.865C342.706 415.821 346.301 433.172 354.838 428.127C356.061 427.404 359.079 425.638 359.168 424.031C359.216 423.174 357.657 422.978 357.062 422.978C355.497 422.978 355.106 421.037 354.429 419.818" stroke="#007BFF" stroke-opacity="0.5" stroke-width="2" stroke-linecap="round" stroke-linejoin="round"/>
<path d="M340.209 412.445C344.822 407.673 350.01 401.099 354.107 409.607C355.306 412.098 354.888 415.099 353.902 417.594C352.308 421.625 346.601 423.215 348.109 417.185" stroke="#007BFF" stroke-opacity="0.5" stroke-width="2" stroke-linecap="round" stroke-linejoin="round"/>
<path d="M368.648 402.965C372.257 408.733 386.855 424.281 377.279 431.375C374.215 433.644 372.215 433.634 368.765 433.51C363.894 433.336 366.468 432.102 368.121 428.244" stroke="#007BFF" stroke-opacity="0.5" stroke-width="2" stroke-linecap="round" stroke-linejoin="round"/>
<path d="M390.766 400.859C389.676 402.178 375.594 415.792 384.154 417.243C387.309 417.778 390.209 415.867 393.107 417.799C398.336 421.285 397.097 426.01 392.288 428.975C389.884 430.458 387.202 431.235 384.681 432.457C383.256 433.148 384.774 431.147 384.973 430.351" stroke="#007BFF" stroke-opacity="0.5" stroke-width="2" stroke-linecap="round" stroke-linejoin="round"/>
<path d="M378.654 395.066C377.431 395.964 364.264 403.271 366.132 407.705C368.487 413.299 369.266 406.413 369.701 404.019" stroke="#007BFF" stroke-opacity="0.5" stroke-width="2" stroke-linecap="round" stroke-linejoin="round"/>
<path d="M54.9711 222.793C57.3166 217.263 56.3559 212.444 56.3559 206.712C56.3559 205.597 56.1536 202.201 57.3254 201.593C59.1732 200.634 60.9001 199.994 63.0803 199.994C64.5298 199.994 65.9861 200.036 67.435 199.994C68.884 199.953 70.2877 199.363 71.7204 199.188C74.3861 198.861 77.1588 199.316 79.7912 199.316C81.8813 199.316 84.0435 199.587 86.0539 199.587C86.4108 199.587 87.866 199.757 88.1004 199.964C88.818 200.597 88.6125 201.612 89.1775 202.166" stroke="#007BFF" stroke-opacity="0.5" stroke-linecap="round" stroke-linejoin="round"/>
<path d="M89.0397 202.656C89.1309 204.288 89.1651 206.578 89.8366 208.173C90.2717 209.206 89.9248 210.582 90.0128 211.683C90.1819 213.795 89.8673 215.855 89.8673 217.905C89.8673 220.654 90.0052 223.369 90.0052 226.104C90.0052 228.451 87.7117 228.058 85.898 227.728C84.3311 227.443 82.2284 228.015 80.5953 228.035C77.4448 228.074 74.2796 228.311 71.1242 228.311C68.4889 228.311 66.5319 227.545 64.1051 226.625C62.8092 226.133 62.0259 226.242 60.6339 226.242C59.3155 226.242 58.2314 226.036 56.9098 226.449C56.1366 226.69 54.7519 226.482 54.3121 225.69C53.7848 224.741 54.8332 224.329 54.8332 223.552C54.8332 222.9 54.7512 221.034 54.9711 222.794" stroke="#007BFF" stroke-opacity="0.5" stroke-linecap="round" stroke-linejoin="round"/>
<path d="M70.6951 206.242C70.6951 206.242 71.2469 206.518 71.7986 207.07C72.3503 207.483 73.5117 207.277 74.4882 207.277C75.002 207.277 75.5447 206.876 76.0054 206.671C76.9388 206.256 76.3821 207.037 76.1587 207.483C75.9114 207.978 76.1938 208.898 76.6414 209.208C77.38 209.719 78.1107 209.278 78.833 208.916C79.1328 208.766 79.0505 208.697 79.1433 208.901C79.2692 209.178 79.2468 209.58 79.2468 209.882C79.2468 210.569 79.2016 211.712 78.833 212.311C78.348 213.099 77.858 213.609 77.0782 214.188C76.3078 214.761 75.29 215.759 74.266 215.759C72.2649 215.759 70.1409 215.323 69.1396 213.376C68.7152 212.551 67.9366 211.875 67.9366 210.932C67.9366 210.144 67.6761 209.201 67.9366 208.449C68.2523 207.537 69.04 206.671 68.7641 206.671C68.9048 206.711 70.1434 205.966 70.6951 206.242Z" stroke="#007BFF" stroke-opacity="0.5" stroke-linecap="round" stroke-linejoin="round"/>
<path d="M72.971 205.759C73.747 205.472 75.5193 204.87 75.9365 203.932C76.2589 203.206 75.1933 203.07 74.6262 203.07C73.9384 203.07 73.1233 204.02 72.9404 204.621C72.8386 204.956 72.7419 205.298 72.6415 205.637C72.5931 205.8 72.6577 205.918 72.6913 206.07C72.7169 206.185 73.7692 205.632 73.7296 205.474" stroke="#007BFF" stroke-opacity="0.5" stroke-linecap="round" stroke-linejoin="round"/>
<path d="M86.9079 221.273L56.3696 221.944C53.1392 222.015 50.5574 224.654 50.5574 227.885C50.5574 231.167 53.218 233.828 56.5002 233.828H87.0396C90.3533 233.828 93.0396 231.142 93.0396 227.828V227.272C93.0396 223.906 90.2723 221.199 86.9079 221.273Z" stroke="#007BFF" stroke-opacity="0.5"/>
<path d="M63.0588 221.777C63.5169 222.487 63.9124 223.34 64.438 223.997C64.7024 224.327 64.66 224.26 65.1725 224.07C66.0281 223.753 66.9975 223.981 67.8901 223.981C68.6737 223.981 69.5849 223.571 70.3465 223.777C71.2289 224.014 72.2691 223.561 73.1375 223.54C74.184 223.515 75.1816 223.613 76.2224 223.613C76.8498 223.613 77.4615 223.246 78.0422 223.246C78.3792 223.246 79.3396 223.513 79.3643 222.895C79.3763 222.594 79.5112 222.302 79.5112 221.997C79.5112 221.586 79.2649 221.764 78.8502 221.557" stroke="#007BFF" stroke-opacity="0.5" stroke-linecap="round" stroke-linejoin="round"/>
<path d="M212.48 71.0062C213.046 70.2862 214.131 68.9538 212.611 68.7182C212.267 68.6649 211.945 68.4628 211.608 68.6158C210.568 69.0869 209.602 70.1242 209.602 71.3575C209.602 73.3274 211.763 73.7539 213.332 73.7284C215.98 73.6854 216.786 71.1056 217.721 69.0158C218.666 66.9049 219.715 64.8281 220.695 62.7323C221.804 60.3608 223.623 58.4717 224.774 56.1219C225.267 55.1143 225.911 54.227 226.547 53.307C227.532 51.8799 228.235 50.4402 228.94 48.8578C229.518 47.5596 230.159 46.3741 230.867 45.1453C231.154 44.6484 231.046 43.8871 231.594 44.4184C232.01 44.8217 232.672 45.0867 233.231 45.1892C235.678 45.6373 237.929 46.1116 240.449 45.9112C242.998 45.7085 245.545 45.3434 248.054 44.8574C248.907 44.6922 248.543 44.8911 248.141 45.4087C247.459 46.2866 246.876 47.217 246.223 48.1065C245.371 49.2666 245.071 50.6636 244.566 51.9898C244.012 53.4477 243.352 54.8402 242.822 56.3219C241.799 59.1856 240.306 61.7972 238.458 64.2007C237.387 65.5936 236.065 68.0264 234.06 67.9279C230.957 67.7755 233.052 61.6678 234.534 60.4735C235.332 59.8306 236.205 60.5228 236.302 61.3858C236.436 62.5717 236.029 64.1967 234.878 64.7764C233.664 65.388 232.733 65.3146 233.667 63.7373C234.233 62.7829 234.569 63.8332 234.801 63.3665" stroke="#007BFF" stroke-opacity="0.5" stroke-width="2" stroke-linecap="round" stroke-linejoin="round"/>
<path d="M446.308 283.769C446.874 283.048 447.959 281.716 446.439 281.481C446.095 281.427 445.773 281.225 445.436 281.378C444.396 281.849 443.431 282.887 443.431 284.12C443.431 286.09 445.591 286.516 447.16 286.491C449.808 286.448 450.614 283.868 451.549 281.778C452.494 279.667 453.543 277.59 454.523 275.495C455.632 273.123 457.451 271.234 458.602 268.884C459.095 267.877 459.74 266.989 460.375 266.069C461.36 264.642 462.063 263.202 462.768 261.62C463.346 260.322 463.987 259.136 464.696 257.908C464.982 257.411 464.874 256.649 465.422 257.181C465.838 257.584 466.5 257.849 467.059 257.951C469.507 258.4 471.757 258.874 474.277 258.673C476.826 258.471 479.373 258.106 481.882 257.62C482.735 257.455 482.371 257.653 481.969 258.171C481.287 259.049 480.705 259.979 480.051 260.869C479.199 262.029 478.899 263.426 478.394 264.752C477.84 266.21 477.18 267.602 476.651 269.084C475.627 271.948 474.134 274.56 472.286 276.963C471.215 278.356 469.893 280.789 467.888 280.69C464.785 280.538 466.88 274.43 468.363 273.236C469.16 272.593 470.033 273.285 470.131 274.148C470.264 275.334 469.858 276.959 468.706 277.539C467.492 278.15 466.561 278.077 467.495 276.5C468.061 275.545 468.397 276.596 468.629 276.129" stroke="#007BFF" stroke-opacity="0.5" stroke-width="2" stroke-linecap="round" stroke-linejoin="round"/>
<path d="M421.306 159.664C418.71 154.959 418.863 153.615 419.455 148.879C419.781 146.272 419.906 143.723 420.565 141.158C421.745 136.57 422.128 130.391 418.434 126.697C411.165 119.428 397.628 129.766 401.727 138.988C403.287 142.498 405.983 145.097 407.93 148.407C408.711 149.735 409.148 151.174 410.164 152.415C411.137 153.605 412.346 155.086 412.346 156.563C412.346 157.811 411.974 159.429 412.857 160.532C414.076 162.056 413.642 161.272 415.447 161.272C416.688 161.272 418.518 160.286 419.519 159.486C420.233 158.914 420.617 160.567 420.617 158.975C420.617 157.608 420.177 158.745 421.076 158.745" stroke="#007BFF" stroke-opacity="0.5" stroke-linecap="round" stroke-linejoin="round"/>
<path d="M415.562 164.029C418.019 163.297 424.819 161.661 423.245 163.685C421.346 166.126 420.534 164.903 418.204 165.421C417.012 165.685 415.851 169.363 417.17 169.441C419.055 169.552 420.305 167.016 422.224 167.016C423.972 167.016 423.846 169.315 422.799 170.13C421.415 171.206 419.824 170.05 418.893 171.726C417.422 174.374 421.441 173.943 422.582 173.321C423.731 172.694 424.824 171.715 425.67 171.151" stroke="#007BFF" stroke-opacity="0.5" stroke-linecap="round" stroke-linejoin="round"/>
<path d="M421.306 158.918C421.275 159.118 421.242 160.468 420.703 160.468C420.412 160.468 420.279 160.292 420.014 160.44C419.702 160.613 419.409 161.021 419.111 161.26C418.848 161.47 418.067 161.444 417.917 161.706C417.672 162.135 417.175 162.37 416.711 162.421C416.109 162.488 415.887 162.79 415.246 162.648C415.051 162.604 415.031 162.479 414.848 162.479C414.565 162.479 414.442 162.614 414.229 162.377C413.992 162.114 413.606 161.991 413.492 161.592C413.337 161.049 412.768 160.764 413.61 161.1" stroke="#007BFF" stroke-opacity="0.5" stroke-linecap="round" stroke-linejoin="round"/>
<path d="M410.221 136.174C411.249 136.179 412.098 136.246 412.448 137.335C412.686 138.077 412.691 138.805 412.691 139.575C412.691 140.324 412.231 140.926 412.231 141.63C412.231 142.561 412.976 142.409 413.606 142.693C414.202 142.961 414.633 143.184 414.956 143.784C415.276 144.377 415.034 145.525 414.991 146.171C414.954 146.726 414.69 147.906 415.074 148.375C415.283 148.63 416.423 149.024 415.677 148.465" stroke="#007BFF" stroke-opacity="0.5" stroke-linecap="round" stroke-linejoin="round"/>
<path d="M401.548 146.569C400.725 147.116 399.887 147.574 398.967 147.919C398.581 148.064 398.073 148.322 398.16 147.718" stroke="#007BFF" stroke-opacity="0.5" stroke-linecap="round" stroke-linejoin="round"/>
<path d="M398.562 138.643C397.104 138.995 395.655 139.39 394.21 139.779C393.969 139.844 394.521 139.236 394.542 139.218" stroke="#007BFF" stroke-opacity="0.5" stroke-linecap="round" stroke-linejoin="round"/>
<path d="M398.16 131.12C396.65 130.9 395.144 130.628 393.642 130.36C392.95 130.237 392.657 130.328 393.048 129.741" stroke="#007BFF" stroke-opacity="0.5" stroke-linecap="round" stroke-linejoin="round"/>
<path d="M406.315 123.136C405.122 122.927 404.088 122.725 403.01 122.185C402.505 121.933 402.019 121.63 401.491 121.426C400.863 121.184 400.85 121.258 401.548 120.839" stroke="#007BFF" stroke-opacity="0.5" stroke-linecap="round" stroke-linejoin="round"/>
<path d="M416.711 117.967C416.885 119.186 416.828 119.916 416.335 121.021C416.069 121.616 415.844 122.369 415.713 123.012C415.667 123.233 415.642 123.359 415.492 123.526C415.436 123.588 415.642 122.848 415.677 122.734" stroke="#007BFF" stroke-opacity="0.5" stroke-linecap="round" stroke-linejoin="round"/>
<path d="M425.498 122.849C425.117 124.118 424.574 125.336 424.248 126.608C424.083 127.251 424.186 127.29 424.465 126.64" stroke="#007BFF" stroke-opacity="0.5" stroke-linecap="round" stroke-linejoin="round"/>
<path d="M429.174 131.981C427.869 133.11 426.799 134.512 425.786 135.899C425.659 136.073 425.512 136.135 425.371 136.276C425.051 136.596 425.603 135.873 425.671 135.772" stroke="#007BFF" stroke-opacity="0.5" stroke-linecap="round" stroke-linejoin="round"/>
<path d="M136.734 247.189C138.644 255.791 140.794 264.412 142.057 273.144C142.763 278.022 141.213 270.983 141.021 269.988C140.604 267.834 140.126 265.926 140.126 263.723C140.126 259.29 140.007 254.807 139.678 250.369C139.448 247.262 135.632 238.011 140.455 245.729C145.374 253.598 148.846 262.299 152.185 270.883C152.645 272.066 153.282 273.187 153.786 274.322C154.062 274.942 148.899 269.896 146.909 268.811" stroke="#007BFF" stroke-opacity="0.5" stroke-width="2" stroke-linecap="round" stroke-linejoin="round"/>
<path d="M133.766 266.267C139.278 264.067 151.431 259.919 154.964 253.737C156.444 251.147 156.156 252.344 151.996 253.124" stroke="#007BFF" stroke-opacity="0.5" stroke-width="2" stroke-linecap="round" stroke-linejoin="round"/>
<path d="M150.301 237.438C154.554 245.858 157.635 254.824 158.803 264.171C158.911 265.037 159.112 265.987 159.722 266.597C159.835 266.71 157.682 262.679 157.084 261.603" stroke="#007BFF" stroke-opacity="0.5" stroke-width="2" stroke-linecap="round" stroke-linejoin="round"/>
<path d="M150.301 237.014C153.599 238.99 165.713 246.287 157.814 250.934C157.121 251.342 156.308 251.718 155.812 252.371C154.762 253.752 154.636 254.157 155.388 252.276" stroke="#007BFF" stroke-opacity="0.5" stroke-width="2" stroke-linecap="round" stroke-linejoin="round"/>
<path d="M161.323 232.775C162.728 242.293 165.139 252.752 165.139 262.451C165.139 264.592 164.781 260.627 164.291 259.484" stroke="#007BFF" stroke-opacity="0.5" stroke-width="2" stroke-linecap="round" stroke-linejoin="round"/>
<path d="M171.074 249.733C173.402 256.671 174.598 260.76 167.777 262.781C165.446 263.472 168.262 260.086 168.86 259.672C170.901 258.259 172.933 253.711 170.65 251.428C169.742 250.52 167.568 251.667 166.929 250.581C165.986 248.979 168.098 245.945 169.378 245.163C173.059 242.914 172.596 246.084 171.074 245.069" stroke="#007BFF" stroke-opacity="0.5" stroke-width="2" stroke-linecap="round" stroke-linejoin="round"/>
<path d="M274 142.834C275.297 150.032 280.638 171.051 277.531 164.498C277.196 163.792 276.917 163.193 276.889 162.391C276.785 159.427 276.575 156.329 275.605 153.515C274.793 151.162 284.173 151.048 284.173 148.544C284.173 148.042 274.155 141.77 274.232 141.743C275.049 141.456 274.996 141.907 275.605 142.651C279.297 149.466 279.907 156.995 282.109 161.407C283.242 163.678 288.902 162.11 286.197 162.467" stroke="#007BFF" stroke-opacity="0.5" stroke-width="2" stroke-linecap="round" stroke-linejoin="round"/>
<path d="M282.308 138.903C285.319 137.291 288.189 136.003 291.295 134.841" stroke="#007BFF" stroke-opacity="0.5" stroke-width="2" stroke-linecap="round" stroke-linejoin="round"/>
<path d="M281.846 139.222C284.93 144.094 290.605 153.01 294.195 157.508C294.707 158.15 295.782 159.316 295.782 157.809C295.782 155.754 304.028 154.315 303.538 152.364M300.734 141.183C300.734 137.59 306.61 155.594 305.385 152.364C304.076 148.914 302.223 144.325 300.734 141.183ZM300.734 141.183C299.255 141.183 296.615 132.894 293.272 129.487M316 148.957C314.521 148.957 296.58 132.422 294.195 129" stroke="#007BFF" stroke-opacity="0.5" stroke-width="2" stroke-linecap="round" stroke-linejoin="round"/>
<path d="M305.14 336.508C305.024 336.295 300.008 327.657 300.442 327.408C301.044 327.064 302.167 327.399 302.876 327.133C304.969 326.348 306.655 324.728 308.378 323.388C310.19 321.978 312.672 333.036 313.224 335.365C313.891 338.183 315.629 341.929 312.377 343.555C309.446 345.021 305.589 344.578 302.389 344.507C297.168 344.391 293.56 335.821 292.951 331.556C292.507 328.451 288.207 318.483 292.824 316.489C294.06 315.955 296.16 316.32 297.501 316.32C299.419 316.32 301.094 315.177 303.045 315.177C306.149 315.177 307.088 319.055 304.378 314.796" stroke="#007BFF" stroke-opacity="0.5" stroke-width="2" stroke-linecap="round" stroke-linejoin="round"/>
<path d="M313.901 317.843C314.442 319.815 316.183 330.762 320.757 327.959C321.628 327.425 322.261 326.131 322.577 325.208C323.42 322.742 323.597 320.683 321.709 318.796C320.295 317.381 317.564 314.494 315.509 314.415C310.413 314.219 314.909 319.927 314.282 318.986" stroke="#007BFF" stroke-opacity="0.5" stroke-width="2" stroke-linecap="round" stroke-linejoin="round"/>
<path d="M314.663 300.321C318.425 306.27 324.102 312.812 326.386 319.663C326.677 320.537 326.688 321.131 327.233 321.949C328.055 323.182 328.444 324.972 329.222 323.091C330.349 320.368 332.917 317.951 334.936 315.854C337.426 313.268 337.767 314.034 333.327 314.034" stroke="#007BFF" stroke-opacity="0.5" stroke-width="2" stroke-linecap="round" stroke-linejoin="round"/>
<path d="M340.946 298.417C340.473 299.484 333.297 313.685 340.226 310.458C341.605 309.816 343.011 308.817 342.829 307.178C342.653 305.598 341.334 304.356 340.649 302.988C340.263 302.214 338.717 298.489 339.253 299.559C340.844 302.741 342.98 308.408 345.347 310.775C348.105 313.533 349.757 310.635 347.04 309.082" stroke="#007BFF" stroke-opacity="0.5" stroke-width="2" stroke-linecap="round" stroke-linejoin="round"/>
<path d="M345.136 299.94C355.738 316.758 342.322 297.888 345.411 294.586C348.4 291.391 351.931 297.527 353.05 299.475C354.999 302.868 356.918 311.671 353.897 302.607" stroke="#007BFF" stroke-opacity="0.5" stroke-width="2" stroke-linecap="round" stroke-linejoin="round"/>
<path d="M358.468 285.466C358.288 286.101 352.601 302.105 356.859 300.618C358.669 299.986 360.486 298.555 361.451 296.914C362.565 295.02 363.084 292.423 362.277 290.333C361.726 288.908 361.131 287.386 360.372 286.058C358.569 282.904 363.428 292.652 364.88 295.983C367.006 300.86 372.128 317.959 360.055 314.563C354.789 313.082 359.748 304.892 359.229 304.892" stroke="#007BFF" stroke-opacity="0.5" stroke-width="2" stroke-linecap="round" stroke-linejoin="round"/>
<path d="M208.549 206.765C210.442 206.245 212.056 205.721 213.387 204.223C213.912 203.633 213.983 202.879 214.251 202.164C214.6 201.235 214.166 200.046 213.868 199.154C213.631 198.441 214.93 198.041 215.394 198.011C216.191 197.96 216.801 198.467 217.567 198.512C218.488 198.566 219.47 198.861 220.109 199.58C220.542 200.067 221.123 200.182 221.602 200.605C222.057 201.006 222.416 201.706 222.745 202.22C223.697 203.707 223.966 205.442 224.243 207.143C224.375 207.959 224.456 208.846 224.318 209.67C224.154 210.654 224.329 211.6 223.94 212.543C223.672 213.194 223.243 214.057 222.632 214.442C222.005 214.837 221.422 214.979 221.262 215.798C220.927 217.508 221.786 219.183 221.455 220.909C221.162 222.442 219.136 222.676 217.884 222.922C217.019 223.091 215.448 223.356 214.615 222.903C213.063 222.059 211.939 221.005 210.788 219.662C209.769 218.472 209.383 216.733 209.248 215.212C209.111 213.659 209.109 211.973 209.144 210.403C209.167 209.361 209.471 208.314 209.569 207.275C209.65 206.425 209.92 206.357 209.484 207.445" stroke="#007BFF" stroke-opacity="0.5" stroke-linecap="round" stroke-linejoin="round"/>
<path d="M219.519 199.027C220.158 197.378 220.861 195.73 221.352 194.029C221.572 193.265 221.625 192.455 221.9 191.709C222.219 190.842 222.377 189.862 222.514 188.955C222.612 188.305 222.66 187.154 223.255 186.744C223.69 186.445 223.938 185.762 224.403 185.402C225.001 184.941 225.851 184.512 226.274 183.895C226.69 183.29 227.134 182.04 226.784 181.34C226.59 180.951 226.617 180.532 226.425 180.149C226.176 179.651 225.952 179.247 225.764 178.708C225.599 178.237 225.08 177.295 225.684 176.96C227.159 176.141 227.262 177.431 227.72 178.609C227.956 179.218 227.992 179.961 228.211 180.593C228.361 181.026 228.627 180.713 228.83 180.962C229.136 181.336 229.151 181.804 229.383 182.209C229.729 182.815 229.322 184.044 229.146 184.637C228.821 185.735 228.486 186.729 228.003 187.783C226.76 190.499 224.734 192.786 223.345 195.418C222.816 196.419 222.393 197.428 222.136 198.536C221.989 199.165 221.559 199.765 221.559 200.43C221.559 201.037 221.409 201.348 221.729 200.387" stroke="#007BFF" stroke-opacity="0.5" stroke-linecap="round" stroke-linejoin="round"/>
<path d="M226.151 178.534C225.068 178.7 223.887 178.763 222.92 179.247C222.787 179.313 222.993 179.14 223.09 179.129C224.386 178.976 225.802 177.82 226.983 177.258C227.861 176.84 229.062 175.898 230.063 175.898C230.353 175.898 229.099 176.705 228.957 176.833" stroke="#007BFF" stroke-opacity="0.5" stroke-linecap="round" stroke-linejoin="round"/>
<path d="M225.046 180.404C226.251 179.704 228.35 178.944 229.231 177.768C229.317 177.654 229.38 177.5 229.505 177.428C229.943 177.178 229.169 177.457 229.042 177.513" stroke="#007BFF" stroke-opacity="0.5" stroke-linecap="round" stroke-linejoin="round"/>
<path d="M225.896 181.51C227.342 180.956 229.986 180.464 230.781 178.874C230.896 178.644 230.641 178.704 230.488 178.704" stroke="#007BFF" stroke-opacity="0.5" stroke-linecap="round" stroke-linejoin="round"/>
<path d="M227.427 181.34C227.334 183.29 227.354 185.273 226.241 186.943C225.698 187.757 225.322 188.299 225.131 189.253C224.927 190.272 224.703 191.123 224.238 192.054C223.779 192.972 223.24 193.724 222.788 194.605C222.553 195.062 221.976 195.502 222.088 196.051C222.145 196.328 222.008 196.576 221.918 196.835C221.653 197.603 221.156 198.279 220.69 198.942C220.374 199.392 220.378 200.2 220.794 199.367" stroke="#007BFF" stroke-opacity="0.5" stroke-linecap="round" stroke-linejoin="round"/>
<path d="M220.539 197.071C221.306 197.238 222.473 197.751 223.26 197.751C223.274 197.751 222.591 196.927 222.495 196.816" stroke="#007BFF" stroke-opacity="0.5" stroke-linecap="round" stroke-linejoin="round"/>
<path d="M221.049 193.585C222.134 194.048 223.221 194.507 224.299 194.988C224.552 195.1 224.537 195.117 224.45 195.03C224.264 194.843 224.105 194.641 223.94 194.435" stroke="#007BFF" stroke-opacity="0.5" stroke-linecap="round" stroke-linejoin="round"/>
<path d="M222.07 191.289C223.377 191.695 224.682 192.133 226.005 192.489C226.153 192.529 226.36 192.608 226.217 192.46C225.932 192.165 225.604 191.905 225.301 191.629" stroke="#007BFF" stroke-opacity="0.5" stroke-linecap="round" stroke-linejoin="round"/>
<path d="M222.75 188.398C224.238 189.125 225.72 189.909 227.247 190.557C227.498 190.663 227.582 190.741 227.531 190.542C227.461 190.273 227.357 190.018 227.257 189.758" stroke="#007BFF" stroke-opacity="0.5" stroke-linecap="round" stroke-linejoin="round"/>
<path d="M224.62 186.357C224.756 186.422 228.873 188.655 228.532 187.802" stroke="#007BFF" stroke-opacity="0.5" stroke-linecap="round" stroke-linejoin="round"/>
<path d="M225.471 184.996C226.713 185.288 227.969 185.554 229.212 185.762" stroke="#007BFF" stroke-opacity="0.5" stroke-linecap="round" stroke-linejoin="round"/>
<path d="M226.832 183.636C227.399 183.663 227.965 183.691 228.532 183.721" stroke="#007BFF" stroke-opacity="0.5" stroke-linecap="round" stroke-linejoin="round"/>
<path d="M215.607 209.146C215.016 209.381 211.377 210.286 211.355 211.291C211.347 211.684 211.355 212.077 211.402 212.467C211.549 213.678 212.392 214.312 213.424 214.891C214.737 215.626 216.151 215.649 217.582 215.231C218.942 214.833 219.826 213.329 219.282 212.037C219.169 211.769 219.56 211.715 219.306 211.404C219.059 211.102 218.896 211.277 218.498 211.357" stroke="#007BFF" stroke-opacity="0.5" stroke-linecap="round" stroke-linejoin="round"/>
<path d="M213.821 212.292C214.498 210.581 215.342 208.87 215.735 207.063C215.837 206.589 215.964 206.191 216.221 205.764C216.763 204.86 217.241 203.895 217.563 202.891C217.868 201.938 217.888 200.998 218.29 200.066C218.434 199.734 219.291 198.737 218.923 199.197" stroke="#007BFF" stroke-opacity="0.5" stroke-linecap="round" stroke-linejoin="round"/>
<path d="M220.539 200.047C220.223 202.017 219.749 203.902 219.415 205.849C219.229 206.928 218.923 207.83 218.923 208.967C218.923 209.779 219.213 210.457 219.027 211.272C218.813 212.21 218.62 211.748 218.243 211.102" stroke="#007BFF" stroke-opacity="0.5" stroke-linecap="round" stroke-linejoin="round"/>
<path d="M219.689 200.047C219.097 201.277 217.818 203.299 217.818 204.852C217.818 205.735 217.875 206.672 217.813 207.568C217.74 208.634 216.908 210.015 216.41 210.932C216.245 211.236 216.03 211.471 215.928 211.801C215.801 212.213 215.892 212.238 215.607 211.782" stroke="#007BFF" stroke-opacity="0.5" stroke-linecap="round" stroke-linejoin="round"/>
<path d="M213.566 210.507C215.014 211.543 217.571 213.657 219.349 211.829C219.626 211.544 220.026 210.936 220.18 210.573C220.39 210.076 219.71 210.498 219.263 210.592" stroke="#007BFF" stroke-opacity="0.5" stroke-linecap="round" stroke-linejoin="round"/>
<path d="M215.267 208.976C216.093 208.95 217.762 209.173 218.564 208.759C218.591 208.745 218.503 208.768 218.479 208.787C218.4 208.85 218.236 208.747 218.158 208.721" stroke="#007BFF" stroke-opacity="0.5" stroke-linecap="round" stroke-linejoin="round"/>
<path d="M216.202 205.83C216.808 205.99 219.001 206.924 219.093 205.915" stroke="#007BFF" stroke-opacity="0.5" stroke-linecap="round" stroke-linejoin="round"/>
<path d="M217.223 203.279C217.974 203.769 221.023 206.04 220.539 203.619" stroke="#007BFF" stroke-opacity="0.5" stroke-linecap="round" stroke-linejoin="round"/>
<path d="M218.073 202.088C218.838 202.287 219.603 202.485 220.369 202.683" stroke="#007BFF" stroke-opacity="0.5" stroke-linecap="round" stroke-linejoin="round"/>
<path d="M221.814 202.088C222.761 202.98 224.65 205.054 224.706 206.614C224.751 207.886 224.706 209.116 224.706 210.403C224.706 211.339 224.884 212.338 224.791 213.228C224.668 214.396 222.874 214.411 223.303 215.783C223.446 216.242 223.321 216.513 223.723 216.842C224.07 217.125 224.322 217.455 224.45 217.905C224.751 218.955 224.153 219.903 223.43 220.626C222.978 221.078 222.391 221.987 221.857 222.284C221.593 222.43 221.054 222.326 220.751 222.326C220.471 222.326 219.904 222.509 219.651 222.624C219.278 222.794 218.802 222.494 218.328 222.667" stroke="#007BFF" stroke-opacity="0.5" stroke-linecap="round" stroke-linejoin="round"/>
<path d="M208.549 207.02C208.892 208.159 209.147 209.106 209.721 210.081C209.956 210.482 209.924 210.846 209.82 211.314C209.699 211.859 209.301 213.136 209.612 213.695C210.09 214.555 210.08 215.465 210.08 216.417C210.08 217.334 211.513 217.732 211.984 218.202C212.682 218.901 212.379 219.792 213.528 220.097C213.78 220.163 214.173 220.167 214.369 220.328C214.518 220.45 214.693 220.755 214.889 220.791C215.294 220.865 215.836 220.784 216.202 220.947C216.508 221.083 216.731 221.279 217.01 221.434C217.317 221.604 217.738 221.412 218.073 221.58C219.216 222.152 218.706 221.608 217.903 220.966" stroke="#007BFF" stroke-opacity="0.5" stroke-linecap="round" stroke-linejoin="round"/>
<path d="M123.926 164.311C121.654 167.219 111.898 178.853 120.211 181.486C122.791 182.303 126.148 180.424 128.929 180.696C132.861 181.079 135.072 184.422 136.039 187.893C137.153 191.89 131.007 198.998 133.962 201.147C139.022 204.827 146.31 198.604 150.492 203.546C152.862 206.347 150.37 210.417 151.838 203.809" stroke="#007BFF" stroke-opacity="0.5" stroke-linecap="round" stroke-linejoin="round"/>
<path d="M238.041 119.02C240.231 121.922 245.443 128.459 247.404 132.186C249.072 135.359 246.969 135.232 245.18 133.971C243.04 132.464 243.341 129.258 243.951 127.037C246.013 119.541 259.356 112.649 260.862 124.17C261.391 128.217 257.774 135.021 252.846 133.415C246.339 131.295 246.754 121.365 251.675 117.675C256.709 113.899 264.958 118.237 264.958 124.404C264.958 131.25 256.821 133.37 253.665 127.33C250.796 121.84 255.879 116.097 261.33 115.275C263.335 114.973 268.514 117.289 264.9 118.494" stroke="#007BFF" stroke-opacity="0.5" stroke-linecap="round" stroke-linejoin="round"/>
<path d="M348.108 171.158C344.698 174.546 333.921 182.447 342.988 185.523C348.264 187.313 353.148 184.379 356.418 180.374C360.025 175.955 360.637 168.966 354.896 166.096C350.431 163.864 346.584 160.278 342.842 165.891" stroke="#007BFF" stroke-opacity="0.5" stroke-linecap="round" stroke-linejoin="round"/>
<path d="M464.496 217.502C457.984 221.381 448.096 226.066 458.176 229.732C459.726 230.295 460.734 229.928 462.097 228.971C467.136 225.43 467.432 224.012 467.129 218.555C466.929 214.942 461.645 215.768 459.23 216.975C455.667 218.756 453.183 222.321 451.74 225.928C449.798 230.782 459.835 230.485 461.219 224.641C462.087 220.977 457.896 215.773 455.017 220.252C451.201 226.187 457.023 231.494 460.693 225.285C464.207 219.337 455.995 216.884 453.788 223.822C450.885 232.944 468.139 223.039 461.863 219.901C458.122 218.031 451.805 229.908 458.703 226.952C467.078 223.363 457.708 218.073 457.708 226.455C457.708 233.257 468.958 223.385 461.629 220.72C459.953 220.111 458.299 225.466 459.493 226.66C461.569 228.736 465.178 223.359 464.993 221.423C464.202 213.112 456.066 234.241 465.754 224.553C467.967 222.34 467.876 218.34 464.203 220.691C462.036 222.078 460.665 227.966 464.759 226.601C468.692 225.29 468.691 218.007 464.467 219.696C461.889 220.728 460.955 224.377 458.176 223.822" stroke="#007BFF" stroke-opacity="0.5" stroke-linecap="round" stroke-linejoin="round"/>
<path d="M407.619 271.746C406.532 272.946 389.179 294.357 397.905 283.449C399.901 280.954 401.734 278.5 404.459 276.749C406.138 275.669 407.756 275.003 409.199 273.56C410.775 271.983 408.54 272.087 408.175 275.374C407.857 278.236 408.1 290.733 407.619 290.705C404.366 290.514 402.233 287.312 399.222 286.258C397.609 285.693 392.826 286.506 394.16 285.438C397.422 282.829 407.413 275.346 404.459 278.3C402.221 280.537 397.622 288.947 399.193 286.199C400.309 284.245 403.328 277.879 402.879 278.943C401.953 281.136 400.342 284.893 400.48 287.311C400.611 289.606 405.17 283.958 405.454 283.39C407.567 279.164 403.195 288.668 404.752 286.404C406.154 284.364 410.894 279.179 407.502 284.268C406.759 285.382 411.016 280.244 410.252 281.342C410.03 281.661 408.101 284.898 409.228 283.771C413.266 279.733 407.316 283.931 406.565 282.805" stroke="#007BFF" stroke-opacity="0.5" stroke-linecap="round" stroke-linejoin="round"/>
<path d="M372.334 359.168C374.177 356.543 384.712 344.961 376.05 344.451C374.586 344.365 371.567 343.89 370.344 344.89C367.437 347.269 368.698 353.685 372.627 354.399C377.837 355.346 382.719 348.222 377.074 345.475C371.176 342.606 357.254 354.131 363.264 358.875C375.097 368.217 385.797 341.07 370.491 344.978C356.607 348.523 368.838 362.823 375.143 353.609C381.893 343.744 361.079 343.659 364.756 354.692C366.57 360.133 372.523 357.507 373.592 353.112C375.159 346.668 368.751 349.329 368.648 353.785C368.536 358.56 375.894 349.92 371.486 350.303C368.3 350.58 367.985 354.955 365.488 354.955" stroke="#007BFF" stroke-opacity="0.5" stroke-linecap="round" stroke-linejoin="round"/>
<path d="M162.732 309.664C163.795 314.489 165.891 329.088 165.891 324.146C165.891 320.735 163.286 317.552 162.761 314.14C162.577 312.948 162.956 309.422 161.942 308.611C161.248 308.056 167.806 313.16 169.549 314.14C172.729 315.929 175.009 319.271 177.77 315.72C179.096 314.016 182.996 313.78 183.534 313.35C187.433 310.231 187.076 305.575 187.981 301.501C188.304 300.048 187.484 306.462 187.484 308.347C187.484 310.759 187.919 313.953 188.566 316.218C189.485 319.434 189.117 310.357 188.244 308.611C186.826 305.774 186.957 303.257 186.957 300.184C186.957 298.971 195.761 314.179 194.213 315.34C193.566 315.825 184.945 313.447 182.334 314.287C180.085 315.01 178.031 315.853 175.898 316.92C175.314 317.211 174.352 318.273 174.727 317.973C176.064 316.903 180.155 313.979 178.531 314.521C176.299 315.265 174.108 317.424 172.094 318.617C168.298 320.866 167.07 320.552 165.482 324.41C165.253 324.966 168.086 324.895 168.642 325.053C172.627 326.192 175.132 323.088 178.648 321.66C183.186 319.816 188.403 316.03 193.277 315.457C196.955 315.024 191.362 313.734 191.17 313.35" stroke="#007BFF" stroke-opacity="0.5" stroke-linecap="round" stroke-linejoin="round"/>
<path d="M363.908 106.908C373.833 103.726 389.908 100.067 398.783 92.8056C400.393 91.488 402.887 90.2249 402.323 87.6855C400.203 78.1454 395.59 75.908 386.495 76.9186C381.45 77.4792 376.607 82.1327 371.924 84.0283C367.103 85.9798 362.279 88.5438 357.881 91.3427C353.429 94.1755 356.008 95.5788 356.008 100.471C356.008 103.161 357.615 106.908 360.484 106.908C361.792 106.908 365.541 105.855 361.83 105.855C358.918 105.855 354.397 106.296 351.795 104.918C349.808 103.866 353.73 101.795 354.662 101.671C357.991 101.227 350.848 104.483 350.127 104.714C348.645 105.188 355.476 100.011 351.678 101.232C347.561 102.555 353.671 99.0064 354.955 98.3646C356.404 97.6401 355.14 98.7871 355.481 98.189C356.028 97.2321 359.193 93.7164 356.33 96.5798C355.371 97.5385 358.494 94.9448 359.548 94.0929C361.535 92.4886 359.014 94.9227 358.524 95.3218C356.265 97.1605 355.736 95.6768 353.901 96.4921C353.135 96.8329 351.268 97.9632 351.268 96.6384C351.268 94.3526 359.333 93.3114 360.806 93.2445C369.827 92.8344 376.14 88.8553 384.447 86.7785C388.444 85.7791 392.813 84.3398 396.559 82.5654C399.338 81.2494 404.903 77.1292 407.853 77.9719C409.012 78.3031 391.129 88.7084 396.267 85.3156C400.517 82.5091 405.39 80.5383 399.017 85.813C393.911 90.0386 402.893 85.1166 403.61 85.4034C404.898 85.9185 395.681 91.183 402.703 87.9488C405.389 86.7119 407.619 86.6508 407.619 83.7357C407.619 79.7787 408.701 75.0887 403.669 76.9186C397.862 79.0303 393.201 83.5438 387.197 85.3156C383.058 86.537 379.025 88.0795 374.967 89.5287C370.258 91.2104 361.735 93.0908 358.378 97.1943C356.589 99.3811 353.402 107.904 359.987 104.216C366.028 100.833 366.989 93.9889 370.227 88.5925C371.836 85.9121 367.425 94.2537 366.775 97.3113C366.028 100.828 369.337 104.875 373.124 104.216C377.278 103.494 381.647 97.7573 383.13 94.2685C390.257 77.4999 377.33 93.7638 380.994 97.4283C384.883 101.317 390.809 91.0151 391.585 88.4755C392.52 85.4154 393.07 81.6434 394.189 78.7326C395.641 74.9575 386.371 79.2093 385.5 79.6396C380.678 82.0227 377.311 85.2016 374.031 89.4117C372.843 90.9356 368.077 98.1087 371.339 99.7397C375.711 101.925 381.077 95.1316 381.199 91.606C381.611 79.663 371.777 85.7839 365.839 90.465C362.169 93.3575 365.357 99.1387 366.014 98.4816" stroke="#007BFF" stroke-opacity="0.5" stroke-linecap="round" stroke-linejoin="round"/>
<path d="M230.668 392.346C230.439 392.529 221.774 400.003 221.774 397.876C221.774 396.63 222.733 395.296 223.588 394.482C225.278 392.872 231.954 391.634 230.346 395.565C229.268 398.201 224.86 402.087 223.617 397.115C223.101 395.051 226.644 390.908 228.796 392.668C231.168 394.609 226.068 397.082 224.465 396.208C221.604 394.647 225.04 389.09 227.801 390.24C230.688 391.443 226.717 394.731 225.402 395.389C222.326 396.927 222.756 394.441 221.189 392.873" stroke="#007BFF" stroke-opacity="0.5" stroke-linecap="round" stroke-linejoin="round"/>
<path d="M87.9489 391.82C90.9847 396.822 96.7666 402.013 90.8747 406.566C89.3549 407.74 80.39 412.435 80.927 406.975C81.581 400.326 91.49 400.178 92.1035 394.219C92.7102 388.325 78.6349 390.546 75.4266 386.553C73.4167 384.052 71.7959 378.509 72.2667 375.318C72.4501 374.075 75.6018 371.663 75.2803 373.914C74.6917 378.034 61.4067 388.588 69.2825 392.054C74.5628 394.377 75.9251 388.494 79.8152 387.08C87.8283 384.166 75.8362 405.777 75.8362 400.246" stroke="#007BFF" stroke-opacity="0.5" stroke-linecap="round" stroke-linejoin="round"/>
<path d="M346.002 460.283C343.563 466.054 338.629 483.84 338.629 477.574C338.629 476.597 338.818 475.825 339.156 474.912C340.741 470.621 342.577 466.628 345.241 462.857C346.696 460.799 348.429 454.772 350.508 459.346C351.478 461.48 354.253 467.422 353.082 469.762C351.614 472.7 347.054 474.385 344.013 474.502C343.22 474.532 334.913 475.624 337.605 473.156C340.769 470.256 343.83 461.436 348.606 460.839C349.343 460.746 350.884 461.239 351.532 461.599C352.673 462.233 351.283 463.378 350.742 464.262C350.093 465.322 344.959 472.483 344.949 472.161C344.803 467.362 349.727 460.395 352.38 456.772C353.332 455.473 348.269 464.291 347.114 466.281C346.22 467.82 347.386 471.092 343.369 470.289" stroke="#007BFF" stroke-opacity="0.5" stroke-linecap="round" stroke-linejoin="round"/>
<path d="M182.744 36.8648C180.394 46.0569 178.301 54.8151 177.448 64.1915C177.363 65.1294 176.77 65.7358 177.36 66.4736C178.239 67.5717 180.562 60.5897 181.457 58.7203C184.29 52.7949 187.484 50.4566 187.484 43.1844C187.484 42.1351 187.484 36.0956 187.484 40.0831C187.484 43.4685 188.125 46.8144 187.893 50.2063C187.718 52.77 185.257 59.6889 187.074 57.8718C189.879 55.0672 187.632 41.0049 183.241 40.639C177.248 40.1396 174.359 53.129 173.674 57.1696C172.877 61.8708 176.192 63.839 179.847 60.1832C184.837 55.1934 185.919 44.9347 181.632 39.0884C175.742 31.0564 171.877 45.5488 171.392 49.0945C170.295 57.1151 174.775 59.6853 180.081 53.9806C182.033 51.8824 185.968 48.2543 185.143 44.9984C184.045 40.6676 177.644 44.8731 176.366 46.7539C174.553 49.4209 174.577 56.064 177.507 57.9596C180.242 59.7295 182.904 52.3957 182.598 50.5574C181.298 42.7611 166.602 55.1374 173.908 59.5688C180.267 63.4256 184.482 46.1709 176.658 48.3046C174.48 48.8987 169.305 54.7705 173.791 54.7705" stroke="#007BFF" stroke-opacity="0.5" stroke-linecap="round" stroke-linejoin="round"/>
<path d="M43.1844 186.957C40.8179 193.662 39.1142 197.942 33.1198 201.703C31.6147 202.647 29.6257 204.318 29.3163 206.209C28.6552 210.249 35.0278 214.701 38.6495 213.494C46.2807 210.95 34.733 203.397 33.5001 201.205C31.3535 197.389 39.1119 190.534 42.687 192.545C45.4699 194.111 46.7036 199.566 45.0569 202.229C42.6581 206.11 37.5021 206.263 33.4709 205.653C30.2604 205.166 23.8296 205.828 25.7176 210.597C28.08 216.565 39.2299 213.437 40.9023 208.374C42.5306 203.444 33.7155 201.586 35.6067 196.963C36.9057 193.788 41.0073 189.824 44.6473 189.824C49.0074 189.824 44.6532 197.969 44.0036 199.245C41.1353 204.883 36.7467 205.445 31.1888 206.969C20.7281 209.837 31.9973 210.241 32.6516 206.969" stroke="#007BFF" stroke-opacity="0.5" stroke-linecap="round" stroke-linejoin="round"/>
<path d="M30.545 259.107C29.427 263.316 26.1217 270.501 26.4489 275.081C26.6022 277.228 27.1885 270.84 27.4436 268.703C27.9297 264.632 28.4858 260.034 30.662 256.473C31.0482 255.841 39.9802 266.991 40.7852 268.82C42.9395 273.716 40.2423 272.784 36.8646 274.379C34.9874 275.266 22.1772 279.787 22.1772 278.592C22.1772 277.34 24.5923 274.795 25.1615 273.735C26.9434 270.42 28.8551 266.258 29.6087 262.559C31.2182 254.658 30.0183 270.917 30.0183 272.155C30.0183 272.907 30.3104 277.305 28.5554 277.305C26.359 277.305 30.0403 273.171 30.779 271.102C31.5624 268.909 34.6807 262.444 33.9096 260.131C32.8175 256.854 32.2711 266.89 32.1541 270.341C32.0748 272.681 30.9428 276.586 32.7685 272.799C33.3503 271.592 35.2283 266.645 35.1969 267.006C34.9322 270.051 33.7048 273.19 33.7048 276.252C33.7048 279.385 35.3578 269.298 38.2105 268.001C38.9198 267.678 37.9179 273.625 37.9179 274.496C37.9179 276.081 39.4393 268.405 39.4393 269.99C39.4393 270.432 38.8081 273.103 38.3275 272.272C36.358 268.871 34.8762 266.768 30.8375 265.543C28.9982 264.985 23.1516 265.368 25.0738 265.368C26.3372 265.368 28.3215 260.971 29.7257 262.12C31.5888 263.644 29.0319 268.51 28.4384 270.166C27.4666 272.877 26.8581 269.064 29.2576 269.347C31.7578 269.641 29.207 278.873 30.6035 276.778C31.2516 275.806 33.2148 271.01 33.1489 271.57C31.8741 282.406 32.1394 268.608 34.2314 271.746" stroke="#007BFF" stroke-opacity="0.5" stroke-linecap="round" stroke-linejoin="round"/>
<path d="M291.232 115.861C297.932 115.53 304.403 118.007 303.344 110.068C302.82 106.134 300.615 99.7021 301.764 95.8484C302.985 91.7569 310.476 82.5299 304.076 79.6396C298.709 77.2159 291.695 84.0698 290.705 88.7095C290.293 90.6392 290.381 96.6676 293.572 96.6676C295.984 96.6676 297.524 94.2999 299.629 96.4043C302.38 99.1553 302.871 101.665 300.916 105.123C296.224 113.424 277.661 104.152 287.662 94.1514C289.033 92.7806 294.455 86.4939 297.025 88.2999C300.56 90.7844 300.082 97.2529 298.254 100.471C296.43 103.68 289.738 107.041 287.106 102.929C285.806 100.897 286.428 99.5348 288.598 99.5348" stroke="#007BFF" stroke-opacity="0.5" stroke-linecap="round" stroke-linejoin="round"/>
<path d="M347.337 165.146C347.955 164.896 367.221 155.385 366.325 160.611C365.844 163.415 366.165 166.031 366.559 168.832C366.71 169.904 369.321 178.253 366.705 178.253C361.831 178.253 357.073 175.805 352.193 176.732C350.17 177.116 346.141 178.502 345.991 175.269C345.878 172.844 343.864 161.945 348.653 163.01C352.601 163.887 352.772 160.754 349.97 167.72C349.572 168.709 346.957 176.14 347.395 175.795C351.776 172.353 354.179 165.735 358.191 161.722C360.697 159.217 356.402 169.273 355.88 170.529C353.214 176.947 360.028 165.09 360.795 163.917C364.163 158.766 361.606 167.987 361.088 169.505C359.53 174.068 364.319 165.548 366.237 164.414C372.593 160.658 366.588 173.63 365.242 170.939" stroke="#007BFF" stroke-opacity="0.5" stroke-linecap="round" stroke-linejoin="round"/>
<path d="M295.445 264.373C295.747 272.114 295.612 276.337 302.174 271.453C304.036 270.068 303.245 273.346 302.788 274.145C302.026 275.48 297.555 282.189 302.057 279.616C303.197 278.965 306.27 277.665 306.27 280.172C306.27 280.568 304.892 285.412 306.241 284.063C308.451 281.853 308.491 273.521 308.611 270.283C308.637 269.576 308.946 268.754 308.318 269.113C305.09 270.957 303.557 280.615 301.881 284.385C300.435 287.64 296.264 283.805 293.865 282.279C289.318 279.385 292.177 281.44 292.285 281.225" stroke="#007BFF" stroke-opacity="0.5" stroke-linecap="round" stroke-linejoin="round"/>
<path d="M259.107 333.363C259.087 333.608 258.469 348.726 258.58 341.379C258.614 339.137 258.549 336.893 258.58 334.65C258.667 328.281 259.804 331.236 262.559 333.86C263.822 335.063 268.457 337.66 267.708 340.092C267.488 340.809 260.048 342.104 258.872 342.55C257.991 342.884 252.787 346.161 252.787 346.002C252.787 342.089 254.165 337.854 254.63 333.948C255.615 325.677 261.338 347.818 261.71 342.228C261.798 340.912 261.74 333.077 261.74 335.031C261.74 336.485 262.793 344.241 262.793 339.156C262.793 338.005 262.793 336.854 262.793 335.703C262.793 335.161 263.089 337.758 263.29 337.254C264.02 335.43 262.793 331.762 262.793 336.23C262.793 341.246 261.387 337.634 258.317 337.634C255.69 337.634 254.186 347.26 255.537 345.007C256.721 343.035 254.389 335.002 255.42 339.127C255.96 341.286 257.257 338.899 258.053 338.103" stroke="#007BFF" stroke-opacity="0.5" stroke-linecap="round" stroke-linejoin="round"/>
<path d="M289 148C292.351 146.016 295.544 144.431 299 143" stroke="#007BFF" stroke-opacity="0.5" stroke-width="2" stroke-linecap="round" stroke-linejoin="round"/>
<path d="M301 147C304.351 145.016 307.544 143.431 311 142" stroke="#007BFF" stroke-opacity="0.5" stroke-width="2" stroke-linecap="round" stroke-linejoin="round"/>
<path d="M328.061 127.831C329.698 132.169 321.639 143.298 315.241 141.472C311.089 140.287 309.546 137.305 306.701 134.564C299.952 128.064 314.08 118.181 306.728 121.374" stroke="#007BFF" stroke-opacity="0.5" stroke-width="2" stroke-linecap="round" stroke-linejoin="round"/>
<path d="M321.358 105.409C318.25 106.583 311.412 120.676 312.361 116.168" stroke="#007BFF" stroke-opacity="0.5" stroke-width="2" stroke-linecap="round" stroke-linejoin="round"/>
<path d="M318 113.097C324.022 116.531 329.438 120.052 335 124.097" stroke="#007BFF" stroke-opacity="0.5" stroke-width="2" stroke-linecap="round" stroke-linejoin="round"/>
</svg>
