<svg width="77" height="90" viewBox="0 0 77 90" fill="none" xmlns="http://www.w3.org/2000/svg">
<path d="M60.283 13.9774C59.6952 13.0774 54.4411 12.3211 48.42 12.1446C39.0557 11.8998 37.4743 12.2609 36.9196 14.1638C35.333 18.933 37.5338 20.0043 48.4795 19.8881C60.349 19.5834 63.3391 18.2036 60.283 13.9774Z" fill="#fff"/>
<path d="M42.8011 42.7225C31.2635 35.127 27.7238 34.0017 27.977 38.2608C28.0798 39.9911 32.0201 43.3633 39.8059 48.5104C46.3383 52.7971 52.0169 56.1996 52.6824 56.16C53.2148 56.1284 53.6601 54.6326 53.5573 52.9024C53.4149 50.5066 50.7279 47.9949 42.8011 42.7225Z" fill="#fff"/>
<path d="M28.4901 66.0513C22.4319 56.2601 15.247 47.738 13.8383 48.7567C11.4043 50.5042 12.8474 54.5591 19.0769 62.7372C22.423 67.3468 26.051 72.2068 27.0776 73.7486C28.1042 75.2905 29.3812 76.5503 30.0467 76.5107C32.8418 76.3446 32.1814 71.9761 28.4901 66.0513Z" fill="#fff"/>
</svg>
