<?xml version="1.0" encoding="UTF-8"?>
<svg version="1.1" viewBox="0 0 2048 1793" width="300" height="100" xmlns="http://www.w3.org/2000/svg">
<path transform="translate(0)" d="m0 0h2048v1793h-2048z" fill="none"/>
<path transform="translate(1088,517)" d="m0 0h12v28l-5 217-6 274-2 91-2 26-4 27-6 25-6 17-10 21-8 12-8 10-15 15-16 11-14 7-27 9-17 3-10 1h-32l-23-5-17-7-17-10-14-11-11-10-7-8-12-14-12-18-11-18-11-21-12-28-10-27-8-25-10-37-16-71-15-65-14-55-13-44-12-38-13-35-11-26-12-25-9-17-14-22-5-7 11 29 16 49 16 53 8 28 6 36 4 40 3 45 2 59v58l-1 35-3 43-3 26-5 24-7 23-8 18-8 15-9 12-11 12-13 11-13 8-12 6-24 8-22 4-9 1-28 1v-641l2-17 5-23 7-21 10-20 10-14 9-10 10-10 13-10 16-9 17-7 24-7 20-3 12-1h27l12 3 16 8 12 9 13 12 9 10 14 19 17 28 15 29 12 25 15 36 15 39 13 37 19 57 21 68 16 54 15 50 14 45 12 36 7 20 12 29 12 23 8 10h2l-6-13-16-49-11-39-12-46-7-34-5-44-4-56-1-25v-99l2-41 4-53 5-51 3-16 5-15 7-13 8-10 8-9 10-8 15-9 21-8 21-5 21-3 13-1z"/>
<path transform="translate(1456,518)" d="m0 0h104l104 1v153h-187l-29-3-22-5-21-7-16-8-14-8-11-9-10-9-10-11-10-15-8-17-5-17-4-23v302h331v144h-166l-24-2-27-6-19-7-23-11-14-9-10-8-13-12-11-13-10-16-8-16-5-15-1-1v276l-2 23-6 24-10 24-8 14-10 14-13 15-12 11-13 10-17 10-19 9-15 5-24 5-9 1h-23v-628l2-19 4-18 7-21 10-20 10-15 8-10 12-13 12-11 17-12 21-11 20-7 15-4 12-2 11-1z"/>
</svg>
