<svg width="151" height="119" viewBox="0 0 151 119" fill="none" xmlns="http://www.w3.org/2000/svg">
<path d="M74.2175 68.1043C74.2175 81.9859 72.6363 94.5165 70.1008 103.545C68.8311 108.067 67.3377 111.653 65.7224 114.086C64.0816 116.557 62.4776 117.608 61.035 117.608C59.5925 117.608 57.9884 116.557 56.3477 114.086C54.7324 111.653 53.2389 108.067 51.9693 103.545C49.4338 94.5165 47.8525 81.9859 47.8525 68.1043C47.8525 54.2227 49.4338 41.6921 51.9693 32.6633C53.2389 28.1419 54.7324 24.5556 56.3477 22.1227C57.9884 19.6514 59.5925 18.6008 61.035 18.6008C62.4776 18.6008 64.0816 19.6514 65.7224 22.1227C67.3377 24.5556 68.8311 28.1419 70.1008 32.6633C72.6363 41.6921 74.2175 54.2227 74.2175 68.1043Z" stroke="white" stroke-width="2"/>
<path d="M86.1561 65.7057C70.2969 77.633 55.0086 87.1485 43.1238 92.8953C37.1738 95.7724 32.1241 97.6818 28.3062 98.4919C26.3943 98.8977 24.8492 99.0148 23.6808 98.8723C22.5137 98.73 21.8379 98.3462 21.4715 97.8591C21.1051 97.3719 20.9239 96.6162 21.111 95.4554C21.2983 94.2933 21.8395 92.8413 22.7598 91.1171C24.5974 87.6739 27.8327 83.3521 32.2477 78.434C41.0664 68.6102 54.4499 56.5621 70.3091 44.6347C86.1683 32.7073 101.457 23.1919 113.341 17.445C119.291 14.5679 124.341 12.6586 128.159 11.8485C130.071 11.4427 131.616 11.3256 132.784 11.4681C133.952 11.6104 134.627 11.9941 134.994 12.4813C135.36 12.9685 135.541 13.7242 135.354 14.885C135.167 16.0471 134.626 17.4991 133.705 19.2233C131.868 22.6665 128.632 26.9883 124.218 31.9064C115.399 41.7302 102.015 53.7783 86.1561 65.7057Z" stroke="white" stroke-width="2"/>
<path d="M84.7598 44.6541C102.73 53.0016 117.882 62.8672 127.856 72.0423C132.847 76.634 136.498 81.0132 138.572 84.9038C140.655 88.8127 141.056 92.0457 139.912 94.5088C138.768 96.9719 136.039 98.7507 131.708 99.6801C127.397 100.605 121.696 100.64 114.968 99.7878C101.523 98.0846 84.2105 92.8696 66.2403 84.522C48.27 76.1745 33.1178 66.3089 23.144 57.1338C18.1527 52.5422 14.5017 48.1629 12.4283 44.2724C10.3451 40.3634 9.94379 37.1304 11.088 34.6673C12.2321 32.2042 14.9615 30.4255 19.2923 29.496C23.6026 28.5709 29.3041 28.536 36.0324 29.3883C49.477 31.0915 66.7895 36.3065 84.7598 44.6541Z" stroke="white" stroke-width="2"/>
<path d="M63.1976 66.3748C63.1976 68.3771 61.7073 69.8716 60.0219 69.8716C58.3365 69.8716 56.8462 68.3771 56.8462 66.3748C56.8462 64.3724 58.3365 62.8779 60.0219 62.8779C61.7073 62.8779 63.1976 64.3724 63.1976 66.3748Z" stroke="white" stroke-width="2"/>
</svg>
