<svg width="531" height="166" viewBox="0 0 531 166" fill="none" xmlns="http://www.w3.org/2000/svg">
<path d="M35.32 69L21.304 43.56H17.368V69H0.952V1.608H28.504C33.816 1.608 38.328 2.536 42.04 4.392C45.816 6.248 48.632 8.80799 50.488 12.072C52.344 15.272 53.272 18.856 53.272 22.824C53.272 27.304 51.992 31.304 49.432 34.824C46.936 38.344 43.224 40.84 38.296 42.312L53.848 69H35.32ZM17.368 31.944H27.544C30.552 31.944 32.792 31.208 34.264 29.736C35.8 28.264 36.568 26.184 36.568 23.496C36.568 20.936 35.8 18.92 34.264 17.448C32.792 15.976 30.552 15.24 27.544 15.24H17.368V31.944ZM79.993 14.76V28.392H101.977V41.064H79.993V55.848H104.857V69H63.577V1.608H104.857V14.76H79.993ZM157.467 57.096H132.315L128.283 69H111.099L135.483 1.608H154.491L178.875 69H161.499L157.467 57.096ZM153.243 44.424L144.891 19.752L136.635 44.424H153.243ZM183.512 35.208C183.512 28.552 184.952 22.632 187.832 17.448C190.712 12.2 194.712 8.136 199.832 5.256C205.016 2.312 210.872 0.839996 217.4 0.839996C225.4 0.839996 232.248 2.952 237.944 7.17599C243.64 11.4 247.448 17.16 249.368 24.456H231.32C229.976 21.64 228.056 19.496 225.56 18.024C223.128 16.552 220.344 15.816 217.208 15.816C212.152 15.816 208.056 17.576 204.92 21.096C201.784 24.616 200.216 29.32 200.216 35.208C200.216 41.096 201.784 45.8 204.92 49.32C208.056 52.84 212.152 54.6 217.208 54.6C220.344 54.6 223.128 53.864 225.56 52.392C228.056 50.92 229.976 48.776 231.32 45.96H249.368C247.448 53.256 243.64 59.016 237.944 63.24C232.248 67.4 225.4 69.48 217.4 69.48C210.872 69.48 205.016 68.04 199.832 65.16C194.712 62.216 190.712 58.152 187.832 52.968C184.952 47.784 183.512 41.864 183.512 35.208ZM307.901 1.608V14.76H290.045V69H273.629V14.76H255.773V1.608H307.901ZM358.38 1.608V47.496C358.38 54.6 356.364 60.072 352.332 63.912C348.364 67.752 342.988 69.672 336.204 69.672C329.1 69.672 323.404 67.656 319.116 63.624C314.828 59.592 312.684 53.864 312.684 46.44H329.004C329.004 49.256 329.58 51.4 330.732 52.872C331.884 54.28 333.548 54.984 335.724 54.984C337.708 54.984 339.244 54.344 340.332 53.064C341.42 51.784 341.964 49.928 341.964 47.496V1.608H358.38ZM396.024 69.672C391.096 69.672 386.68 68.872 382.776 67.272C378.872 65.672 375.736 63.304 373.368 60.168C371.064 57.032 369.848 53.256 369.72 48.84H387.192C387.448 51.336 388.312 53.256 389.784 54.6C391.256 55.88 393.176 56.52 395.544 56.52C397.976 56.52 399.896 55.976 401.304 54.888C402.712 53.736 403.416 52.168 403.416 50.184C403.416 48.52 402.84 47.144 401.688 46.056C400.6 44.968 399.224 44.072 397.56 43.368C395.96 42.664 393.656 41.864 390.648 40.968C386.296 39.624 382.744 38.28 379.992 36.936C377.24 35.592 374.872 33.608 372.888 30.984C370.904 28.36 369.912 24.936 369.912 20.712C369.912 14.44 372.184 9.544 376.728 6.024C381.272 2.44 387.192 0.647999 394.488 0.647999C401.912 0.647999 407.896 2.44 412.44 6.024C416.984 9.544 419.416 14.472 419.736 20.808H401.976C401.848 18.632 401.048 16.936 399.576 15.72C398.104 14.44 396.216 13.8 393.911 13.8C391.928 13.8 390.328 14.344 389.112 15.432C387.896 16.456 387.288 17.96 387.288 19.944C387.288 22.12 388.312 23.816 390.359 25.032C392.408 26.248 395.608 27.56 399.96 28.968C404.312 30.44 407.832 31.848 410.52 33.192C413.272 34.536 415.64 36.488 417.624 39.048C419.608 41.608 420.6 44.904 420.6 48.936C420.6 52.776 419.608 56.264 417.624 59.4C415.704 62.536 412.888 65.032 409.176 66.888C405.464 68.744 401.08 69.672 396.024 69.672ZM26.2 97.608C33.304 97.608 39.512 99.016 44.824 101.832C50.136 104.648 54.232 108.616 57.112 113.736C60.056 118.792 61.528 124.648 61.528 131.304C61.528 137.896 60.056 143.752 57.112 148.872C54.232 153.992 50.104 157.96 44.728 160.776C39.416 163.592 33.24 165 26.2 165H0.952V97.608H26.2ZM25.144 150.792C31.352 150.792 36.184 149.096 39.64 145.704C43.096 142.312 44.824 137.512 44.824 131.304C44.824 125.096 43.096 120.264 39.64 116.808C36.184 113.352 31.352 111.624 25.144 111.624H17.368V150.792H25.144ZM87.118 110.76V124.392H109.102V137.064H87.118V151.848H111.982V165H70.702V97.608H111.982V110.76H87.118ZM185.904 97.608L162 165H141.456L117.552 97.608H135.024L151.728 148.488L168.528 97.608H185.904ZM209.181 110.76V124.392H231.165V137.064H209.181V151.848H234.045V165H192.765V97.608H234.045V110.76H209.181ZM261.118 152.328H282.622V165H244.702V97.608H261.118V152.328ZM322.324 165.672C315.988 165.672 310.164 164.2 304.852 161.256C299.604 158.312 295.412 154.216 292.276 148.968C289.204 143.656 287.668 137.704 287.668 131.112C287.668 124.52 289.204 118.6 292.276 113.352C295.412 108.104 299.604 104.008 304.852 101.064C310.164 98.12 315.988 96.648 322.324 96.648C328.66 96.648 334.452 98.12 339.7 101.064C345.012 104.008 349.172 108.104 352.18 113.352C355.252 118.6 356.788 124.52 356.788 131.112C356.788 137.704 355.252 143.656 352.18 148.968C349.108 154.216 344.948 158.312 339.7 161.256C334.452 164.2 328.66 165.672 322.324 165.672ZM322.324 150.696C327.7 150.696 331.988 148.904 335.188 145.32C338.452 141.736 340.084 137 340.084 131.112C340.084 125.16 338.452 120.424 335.188 116.904C331.988 113.32 327.7 111.528 322.324 111.528C316.884 111.528 312.532 113.288 309.268 116.808C306.068 120.328 304.468 125.096 304.468 131.112C304.468 137.064 306.068 141.832 309.268 145.416C312.532 148.936 316.884 150.696 322.324 150.696ZM417.281 119.304C417.281 123.208 416.385 126.792 414.593 130.056C412.801 133.256 410.049 135.848 406.337 137.832C402.625 139.816 398.017 140.808 392.513 140.808H382.337V165H365.921V97.608H392.513C397.889 97.608 402.433 98.536 406.145 100.392C409.857 102.248 412.641 104.808 414.497 108.072C416.353 111.336 417.281 115.08 417.281 119.304ZM391.265 127.752C394.401 127.752 396.737 127.016 398.273 125.544C399.809 124.072 400.577 121.992 400.577 119.304C400.577 116.616 399.809 114.536 398.273 113.064C396.737 111.592 394.401 110.856 391.265 110.856H382.337V127.752H391.265ZM442.243 110.76V124.392H464.227V137.064H442.243V151.848H467.107V165H425.827V97.608H467.107V110.76H442.243ZM512.133 165L498.117 139.56H494.181V165H477.765V97.608H505.317C510.629 97.608 515.141 98.536 518.853 100.392C522.629 102.248 525.445 104.808 527.301 108.072C529.157 111.272 530.085 114.856 530.085 118.824C530.085 123.304 528.805 127.304 526.245 130.824C523.749 134.344 520.037 136.84 515.109 138.312L530.661 165H512.133ZM494.181 127.944H504.357C507.365 127.944 509.605 127.208 511.077 125.736C512.613 124.264 513.381 122.184 513.381 119.496C513.381 116.936 512.613 114.92 511.077 113.448C509.605 111.976 507.365 111.24 504.357 111.24H494.181V127.944Z" fill="#111827 "/>
</svg>
