<svg width="300" height="390" viewBox="0 0 563 590" fill="none" xmlns="http://www.w3.org/2000/svg">
<g filter="url(#filter0_d_1_938)">
<rect x="29" y="49.8517" width="512" height="512" fill="#333333"/>
<path d="M30.2323 36.8517C30.2323 93.9042 30.8402 116.832 30.8402 177.507M30.8402 177.507C30.8402 238.182 30.7462 348.769 30.2323 423.094C29.7184 497.419 29.3196 569.764 29.3196 569.764C29.3196 580.263 28.1955 567.874 28.2775 562.288C28.38 555.306 29.3635 356.648 29.3635 339.305C29.3635 321.963 30.2323 233.681 30.8402 177.507Z" stroke="black" stroke-width="6" stroke-miterlimit="10" stroke-linecap="round" stroke-linejoin="round"/>
<path d="M455.793 561.582C539.238 561.582 527.583 561.582 555 561.582C554.528 561.855 550.277 562.9 548.523 563.112C546.33 563.376 488.801 563.232 476.523 563.232C434.493 563.232 244.627 562.245 232.201 562.245M455.793 561.582C455.793 561.582 254.533 563.232 222.434 563.232C190.335 563.232 197.927 563.276 130.163 563.232C79.5005 563.198 18.92 563.232 14.8434 563.232C10.7667 563.232 12.271 561.253 12.271 561.253C40.7666 562.245 90.3594 562.245 155.492 562.245C177.936 562.245 204.189 562.245 232.201 562.245M455.793 561.582C394.791 561.582 308.336 562.245 232.201 562.245" stroke="black" stroke-width="6" stroke-miterlimit="10" stroke-linecap="round" stroke-linejoin="round"/>
<path d="M540.447 307.524C540.447 373.918 541.8 415.692 541.8 459.103C541.8 502.515 541.109 576.059 541.109 576.059C541.109 576.059 539.517 579.158 539.517 573.102C539.517 567.046 540.558 523.992 540.447 462.118C540.335 400.244 540.34 335.408 540.447 307.524ZM540.447 307.524C540.446 276.225 539.724 212.292 539.767 176.716C539.814 136.822 539.767 79.3728 539.767 40.8517" stroke="black" stroke-width="6" stroke-miterlimit="10" stroke-linecap="round" stroke-linejoin="round"/>
<path d="M22.9998 50.7138C52.2194 50.7138 77.7129 50.7138 92.744 50.7138M92.744 50.7138C107.775 50.7138 174.513 51.0053 202.772 51.0053M92.744 50.7138C92.744 50.7138 125.34 49.8063 144.451 49.8063C163.562 49.8063 202.772 51.0053 202.772 51.0053M560 51.0053C530.093 51.0053 543.921 50.7138 514.217 50.7138C497.285 50.7138 476.571 51.1997 446.877 51.0053M282.314 49.8063C302.864 49.8344 410.276 50.7658 446.877 51.0053M282.314 49.8063C261.061 49.7773 231.03 51.0053 202.772 51.0053M282.314 49.8063C282.314 49.8063 333.843 49.8063 362.703 49.8063M446.877 51.0053C446.877 51.0053 391.563 49.8063 362.703 49.8063M202.772 51.0053C220.092 51.0053 260.25 51.0053 282.314 51.0053C304.378 51.0053 345.1 50.206 362.703 49.8063" stroke="black" stroke-width="6" stroke-miterlimit="10" stroke-linecap="round" stroke-linejoin="round"/>
<rect x="77" y="105.852" width="416" height="400" fill="#8C8C8C" fill-opacity="0.19" stroke="black" stroke-width="4"/>
<g filter="url(#filter1_d_1_938)">
<rect x="10" y="136.852" width="90.0111" height="90.0111" rx="45.0056" fill="#007BFF" stroke="black" stroke-width="2"/>
<path fill-rule="evenodd" clip-rule="evenodd" d="M53.7978 209.417C53.7973 209.408 53.7899 209.401 53.7809 209.401C52.6103 209.371 51.4123 209.257 50.2333 208.927C49.8025 208.806 49.3623 208.687 48.9483 208.487C48.219 208.14 47.5414 207.644 47.008 207.027C46.7388 206.715 46.5081 206.401 46.3017 206.03C46.0854 205.659 45.9592 205.228 45.9088 204.796C45.8578 204.411 45.8989 204.015 45.9934 203.642C46.0959 203.267 46.2787 202.926 46.492 202.613C47.0645 201.828 48.035 201.357 48.9408 201.443C49.2249 201.461 49.1845 201.608 49.0024 201.831C48.8078 202.028 48.5454 202.429 48.2538 202.649C47.9735 202.84 47.8112 203.126 47.6303 203.343C47.463 203.58 47.3555 203.84 47.3076 204.104C47.2361 204.364 47.2231 204.643 47.2784 204.934C47.3356 205.223 47.4792 205.511 47.6744 205.851C47.9119 206.228 48.2389 206.556 48.6163 206.824C49.0005 207.085 49.4295 207.288 49.8715 207.465C50.8488 207.852 51.948 208.022 53.0583 208.092C53.744 208.131 54.4403 208.141 55.1255 208.102C56.1656 208.041 57.2144 207.912 58.1997 207.606C58.9719 207.391 59.6868 207.061 60.3688 206.686C60.5205 206.604 60.6617 206.513 60.8096 206.426C61.3592 206.1 61.5656 206.041 61.8155 206.13C61.8715 206.15 61.9355 206.161 61.9803 206.187C62.1214 206.257 62.017 206.573 61.6371 206.934C61.0707 207.46 60.4093 207.926 59.6893 208.3C59.3287 208.484 58.9582 208.663 58.5728 208.8C58.1836 208.922 57.7869 209.026 57.3872 209.106C56.207 209.355 54.9998 209.435 53.8151 209.433C53.8059 209.433 53.7983 209.426 53.7978 209.417Z" fill="#231F20"/>
<path fill-rule="evenodd" clip-rule="evenodd" d="M57.006 209.859C57.0044 209.854 56.9996 209.852 56.9949 209.853C56.3603 210.021 55.7147 210.141 55.0672 210.24C54.8279 210.272 54.5935 210.304 54.3535 210.336C53.508 210.397 52.6575 210.378 51.8195 210.261C51.4464 210.212 51.0747 210.146 50.7079 210.068C50.2428 209.95 49.7542 209.831 49.3575 209.525C49.2313 209.436 49.3314 209.321 49.5105 209.25C49.6939 209.176 49.9301 209.158 50.1664 209.233C50.992 209.543 51.8972 209.682 52.8254 209.763C53.3837 209.806 53.9674 209.744 54.535 209.662C55.1629 209.59 55.7859 209.461 56.4032 209.307C56.7837 209.216 57.1574 209.091 57.5316 208.976L58.3746 208.677C58.65 208.565 58.9236 208.446 59.1934 208.323C59.6062 208.12 59.9898 207.878 60.3896 207.664L60.6476 207.513C60.9771 207.334 61.1076 207.321 61.2357 207.375C61.2649 207.388 61.2991 207.396 61.3215 207.413C61.3955 207.464 61.3028 207.607 61.0883 207.795C60.4561 208.358 59.6932 208.822 58.8794 209.184C58.2846 209.469 57.6558 209.689 57.017 209.865C57.0124 209.866 57.0075 209.864 57.006 209.859Z" fill="#231F20"/>
<path fill-rule="evenodd" clip-rule="evenodd" d="M58.2375 213.854C58.2423 213.858 58.2491 213.858 58.2537 213.854C58.4524 213.682 58.6227 213.44 58.7792 213.187C58.8401 213.095 58.8625 212.979 58.9197 212.882C59.1149 212.53 59.2871 212.149 59.458 211.754C59.5401 211.583 59.5998 211.399 59.6669 211.217C59.7577 210.985 59.8161 210.721 60.0773 210.532C60.1519 210.473 60.2377 210.59 60.316 210.732C60.3906 210.882 60.4814 211.006 60.4577 211.126C60.3446 211.516 60.2955 212.02 60.0151 212.458C59.8634 212.724 59.8012 213.04 59.6657 213.331C59.5221 213.652 59.3294 213.961 59.1136 214.254C58.9582 214.423 58.8221 214.603 58.6331 214.744C58.4978 214.854 58.3526 214.951 58.1992 215.033L58.196 215.035C58.0468 215.131 57.8789 215.179 57.7161 215.241C57.5911 215.299 57.4661 215.338 57.3362 215.374C57.2088 215.407 57.0745 215.468 56.9427 215.479C56.8848 215.486 56.8277 215.488 56.7686 215.483C56.5504 215.455 56.4863 215.389 56.4702 215.17C56.4658 215.123 56.459 215.078 56.459 215.036C56.4596 214.903 56.5585 214.735 56.6853 214.675C57.0738 214.482 57.3629 214.419 57.6458 214.281C57.8319 214.159 58.0451 214.057 58.2196 213.856C58.2241 213.851 58.232 213.85 58.2375 213.854Z" fill="#231F20"/>
<path fill-rule="evenodd" clip-rule="evenodd" d="M48.4617 202.898C48.4565 202.891 48.4469 202.888 48.4385 202.891C48.2856 202.954 48.1067 203.025 47.9518 203.145C47.8946 203.19 47.8604 203.255 47.8032 203.301C47.5943 203.465 47.3885 203.656 47.2368 203.883C47.1809 203.982 47.1461 204.1 47.1529 204.202C47.1492 204.348 47.2014 204.427 47.0932 204.539C47.0547 204.577 46.8147 204.69 46.5467 204.718C46.2881 204.762 45.9499 204.638 45.9232 204.466C45.8529 204.159 45.9132 203.891 46.0071 203.667C46.0979 203.437 46.2384 203.249 46.4075 203.09C46.6139 202.908 46.7053 202.657 46.8856 202.464C47.0857 202.256 47.3071 202.07 47.5595 201.918C47.7074 201.819 47.8828 201.752 48.0481 201.678C48.308 201.57 48.5923 201.522 48.8731 201.501C48.8764 201.501 48.8797 201.5 48.8831 201.5C48.9968 201.498 49.1131 201.471 49.2318 201.466C49.3481 201.472 49.4712 201.478 49.5931 201.498C49.649 201.502 49.69 201.532 49.7348 201.56C49.8902 201.683 49.894 201.791 49.7827 202.013C49.7572 202.064 49.7336 202.114 49.705 202.161C49.6092 202.317 49.4656 202.427 49.3543 202.487C49.0087 202.682 48.9906 202.739 48.8445 202.773C48.7534 202.794 48.6224 202.834 48.4867 202.904C48.478 202.909 48.4673 202.906 48.4617 202.898Z" fill="#231F20"/>
<path fill-rule="evenodd" clip-rule="evenodd" d="M37.7842 192.444C37.7874 192.44 37.7874 192.435 37.7841 192.431C36.2968 190.706 34.9566 188.837 33.8849 186.813C33.6778 186.449 33.4982 186.071 33.3216 185.691C33.1345 185.316 32.966 184.934 32.8224 184.54C31.7257 181.798 31.2775 178.805 31.4963 175.878C31.5317 175.228 31.6399 174.582 31.7183 173.936C31.8575 173.301 31.9352 172.652 32.1186 172.033C32.4848 170.423 33.1102 168.823 34.0795 167.471C34.3841 167.052 34.4114 167.16 34.2635 167.576C34.1093 167.992 33.8507 168.744 33.5075 169.599C33.3558 169.979 33.2215 170.366 33.1015 170.756C32.9803 171.145 32.8982 171.554 32.7826 171.948C32.6694 172.345 32.5675 172.743 32.4997 173.15C32.4289 173.555 32.3219 173.955 32.279 174.365C32.0192 175.992 31.9999 177.653 32.1584 179.304C32.3468 181.284 32.9635 183.292 33.8239 185.137C34.7596 187.174 35.9582 189.098 37.3676 190.863C38.2237 191.958 39.1494 193.002 40.123 193.998C41.5908 195.515 43.1656 196.945 44.7708 198.299C46.0198 199.353 47.2905 200.329 48.547 201.353C48.8224 201.581 49.0996 201.793 49.3682 202.035C50.3735 202.918 50.6452 203.261 50.7447 203.568C50.7683 203.637 50.8081 203.719 50.8137 203.766C50.8298 203.928 50.381 203.617 49.6306 203.006C47.3894 201.211 44.9629 199.352 42.6564 197.314C40.9476 195.8 39.2903 194.199 37.7842 192.457C37.7809 192.453 37.7809 192.448 37.7842 192.444Z" fill="#231F20"/>
<path fill-rule="evenodd" clip-rule="evenodd" d="M34.808 166.291C34.8182 166.296 34.8302 166.293 34.8368 166.284C35.8129 164.982 36.9615 163.837 38.2143 162.832C39.5012 161.864 40.8789 161.029 42.3343 160.361C45.255 159.063 48.4431 158.355 51.6535 158.456C52.8248 158.492 53.9936 158.627 55.1238 158.852C55.6933 158.964 56.2609 159.1 56.8235 159.266C57.3862 159.428 57.9364 159.667 58.4897 159.87C60.407 160.708 62.1129 161.999 63.4732 163.557C64.8397 165.115 65.8698 166.929 66.5761 168.838C68.011 172.661 68.2864 176.81 67.7517 180.774C67.5379 182.54 67.1624 184.283 66.6986 185.992C66.2503 187.708 65.6616 189.375 65.0362 191.012C64.2298 193.116 63.2625 195.159 62.1838 197.136C61.1139 199.119 59.8978 201.018 58.578 202.83C57.7505 203.959 57.7095 203.696 58.177 202.595C58.4163 202.048 58.7545 201.275 59.1866 200.363C59.6031 199.441 60.1192 198.385 60.7085 197.259C61.7592 195.264 62.6588 193.201 63.5198 191.132C64.3629 189.054 65.0828 186.929 65.6261 184.763C66.7228 180.442 67.0616 175.902 66.0172 171.569C65.6989 170.281 65.2519 169.013 64.6625 167.806C64.0707 166.601 63.3041 165.481 62.4095 164.483C61.5118 163.489 60.4754 162.611 59.3047 161.962C58.1359 161.312 56.8944 160.814 55.5714 160.507C49.7834 159.059 43.3315 160.565 38.6955 164.371C37.2786 165.543 36.0471 166.946 35.1431 168.539C34.9404 168.949 34.7228 169.353 34.5295 169.767L34.0539 171.052C33.8164 171.948 33.569 172.844 33.4484 173.764L33.362 174.283L33.3184 174.808L33.2351 175.858L33.242 176.912L33.2476 177.438L33.2967 177.964C33.3806 179.37 33.7051 180.752 34.1043 182.103C34.5121 183.456 35.1008 184.748 35.7412 186.008C36.4114 187.255 37.1711 188.452 37.9973 189.599C40.5948 193.16 43.7928 196.119 47.0716 199.015C47.7965 199.653 48.5189 200.263 49.2407 200.927C51.9221 203.361 52.6507 204.43 52.7906 205.295C52.8211 205.493 52.854 205.741 52.8378 205.854C52.8217 205.951 52.7608 205.942 52.6563 205.854C52.5469 205.766 52.4331 205.595 52.2006 205.375C51.7735 204.929 51.0635 204.234 50.0806 203.371C47.135 200.843 43.9656 198.271 41.0666 195.297C38.1733 192.332 35.4652 188.961 33.6852 184.999C33.0219 183.535 32.5251 181.985 32.1807 180.398C31.8295 178.808 31.7399 177.164 31.7903 175.535C31.8506 173.901 32.1751 172.296 32.5985 170.73C33.0896 169.144 33.836 167.648 34.7787 166.299C34.7853 166.29 34.7975 166.287 34.808 166.291Z" fill="#231F20"/>
<path fill-rule="evenodd" clip-rule="evenodd" d="M50.9002 208.386C50.8994 208.395 50.9057 208.403 50.9149 208.405C52.4949 208.692 54.1744 208.644 55.8213 208.375C56.42 208.27 57.0268 208.104 57.6074 207.976C58.5841 207.723 59.5794 207.258 60.4877 206.719C61.3942 206.171 62.2397 205.501 62.8291 204.686C63.3258 203.951 63.442 203.07 63.0013 202.348C62.7271 201.89 62.267 201.512 61.7709 201.202C61.2642 200.903 60.724 200.632 60.1495 200.427C59.7927 200.307 59.8462 200.19 60.2136 200.086C60.5679 200.005 61.2972 199.891 62.0401 200.222C62.6885 200.512 63.327 200.905 63.8443 201.537C63.9758 201.688 64.0815 201.862 64.173 202.046C64.3673 202.438 64.4909 202.864 64.5257 203.3C64.5313 203.516 64.494 203.73 64.4716 203.945C64.3074 204.785 63.8704 205.452 63.3967 206.005C62.9192 206.565 62.3572 206.987 61.779 207.368C61.0852 207.818 60.3659 208.224 59.613 208.586C59.2363 208.766 58.8496 208.932 58.4486 209.076C58.2503 209.151 58.0351 209.206 57.83 209.27L57.2313 209.401C55.4856 209.789 53.6758 209.992 51.8661 209.84C50.7538 209.743 49.6472 209.509 48.5934 209.102C47.7977 208.784 47.0473 208.334 46.387 207.763C45.7361 207.182 45.204 206.433 44.941 205.564C44.7507 204.891 44.7221 204.134 44.9515 203.446C45.1878 202.761 45.6298 202.171 46.157 201.718C46.3895 201.517 46.6251 201.333 46.8894 201.179C47.3768 200.891 47.743 200.806 48.0003 200.774C48.2627 200.753 48.4318 200.813 48.5835 200.938C48.6525 200.993 48.7346 201.042 48.7793 201.101C48.9298 201.303 48.5798 201.594 48.0035 201.958C47.1449 202.486 46.4231 203.218 46.226 203.999C46.1067 204.388 46.1284 204.772 46.2198 205.178C46.3305 205.584 46.5686 205.98 46.8595 206.349C47.782 207.439 49.3102 208.095 50.8854 208.366C50.8947 208.368 50.9011 208.376 50.9002 208.386Z" fill="#231F20"/>
<path fill-rule="evenodd" clip-rule="evenodd" d="M49.2435 205.446C49.2408 205.454 49.2446 205.462 49.2524 205.466C50.1279 205.83 51.1008 206.069 52.0959 206.186C52.4615 206.231 52.8314 206.225 53.2 206.239C54.5019 206.296 55.8329 206.2 57.108 205.875C57.6719 205.729 58.2265 205.53 58.7344 205.268C59.3878 204.927 59.9566 204.485 60.4615 203.995C60.6219 203.842 60.7412 203.929 60.7636 204.199C60.7997 204.473 60.6865 204.95 60.3147 205.288C58.9955 206.437 57.3629 206.972 55.7378 207.131C54.7642 207.224 53.7602 207.373 52.7586 207.344C51.6613 207.311 50.5578 207.168 49.4954 206.826C48.8432 206.616 48.2053 206.335 47.6166 205.955C47.1733 205.665 46.7593 205.313 46.4186 204.889C46.2594 204.668 46.0996 204.448 45.9809 204.201C45.8448 203.98 45.7453 203.627 45.7515 203.327C45.7583 202.841 45.9442 202.409 46.1823 202.048C46.4242 201.686 46.7276 201.38 47.0776 201.132C47.2293 201.019 47.3872 200.918 47.5613 200.833C48.2252 200.538 48.5286 200.652 48.6778 200.915C48.7133 200.976 48.7549 201.034 48.7723 201.094C48.8189 201.296 48.6038 201.48 48.2843 201.656C47.7969 201.913 47.3381 202.333 47.0888 202.769C46.9638 202.984 46.9091 203.194 46.9215 203.332C46.9234 203.405 46.9452 203.46 46.9731 203.518C47.0067 203.59 47.1 203.74 47.1565 203.85C47.5913 204.529 48.3526 205.071 49.2344 205.426C49.2423 205.429 49.2463 205.438 49.2435 205.446Z" fill="#231F20"/>
<path fill-rule="evenodd" clip-rule="evenodd" d="M52.8178 211.134C52.8166 211.143 52.8227 211.152 52.8319 211.154C53.6474 211.344 54.5337 211.372 55.4175 211.292C55.7439 211.27 56.0609 211.179 56.3855 211.126C57.5337 210.938 58.6683 210.581 59.7538 210.105C60.23 209.884 60.6857 209.612 61.0986 209.303C61.6438 208.914 62.0777 208.431 62.526 207.982C62.677 207.846 62.8119 207.929 62.876 208.187C62.9058 208.315 62.9313 208.501 62.8934 208.695C62.8486 208.875 62.7622 209.073 62.6242 209.251C61.5891 210.405 60.3009 211.232 58.8741 211.668C58.0193 211.913 57.1682 212.269 56.2667 212.425C55.2826 212.603 54.2692 212.666 53.2577 212.565C52.6373 212.499 52.0125 212.352 51.4274 212.143C50.5403 211.818 49.7022 211.318 49.0072 210.666C48.4644 210.168 47.9652 209.607 47.6065 208.948C47.5331 208.802 47.461 208.657 47.3995 208.504C47.2198 207.918 47.3224 207.693 47.5686 207.512C47.6251 207.47 47.6761 207.422 47.7302 207.394C47.9037 207.303 48.1673 207.478 48.396 207.796C48.7324 208.272 49.0252 208.72 49.3591 209.131C49.6941 209.541 50.0889 209.894 50.5365 210.193C51.1897 210.631 51.9992 210.953 52.8032 211.114C52.8127 211.115 52.8191 211.124 52.8178 211.134Z" fill="#231F20"/>
<path fill-rule="evenodd" clip-rule="evenodd" d="M49.3784 172.995C49.3868 172.993 49.3922 172.985 49.3916 172.976C49.3702 172.669 49.3687 172.355 49.3858 172.033L49.4225 171.529L49.4828 171.165C49.5176 171.034 49.5649 170.907 49.6053 170.778C49.7781 170.258 50.1822 169.92 50.6609 169.821C51.1446 169.725 51.6488 169.891 52.0368 170.244C52.1306 170.336 52.2289 170.429 52.3066 170.533C52.393 170.638 52.4751 170.739 52.5105 170.807C52.6093 170.961 52.6877 171.113 52.7623 171.264C52.9102 171.567 53.024 171.865 53.126 172.162C53.3181 172.761 53.4791 173.383 53.5518 174C53.8583 176.467 53.4872 178.955 52.4073 181.19C52.209 181.598 51.9771 181.992 51.7209 182.373C51.591 182.566 51.4169 182.76 51.264 182.95C51.0818 183.124 50.8966 183.303 50.6883 183.453C49.8372 184.07 48.697 184.232 47.7626 184.011C46.9227 183.839 46.1779 183.483 45.5021 183.057C44.8251 182.627 44.2164 182.127 43.6656 181.545C43.1061 180.944 42.6715 180.285 42.306 179.585C41.9448 178.885 41.6476 178.144 41.4984 177.343C41.3517 176.552 41.3249 175.664 41.7122 174.841C41.8956 174.441 42.148 174.083 42.5148 173.781C42.8742 173.478 43.3765 173.303 43.8534 173.318C44.8207 173.35 45.5494 173.933 46.0989 174.464C46.6665 175.017 47.1359 175.644 47.5462 176.295C48.9967 178.616 49.8074 181.22 50.577 183.719C51.08 185.334 51.5214 186.992 51.8024 188.686C51.9342 189.534 52.0355 190.389 52.0616 191.248C52.0877 192.108 52.0436 192.967 51.9628 193.817C51.8335 194.878 51.6768 194.708 51.512 193.816C51.4213 193.34 51.3019 192.722 51.1645 192.004C51.0004 191.264 50.8356 190.411 50.6783 189.482C50.3973 187.834 49.928 186.222 49.425 184.598C48.9351 182.955 48.4458 181.323 47.8515 179.769C47.2559 178.219 46.5316 176.699 45.4878 175.521C45.2304 175.228 44.9395 174.949 44.6665 174.761C44.383 174.574 44.0803 174.459 43.8235 174.459C43.5661 174.452 43.3417 174.544 43.1241 174.755C42.9065 174.966 42.7219 175.282 42.6286 175.589C42.3868 176.365 42.5733 177.362 42.9401 178.26C43.305 179.165 43.8509 180.048 44.5155 180.743C45.2105 181.447 46.0467 182.053 46.9326 182.454C47.8142 182.836 48.7878 183.018 49.5493 182.661C49.9702 182.479 50.3321 182.157 50.6311 181.752C50.9351 181.313 51.2037 180.834 51.4262 180.332C51.859 179.321 52.1474 178.231 52.2699 177.123C52.4036 176.015 52.3756 174.888 52.1797 173.804C52.0691 173.267 51.923 172.738 51.716 172.232C51.6134 171.983 51.4971 171.744 51.3659 171.539C51.2571 171.368 51.2018 171.303 51.0744 171.23C50.9239 171.145 50.7349 171.235 50.6752 171.391C50.6423 171.465 50.6143 171.548 50.6025 171.623C50.5751 171.747 50.5447 171.928 50.5391 172.087C50.5068 172.75 50.582 173.447 50.7113 174.125C50.8425 174.805 51.0302 175.479 51.2926 176.111C51.5487 176.726 51.8975 177.371 52.3433 177.68C52.7119 177.905 53.167 178.016 53.6041 177.933C54.0467 177.859 54.4813 177.621 54.8624 177.309C55.6202 176.676 56.2276 175.773 56.5186 174.834C56.6622 174.39 56.6665 173.879 56.6025 173.394C56.5329 172.917 56.3588 172.443 56.0734 172.2C55.7781 171.955 55.4834 171.958 55.172 172.252C54.8586 172.553 54.6031 173.006 54.4104 173.47C54.2512 173.833 54.1586 174.202 54.0672 174.61C53.9646 175.005 53.8963 175.407 53.8304 175.81C53.7116 176.615 53.6401 177.427 53.6227 178.239C53.586 179.862 53.7091 181.485 53.9907 183.085C54.1151 183.79 54.2699 184.472 54.4458 185.17C54.7666 186.465 55.0433 187.298 55.1925 187.9C55.3492 188.5 55.374 188.875 55.3286 189.21C55.3075 189.363 55.305 189.557 55.2665 189.659C55.167 190 54.3973 189.1 53.7073 187.159C52.7082 184.286 52.2083 181.143 52.3451 177.94C52.388 177.141 52.4632 176.337 52.5975 175.536C52.6728 175.138 52.7175 174.732 52.8139 174.334L52.9457 173.726C53.0041 173.497 53.0725 173.29 53.1483 173.08C53.3044 172.663 53.489 172.252 53.7601 171.838C54.0312 171.442 54.393 170.955 55.1807 170.694C55.5562 170.608 55.974 170.6 56.3277 170.773C56.7013 170.895 56.9674 171.124 57.1844 171.364C57.6146 171.858 57.7756 172.376 57.8869 172.858C58.0243 173.586 58.0417 174.254 57.8571 175.024C57.6631 175.725 57.3554 176.322 56.9824 176.878C56.6056 177.43 56.1574 177.937 55.6022 178.366C55.0501 178.787 54.3613 179.148 53.5469 179.212C53.3485 179.241 53.1384 179.206 52.9364 179.197C52.7343 179.171 52.5385 179.107 52.342 179.056C52.158 178.982 51.9808 178.893 51.8036 178.806C51.6053 178.69 51.4337 178.549 51.2901 178.408C50.743 177.837 50.462 177.242 50.2115 176.65C49.7433 175.465 49.4633 174.272 49.3652 173.014C49.3646 173.006 49.37 172.998 49.3784 172.995Z" fill="#231F20"/>
<path fill-rule="evenodd" clip-rule="evenodd" d="M74.0222 174.493C74.0079 174.601 73.8643 174.553 73.6411 174.422C73.5697 174.38 73.4012 174.207 73.3956 174.164C73.3844 174.08 73.3751 173.998 73.38 173.927C73.38 173.884 73.6623 173.433 73.7624 173.275C73.8556 173.12 73.9781 172.995 74.1111 172.883C74.3754 172.648 74.6582 172.43 74.9573 172.231C75.0238 172.187 75.0984 172.156 75.178 172.136C75.4553 172.07 75.694 171.948 75.9302 171.805C75.97 171.782 76.016 171.77 76.0384 171.71C76.0676 171.602 76.7782 171.321 76.8864 171.334C77.1457 171.344 77.3931 171.331 77.6449 171.363C77.6803 171.367 77.7133 171.342 77.7537 171.392C77.8463 171.506 77.9134 171.475 77.9874 171.475C78.0888 171.472 78.192 171.484 78.2952 171.518C78.3461 171.534 78.4002 171.6 78.4512 171.653C78.4972 171.699 78.4854 171.886 78.473 171.907C78.4357 171.968 78.4755 172.052 78.4842 172.129C78.4906 172.182 78.4762 172.232 78.4383 172.27C78.3987 172.309 78.3409 172.362 78.2799 172.416C78.1034 172.573 77.8677 172.701 77.648 172.787C77.4751 172.855 77.3005 172.937 77.2675 172.963C77.1949 173.012 77.0976 172.979 77.0212 173.022C76.9864 173.042 76.9469 173.065 76.9064 173.089C76.7131 173.202 76.5177 173.394 76.2983 173.348C76.289 173.346 76.2795 173.344 76.2697 173.341C76.2392 173.332 76.2212 173.349 76.2013 173.362C76.0303 173.469 75.8345 173.533 75.6449 173.617C75.5498 173.663 75.4683 173.73 75.3807 173.788C75.3645 173.798 75.3402 173.796 75.3203 173.801C75.2955 173.807 75.2675 173.809 75.2482 173.824C75.0456 173.97 74.8062 174.076 74.6359 174.268C74.5948 174.308 74.3026 174.401 74.261 174.457C74.2367 174.486 74.0278 174.448 74.0222 174.493Z" fill="#231F20"/>
<path fill-rule="evenodd" clip-rule="evenodd" d="M68.0318 160.64C68.0168 160.752 67.8645 160.701 67.632 160.567C67.558 160.524 67.3827 160.346 67.3759 160.302C67.3628 160.215 67.3516 160.128 67.3541 160.054C67.3541 160.009 67.6245 159.527 67.7153 159.352C67.8011 159.183 67.918 159.047 68.0448 158.922C68.3041 158.671 68.5807 158.44 68.8555 158.219C68.9171 158.17 68.9879 158.133 69.0663 158.11C69.3348 158.031 69.5499 157.882 69.7439 157.707C69.7762 157.678 69.8173 157.66 69.8216 157.593C69.8328 157.484 70.3855 157.074 70.475 157.053C70.7075 157.005 70.9164 156.923 71.1365 156.853C71.1688 156.845 71.1844 156.81 71.2453 156.844C71.3871 156.922 71.4275 156.863 71.4896 156.833C71.5761 156.791 71.665 156.753 71.77 156.733C71.8222 156.723 71.9087 156.758 71.9851 156.779C72.0548 156.799 72.1673 156.973 72.1698 157.001C72.1766 157.078 72.2661 157.133 72.3233 157.198C72.3426 157.219 72.3681 157.248 72.3811 157.267C72.6748 157.661 71.9444 158.215 71.5868 158.551C71.524 158.61 71.4771 158.656 71.4623 158.674C71.43 158.713 71.369 158.713 71.3168 158.723C71.2919 158.731 70.8095 159.187 70.7877 159.196C70.6659 159.256 70.5844 159.372 70.4054 159.344C70.37 159.338 70.3513 159.358 70.3308 159.375C70.1542 159.516 69.9429 159.603 69.7427 159.706C69.642 159.758 69.5605 159.838 69.4685 159.902C69.4517 159.915 69.425 159.912 69.4045 159.918C69.3777 159.926 69.3473 159.928 69.3274 159.944C69.1272 160.118 68.863 160.214 68.6864 160.416C68.6429 160.457 68.3289 160.547 68.2854 160.606C68.2593 160.636 68.038 160.594 68.0318 160.64Z" fill="#231F20"/>
<path fill-rule="evenodd" clip-rule="evenodd" d="M59.9808 213.769C59.9744 213.766 59.9663 213.767 59.9621 213.773C59.6348 214.239 59.2463 214.709 58.7305 215.075C58.5346 215.199 58.3512 215.349 58.1249 215.428C57.7364 215.589 57.2794 215.63 56.8834 215.567C56.4818 215.506 56.1181 215.369 55.7923 215.193C55.5026 215.037 55.2229 214.877 54.9568 214.705C54.7883 214.592 54.6155 214.483 54.4594 214.355C54.3096 214.218 54.1834 214.055 54.0783 213.877C54.0143 213.763 54.1324 213.671 54.3227 213.618C54.7501 213.504 55.1546 213.752 55.5307 213.985C55.9484 214.244 56.3668 214.461 56.7833 214.621C57.165 214.759 57.5238 214.654 57.8732 214.46C58.2543 214.254 58.5931 213.911 58.8853 213.505C59.0687 213.259 59.2322 212.984 59.3889 212.705C59.6208 212.276 59.8551 211.833 60.0578 211.375C60.212 211.019 60.3171 210.637 60.4855 210.274C60.5235 210.194 60.5521 210.11 60.5962 210.032C60.7777 209.752 60.9238 209.719 61.1856 209.826C61.2421 209.849 61.2975 209.864 61.3422 209.886C61.4778 209.951 61.6065 210.202 61.5542 210.419C61.4075 211.07 61.1358 211.678 60.8107 212.321C60.575 212.795 60.3094 213.278 59.9998 213.764C59.9957 213.771 59.9874 213.773 59.9808 213.769Z" fill="#231F20"/>
<path fill-rule="evenodd" clip-rule="evenodd" d="M51.5798 153.592C51.6488 153.69 51.5139 153.778 51.2708 153.86C51.1931 153.886 50.9562 153.89 50.9195 153.863C50.8499 153.811 50.7796 153.759 50.728 153.705C50.7001 153.671 50.5098 153.146 50.4184 152.974C50.3357 152.805 50.2922 152.636 50.2562 152.465C50.1841 152.12 50.0777 151.781 50.0174 151.438C50.0019 151.362 50.0038 151.284 50.0174 151.203C50.0678 150.927 50.0205 150.662 49.9316 150.406C49.9167 150.363 49.9155 150.317 49.8533 150.285C49.8292 150.274 49.8016 150.229 49.774 150.165C49.571 149.696 49.6699 149.168 49.7346 148.661C49.7389 148.625 49.7122 148.594 49.7657 148.549C49.89 148.444 49.8458 148.379 49.8546 148.3C49.8565 148.272 49.8582 148.245 49.8604 148.217C49.8734 148.05 49.9609 147.907 50.061 147.773C50.1045 147.714 50.2307 147.708 50.2543 147.719C50.3121 147.752 50.3712 147.698 50.4246 147.68C50.4433 147.674 50.4675 147.666 50.485 147.664C50.5138 147.659 50.6642 147.755 50.8163 147.868C51.0685 148.054 51.2306 148.339 51.3566 148.626C51.4536 148.847 51.5592 149.078 51.5866 149.124C51.6445 149.218 51.6068 149.341 51.6421 149.446C51.7134 149.658 51.8314 150.008 51.8309 150.03C51.8378 150.181 51.913 150.322 51.8054 150.492C51.7849 150.525 51.7961 150.554 51.803 150.584C51.8577 150.836 51.839 151.101 51.8347 151.361C51.8322 151.494 51.862 151.623 51.8626 151.755C51.8633 151.779 51.8452 151.805 51.8378 151.829C51.8284 151.86 51.8129 151.892 51.8148 151.922C51.8365 152.232 51.7768 152.548 51.8235 152.854C51.8334 152.925 51.7016 153.271 51.7184 153.351C51.7265 153.397 51.5505 153.553 51.5798 153.592Z" fill="#231F20"/>
<path fill-rule="evenodd" clip-rule="evenodd" d="M31.4505 154.683C31.3181 154.665 31.3858 154.488 31.5798 154.229C31.6414 154.146 31.8782 153.95 31.9292 153.941C32.028 153.923 32.1244 153.906 32.2027 153.905C32.2487 153.908 32.7007 154.148 32.8729 154.199C33.0333 154.258 33.1639 154.346 33.2895 154.442L34.0883 155C34.148 155.042 34.1978 155.097 34.2425 155.163C34.3917 155.393 34.6056 155.539 34.8412 155.652C34.8804 155.671 34.9133 155.702 34.9768 155.679C35.0768 155.643 35.6886 156.007 35.7508 156.09C35.8987 156.296 36.0697 156.468 36.2326 156.657C36.2562 156.684 36.2979 156.685 36.2929 156.754C36.2811 156.915 36.3557 156.932 36.4135 156.978C36.4931 157.042 36.5695 157.114 36.6317 157.208C36.6628 157.254 36.6628 157.351 36.6709 157.433C36.679 157.507 36.5459 157.681 36.5204 157.694C36.4458 157.729 36.4247 157.836 36.3818 157.916C36.3675 157.943 36.3482 157.978 36.3339 157.998C36.301 158.042 35.6159 158.075 35.5624 158.042C35.5562 158.039 35.3566 157.958 35.144 157.87C34.9314 157.785 34.7076 157.697 34.6578 157.684C34.6062 157.671 34.5795 157.615 34.5459 157.571C34.5316 157.555 33.8701 157.3 33.8471 157.28C33.7315 157.191 33.5761 157.157 33.5232 156.971C33.5133 156.934 33.4841 156.924 33.4586 156.91C33.2335 156.79 33.0501 156.606 32.8617 156.43C32.7641 156.342 32.6485 156.276 32.5434 156.197C32.5248 156.182 32.5179 156.153 32.5043 156.131C32.4869 156.105 32.4757 156.07 32.452 156.053C32.2034 155.862 32.015 155.602 31.7533 155.42C31.6892 155.379 31.5562 155.022 31.4872 154.975C31.4455 154.948 31.5021 154.69 31.4505 154.683Z" fill="#231F20"/>
</g>
<path d="M516 104.232C516 104.232 518.499 95.0444 518.554 83.8903C518.642 65.8882 512.643 46.9645 513.257 28.9727C513.661 17.1089 516.264 0.851701 516.264 0.851701" stroke="black" stroke-width="7"/>
<g filter="url(#filter2_d_1_938)">
<path d="M461.568 455.59V478.18L449.782 472.287C443.299 469.144 437.21 466.394 436.031 466.394C431.513 466.394 434.656 472.484 443.103 479.948C449.192 485.252 451.353 488.199 449.585 488.788C448.014 489.377 436.424 492.52 423.459 495.663C399.298 501.556 394.387 504.11 398.119 507.842C399.494 509.217 408.923 508.628 429.942 505.485C446.442 503.128 460.389 501.753 460.979 502.342C461.568 503.128 458.228 510.003 453.71 517.861C448.996 525.718 445.067 532.79 444.674 533.379C444.281 534.165 445.264 535.736 446.639 536.915C448.996 538.879 450.96 537.897 457.246 532.397C461.568 528.468 465.89 525.325 466.872 525.325C467.854 525.325 469.818 531.218 471.39 538.486C474.729 555.38 477.086 560.684 481.408 560.684C486.712 560.684 487.694 554.594 486.122 532.004C485.337 520.611 485.337 511.575 486.319 511.575C487.301 511.575 495.159 514.718 503.802 518.45C520.892 525.914 526.392 526.897 526.392 522.575C526.392 518.646 523.249 515.896 508.123 505.485C500.855 500.771 494.962 496.253 494.962 495.663C494.962 495.074 504.98 491.735 517.159 488.199C538.964 481.913 548 477.788 548 474.252C548 471.305 535.624 471.894 515.981 475.43C506.552 477.198 498.105 478.18 497.516 477.395C496.926 476.805 498.302 471.698 500.659 466.198C509.498 444.786 503.998 442.822 490.248 462.662C485.14 470.323 480.033 475.823 479.247 474.841C478.461 474.055 476.301 466.198 474.336 457.555C470.408 439.09 467.854 433 464.122 433C462.157 433 461.568 438.107 461.568 455.59Z" fill="#007BFF"/>
<path d="M463.068 478.18V480.607L460.897 479.522L449.127 473.637C449.125 473.636 449.122 473.634 449.119 473.633C445.889 472.067 442.769 470.605 440.318 469.537C439.09 469.002 438.047 468.574 437.249 468.282C436.85 468.135 436.531 468.03 436.292 467.963C436.09 467.907 436.006 467.896 436.003 467.894C435.713 467.897 435.548 467.935 435.468 467.962C435.458 468.146 435.513 468.674 436.036 469.68C437.185 471.889 439.916 475.13 444.092 478.821C447.143 481.478 449.314 483.632 450.5 485.249C451.064 486.018 451.57 486.879 451.665 487.738C451.719 488.218 451.652 488.779 451.312 489.289C450.985 489.779 450.518 490.053 450.088 490.201C449.178 490.537 445.813 491.487 441.18 492.718C436.455 493.973 430.307 495.547 423.814 497.121C411.693 500.077 404.594 502.154 400.986 503.912C400.098 504.344 399.484 504.728 399.078 505.062C398.667 505.399 398.547 505.621 398.515 505.709C398.499 505.752 398.484 505.798 398.538 505.931C398.605 506.099 398.77 506.362 399.125 506.726C399.16 506.741 399.24 506.773 399.388 506.811C399.694 506.889 400.155 506.958 400.81 506.999C402.116 507.082 404.003 507.044 406.557 506.862C411.654 506.498 419.219 505.572 429.72 504.002L429.72 504.002L429.729 504C437.995 502.819 445.629 501.883 451.277 501.316C454.098 501.033 456.441 500.84 458.126 500.755C458.963 500.713 459.668 500.696 460.198 500.712C460.458 500.72 460.718 500.737 460.947 500.772C461.06 500.79 461.204 500.818 461.356 500.868C461.47 500.906 461.771 501.013 462.039 501.281L462.115 501.357L462.179 501.442C462.463 501.821 462.524 502.226 462.54 502.453C462.558 502.703 462.534 502.944 462.503 503.145C462.439 503.549 462.308 504.008 462.146 504.48C461.818 505.436 461.287 506.674 460.615 508.092C459.266 510.939 457.281 514.66 455.011 518.608L455.004 518.62L454.997 518.632C452.647 522.549 450.491 526.272 448.873 529.092C448.379 529.953 447.929 530.74 447.536 531.427C446.886 532.566 446.393 533.428 446.12 533.889C446.15 533.974 446.204 534.095 446.293 534.25C446.559 534.711 447.025 535.269 447.607 535.769C448.071 536.154 448.39 536.289 448.644 536.33C448.892 536.37 449.258 536.348 449.868 536.081C451.186 535.504 453.07 534.057 456.248 531.277C458.438 529.287 460.635 527.488 462.425 526.178C463.318 525.523 464.132 524.974 464.806 524.582C465.141 524.386 465.467 524.215 465.767 524.087C466.021 523.979 466.43 523.825 466.872 523.825C467.705 523.825 468.232 524.395 468.421 524.615C468.68 524.917 468.906 525.291 469.101 525.667C469.5 526.432 469.915 527.479 470.33 528.697C471.164 531.15 472.062 534.499 472.856 538.169L472.859 538.182L472.861 538.196C474.533 546.654 475.931 552.044 477.398 555.305C478.128 556.927 478.822 557.897 479.47 558.456C480.071 558.976 480.679 559.184 481.408 559.184C482.412 559.184 483.013 558.915 483.477 558.388C484.014 557.779 484.524 556.645 484.863 554.573C485.542 550.428 485.414 543.435 484.626 532.108L484.626 532.107C484.232 526.39 484.033 521.242 484.058 517.507C484.07 515.648 484.138 514.094 484.275 512.982C484.341 512.439 484.433 511.918 484.578 511.498C484.647 511.296 484.762 511.015 484.963 510.757C485.166 510.497 485.613 510.075 486.319 510.075C486.685 510.075 487.115 510.19 487.41 510.275C487.776 510.379 488.227 510.527 488.744 510.708C489.782 511.071 491.148 511.589 492.739 512.218C495.925 513.477 500.066 515.203 504.396 517.073L504.402 517.075C512.971 520.818 518.462 522.854 521.774 523.457C523.472 523.765 524.267 523.629 524.584 523.467L524.588 523.465C524.694 523.411 524.892 523.311 524.892 522.575C524.892 521.824 524.749 521.165 524.348 520.43C523.926 519.658 523.191 518.748 521.91 517.561C519.332 515.172 514.868 511.949 507.29 506.732C503.637 504.363 500.325 502.039 497.915 500.226C496.712 499.32 495.716 498.528 495.011 497.915C494.663 497.611 494.358 497.328 494.129 497.081C494.018 496.96 493.893 496.815 493.787 496.658C493.733 496.579 493.665 496.467 493.605 496.331C493.552 496.21 493.462 495.972 493.462 495.663C493.462 495.133 493.727 494.777 493.829 494.652C493.954 494.498 494.088 494.389 494.173 494.324C494.35 494.191 494.55 494.078 494.725 493.987C495.09 493.798 495.583 493.584 496.161 493.353C497.33 492.886 498.994 492.292 501.017 491.614C505.069 490.255 510.639 488.53 516.741 486.758L516.744 486.757C527.637 483.617 535.258 481.039 540.137 478.828C542.584 477.719 544.255 476.74 545.292 475.883C546.087 475.225 546.368 474.759 546.459 474.477C546.28 474.386 545.964 474.27 545.455 474.164C544.171 473.898 542.158 473.8 539.416 473.909C533.971 474.126 526.047 475.143 516.253 476.905C511.515 477.794 507.008 478.488 503.597 478.861C501.896 479.047 500.433 479.158 499.337 479.168C498.796 479.173 498.292 479.154 497.874 479.092C497.667 479.062 497.429 479.014 497.199 478.929C497.018 478.863 496.669 478.713 496.385 478.38C496.16 478.128 496.051 477.857 495.994 477.67C495.928 477.455 495.9 477.246 495.888 477.073C495.865 476.727 495.892 476.349 495.939 475.98C496.035 475.231 496.246 474.288 496.537 473.237C497.122 471.126 498.078 468.414 499.276 465.616C501.468 460.305 502.734 456.287 503.218 453.56C503.463 452.182 503.487 451.246 503.394 450.68C503.376 450.565 503.355 450.48 503.337 450.418C503.21 450.451 502.991 450.53 502.657 450.72C501.98 451.106 501.083 451.81 499.97 452.903C497.757 455.078 494.899 458.586 491.488 463.505C488.906 467.377 486.31 470.726 484.236 473.003C483.207 474.132 482.259 475.05 481.474 475.634C481.097 475.914 480.654 476.196 480.19 476.344C479.77 476.477 478.811 476.632 478.125 475.837C477.842 475.526 477.646 475.116 477.523 474.843C477.36 474.48 477.187 474.03 477.009 473.519C476.65 472.495 476.235 471.135 475.79 469.55C474.897 466.376 473.86 462.225 472.874 457.887L472.871 457.877L472.869 457.867C470.904 448.629 469.307 442.617 467.771 438.93C467.002 437.084 466.296 435.943 465.658 435.279C465.159 434.76 464.736 434.564 464.345 434.514C464.323 434.555 464.297 434.608 464.266 434.676C464.031 435.21 463.792 436.204 463.599 437.908C463.217 441.273 463.068 446.838 463.068 455.59V478.18ZM446.086 533.763C446.086 533.763 446.086 533.765 446.086 533.769C446.086 533.765 446.086 533.763 446.086 533.763ZM503.273 450.271C503.273 450.272 503.277 450.28 503.288 450.291C503.279 450.275 503.274 450.269 503.273 450.271ZM464.423 434.391C464.423 434.391 464.419 434.395 464.411 434.405C464.42 434.397 464.423 434.392 464.423 434.391Z" stroke="black" stroke-width="3"/>
</g>
<circle cx="223" cy="83.0001" r="10" fill="black"/>
<circle cx="346" cy="83.0001" r="10" fill="black"/>
<path d="M265.156 278.413C259.156 287.613 260.489 300.547 267.422 299.213C272.756 298.28 278.089 283.213 275.422 276.413C273.556 271.213 269.422 272.013 265.156 278.413Z" fill="#000"/>
<path d="M302.623 280.68C297.956 283.746 296.49 297.88 300.09 304.946C302.89 310.28 306.756 310.146 310.223 304.546C313.956 298.68 313.156 287.613 308.756 282.946C305.423 279.346 304.89 279.213 302.623 280.68Z" fill="#000"/>
<path d="M233.288 294.946C231.421 302.28 238.888 320.68 248.088 331.213C250.888 334.546 256.488 338.546 261.821 341.213C270.221 345.346 271.555 345.613 284.755 345.613C297.421 345.613 299.555 345.213 307.155 341.746C316.888 337.213 330.088 324.013 330.088 318.68C330.088 314.013 326.755 314.813 317.555 322.146C307.421 330.146 302.621 332.68 294.221 334.28C286.221 335.746 273.288 333.88 266.221 330.28C257.821 326.013 245.421 310.28 240.488 297.613C237.955 291.213 234.621 289.88 233.288 294.946Z" fill="#0C0C0C"/>
</g>
<defs>
<filter id="filter0_d_1_938" x="-0.000732422" y="0.298828" width="563" height="589.553" filterUnits="userSpaceOnUse" color-interpolation-filters="sRGB">
<feFlood flood-opacity="0" result="BackgroundImageFix"/>
<feColorMatrix in="SourceAlpha" type="matrix" values="0 0 0 0 0 0 0 0 0 0 0 0 0 0 0 0 0 0 127 0" result="hardAlpha"/>
<feOffset dx="-9" dy="10"/>
<feComposite in2="hardAlpha" operator="out"/>
<feColorMatrix type="matrix" values="0 0 0 0 0 0 0 0 0 0 0 0 0 0 0 0 0 0 0.44 0"/>
<feBlend mode="normal" in2="BackgroundImageFix" result="effect1_dropShadow_1_938"/>
<feBlend mode="normal" in="SourceGraphic" in2="effect1_dropShadow_1_938" result="shape"/>
</filter>
<filter id="filter1_d_1_938" x="9" y="135.852" width="94.0112" height="96.0111" filterUnits="userSpaceOnUse" color-interpolation-filters="sRGB">
<feFlood flood-opacity="0" result="BackgroundImageFix"/>
<feColorMatrix in="SourceAlpha" type="matrix" values="0 0 0 0 0 0 0 0 0 0 0 0 0 0 0 0 0 0 127 0" result="hardAlpha"/>
<feOffset dx="2" dy="4"/>
<feComposite in2="hardAlpha" operator="out"/>
<feColorMatrix type="matrix" values="0 0 0 0 0 0 0 0 0 0 0 0 0 0 0 0 0 0 1 0"/>
<feBlend mode="normal" in2="BackgroundImageFix" result="effect1_dropShadow_1_938"/>
<feBlend mode="normal" in="SourceGraphic" in2="effect1_dropShadow_1_938" result="shape"/>
</filter>
<filter id="filter2_d_1_938" x="397" y="433" width="151" height="135.448" filterUnits="userSpaceOnUse" color-interpolation-filters="sRGB">
<feFlood flood-opacity="0" result="BackgroundImageFix"/>
<feColorMatrix in="SourceAlpha" type="matrix" values="0 0 0 0 0 0 0 0 0 0 0 0 0 0 0 0 0 0 127 0" result="hardAlpha"/>
<feOffset dy="7.76457"/>
<feComposite in2="hardAlpha" operator="out"/>
<feColorMatrix type="matrix" values="0 0 0 0 0.745098 0 0 0 0 0.74902 0 0 0 0 0.705882 0 0 0 1 0"/>
<feBlend mode="normal" in2="BackgroundImageFix" result="effect1_dropShadow_1_938"/>
<feBlend mode="normal" in="SourceGraphic" in2="effect1_dropShadow_1_938" result="shape"/>
</filter>
</defs>
</svg>
